0
SECTION
2
HEADER
9
$ACADVER
1
AC1015
9
$HANDSEED
5
20000
0
ENDSEC
0
SECTION
2
CLASSES
0
ENDSEC
0
SECTION
2
TABLES
0
TABLE
2
VPORT
5
8
330
0
100
AcDbSymbolTable
70
1
0
VPORT
5
31
330
2
100
AcDbSymbolTableRecord
100
AcDbViewportTableRecord
2
*ACTIVE
70
0
10
0
20
0
11
1
21
1
12
209.475294253
22
86.0026335861
13
0
23
0
14
10
24
10
15
10
25
10
16
0
26
0
36
1
17
0
27
0
37
0
40
319.744231092
41
2.12946428571
42
50
43
0
44
0
50
0
51
0
71
0
72
100
73
1
74
3
75
0
76
0
77
0
78
0
281
0
65
1
110
0
120
0
130
0
111
1
121
0
131
0
112
0
122
1
132
0
79
0
146
0
348
10020
60
7
61
5
292
1
282
1
141
0
142
0
63
250
421
3358443
0
ENDTAB
0
TABLE
2
LTYPE
5
5
330
0
100
AcDbSymbolTable
70
4
0
LTYPE
5
14
330
5
100
AcDbSymbolTableRecord
100
AcDbLinetypeTableRecord
2
ByBlock
70
0
3

72
65
73
0
40
0
0
LTYPE
5
15
330
5
100
AcDbSymbolTableRecord
100
AcDbLinetypeTableRecord
2
ByLayer
70
0
3

72
65
73
0
40
0
0
LTYPE
5
16
330
5
100
AcDbSymbolTableRecord
100
AcDbLinetypeTableRecord
2
Continuous
70
0
3
Solid line
72
65
73
0
40
0
0
ENDTAB
0
TABLE
2
LAYER
5
2
330
0
100
AcDbSymbolTable
70
1
0
LAYER
5
10
330
2
100
AcDbSymbolTableRecord
100
AcDbLayerTableRecord
2
0
70
0
62
7
6
CONTINUOUS
370
-3
390
F
0
LAYER
5
320
100
AcDbSymbolTableRecord
100
AcDbLayerTableRecord
2
_ABF_SHEET_ID
70
0
62
100
6
Continuous
390
13
0
LAYER
5
321
100
AcDbSymbolTableRecord
100
AcDbLayerTableRecord
2
_ABF_SHEET_MATERIAL
70
0
62
1
6
Continuous
390
13
0
LAYER
5
322
100
AcDbSymbolTableRecord
100
AcDbLayerTableRecord
2
_ABF_SHEET_BORDER
70
0
62
30
6
Continuous
390
13
0
LAYER
5
323
100
AcDbSymbolTableRecord
100
AcDbLayerTableRecord
2
_ABF_CUTTING_LINES
70
0
62
54
6
Continuous
390
13
0
LAYER
5
324
100
AcDbSymbolTableRecord
100
AcDbLayerTableRecord
2
_ABF_LABEL
70
0
62
20
6
Continuous
390
13
0
LAYER
5
325
100
AcDbSymbolTableRecord
100
AcDbLayerTableRecord
2
_ABF_EDGE_BANDING
70
0
62
213
6
Continuous
390
13
0
ENDTAB
0
TABLE
2
STYLE
5
3
330
0
100
AcDbSymbolTable
70
3
0
STYLE
5
45
330
2
100
AcDbSymbolTableRecord
100
AcDbTextStyleTableRecord
2
Standard
70
0
40
0
41
1
50
0
71
0
42
1
3
txt
4

0
ENDTAB
0
TABLE
2
VIEW
5
6
330
0
100
AcDbSymbolTable
70
0
0
ENDTAB
0
TABLE
2
UCS
5
7
330
0
100
AcDbSymbolTable
70
0
0
ENDTAB
0
TABLE
2
APPID
5
9
330
0
100
AcDbSymbolTable
70
1
0
APPID
5
12
330
9
100
AcDbSymbolTableRecord
100
AcDbRegAppTableRecord
2
ACAD
70
0
0
ENDTAB
0
TABLE
2
DIMSTYLE
5
A
330
0
100
AcDbSymbolTable
70
1
100
AcDbDimStyleTable
71
1
0
DIMSTYLE
105
46
330
A
100
AcDbSymbolTableRecord
100
AcDbDimStyleTableRecord
2
Standard
70
0
40
1
41
0.18
42
0.0625
43
0.38
44
0.18
45
0
46
0
47
0
48
0
140
0.18
141
0.09
142
0
143
25.4
144
1
145
0
146
1
147
0.09
148
0
71
0
72
0
73
0
74
1
75
0
76
0
77
0
78
0
79
0
170
0
171
2
172
0
173
0
174
0
175
0
176
0
177
0
178
0
179
0
271
4
272
4
273
2
274
2
275
0
276
0
277
2
278
46
279
0
280
0
281
0
282
0
283
1
284
0
285
0
286
0
288
0
289
3
340
Standard
341

371
-2
372
-2
0
ENDTAB
0
TABLE
2
BLOCK_RECORD
5
1
330
0
100
AcDbSymbolTable
70
2
0
BLOCK_RECORD
5
1F
330
1
100
AcDbSymbolTableRecord
100
AcDbBlockTableRecord
2
*Model_Space
70
0
280
1
281
0
0
BLOCK_RECORD
5
1E
330
1
100
AcDbSymbolTableRecord
100
AcDbBlockTableRecord
2
*Paper_Space
70
0
280
1
281
0
0
ENDTAB
0
ENDSEC
0
SECTION
2
BLOCKS
0
BLOCK
5
20
330
1F
100
AcDbEntity
8
0
100
AcDbBlockBegin
2
*Model_Space
70
0
10
0
20
0
30
0
3
*Model_Space
1

0
ENDBLK
5
21
330
1F
100
AcDbEntity
8
0
100
AcDbBlockEnd
0
BLOCK
5
1C
330
1B
100
AcDbEntity
8
0
100
AcDbBlockBegin
2
*Paper_Space
70
0
10
0
20
0
30
0
3
*Paper_Space
1

0
ENDBLK
5
1D
330
1E
100
AcDbEntity
8
0
100
AcDbBlockEnd
0
ENDSEC
0
SECTION
2
ENTITIES
0
LWPOLYLINE
5
65
100
AcDbEntity
8
_ABF_SHEET_BORDER
100
AcDbPolyline
90
5
66
1
70
1
10
0.0
20
0.0
10
2800.0
20
0.0
10
2800.0
20
2070.0
10
0.0
20
2070.0
10
0.0
20
0.0
0
LWPOLYLINE
5
66
100
AcDbEntity
8
_ABF_CUTTING_LINES
100
AcDbPolyline
90
5
66
1
70
1
10
5.0000000000010285
20
5.0000000000042775
10
2003.0000000000011
20
5.000000000004638
10
2003.0000000000011
20
599.0000000000049
10
5.000000000001389
20
599.0000000000045
10
5.0000000000010285
20
5.0000000000042775
0
LWPOLYLINE
5
67
100
AcDbEntity
8
_ABF_EDGE_BANDING
100
AcDbPolyline
90
4
66
1
70
1
10
12.83966856551141
20
302.0000000000042
10
52.03801139306188
20
341.19834282755505
10
52.03801139306188
20
262.80165717245376
10
12.83966856551141
20
302.0000000000042
0
LWPOLYLINE
5
68
100
AcDbEntity
8
_ABF_EDGE_BANDING
100
AcDbPolyline
90
4
66
1
70
1
10
1004.0000000000013
20
12.839668565514659
10
964.8016571724506
20
52.038011393065126
10
1043.1983428275519
20
52.038011393065126
10
1004.0000000000013
20
12.839668565514659
0
LWPOLYLINE
5
69
100
AcDbEntity
8
_ABF_EDGE_BANDING
100
AcDbPolyline
90
4
66
1
70
1
10
1995.1603314344911
20
302.00000000000495
10
1955.9619886069406
20
262.8016571724541
10
1955.9619886069406
20
341.1983428275554
10
1995.1603314344911
20
302.00000000000495
0
LWPOLYLINE
5
6a
100
AcDbEntity
8
_ABF_EDGE_BANDING
100
AcDbPolyline
90
4
66
1
70
1
10
1004.000000000001
20
591.1603314344947
10
1043.1983428275516
20
551.961988606944
10
964.8016571724504
20
551.961988606944
10
1004.000000000001
20
591.1603314344947
0
LWPOLYLINE
5
6b
100
AcDbEntity
8
_ABF_LABEL
100
AcDbPolyline
90
5
66
1
70
1
10
857.3672632277021
20
302.00000000000443
10
732.3672632277021
20
177.00000000000446
10
607.3672632277021
20
302.00000000000443
10
732.367263227702
20
427.0000000000045
10
857.3672632277021
20
302.00000000000443
0
LWPOLYLINE
5
6c
100
AcDbEntity
8
_ABF_LABEL
100
AcDbPolyline
90
4
66
1
70
1
10
1313.1327367722995
20
389.50000000000455
10
1400.6327367722997
20
302.0000000000046
10
1313.1327367722995
20
214.50000000000455
10
1313.1327367722995
20
389.50000000000455
0
LWPOLYLINE
5
6d
100
AcDbEntity
8
_ABF_LABEL
100
AcDbPolyline
90
2
66
1
70
0
10
688.0766902203321
20
333.13796467018636
10
688.0766902203321
20
271.38325361849286
0
LWPOLYLINE
5
6e
100
AcDbEntity
8
_ABF_LABEL
100
AcDbPolyline
90
2
66
1
70
0
10
680.890973981744
20
322.3166060318691
10
671.117263227702
20
312.8331831811486
0
LWPOLYLINE
5
6f
100
AcDbEntity
8
_ABF_LABEL
100
AcDbPolyline
90
2
66
1
70
0
10
688.0766902203321
20
333.13796467018636
10
680.890973981744
20
322.3166060318691
0
LWPOLYLINE
5
70
100
AcDbEntity
8
_ABF_LABEL
100
AcDbPolyline
90
2
66
1
70
0
10
671.117263227702
20
271.38325361849286
10
688.0766902203321
20
271.38325361849286
0
LWPOLYLINE
5
71
100
AcDbEntity
8
_ABF_LABEL
100
AcDbPolyline
90
2
66
1
70
0
10
688.0766902203321
20
271.38325361849286
10
705.085831552257
20
271.38325361849286
0
LWPOLYLINE
5
72
100
AcDbEntity
8
_ABF_LABEL
100
AcDbPolyline
90
2
66
1
70
0
10
732.4597228148423
20
304.7940452240561
10
742.7401627575342
20
301.2101884254536
0
LWPOLYLINE
5
73
100
AcDbEntity
8
_ABF_LABEL
100
AcDbPolyline
90
2
66
1
70
0
10
732.4597228148423
20
332.930177467577
10
743.2758885979946
20
329.2276656519725
0
LWPOLYLINE
5
74
100
AcDbEntity
8
_ABF_LABEL
100
AcDbPolyline
90
2
66
1
70
0
10
749.4431127759765
20
289.30666999683416
10
742.7401627575342
20
275.42954319265164
0
LWPOLYLINE
5
75
100
AcDbEntity
8
_ABF_LABEL
100
AcDbPolyline
90
2
66
1
70
0
10
747.7113168689718
20
318.3158852318413
10
742.7401627575342
20
308.14668512796385
0
LWPOLYLINE
5
76
100
AcDbEntity
8
_ABF_LABEL
100
AcDbPolyline
90
2
66
1
70
0
10
742.7401627575342
20
308.14668512796385
10
732.4597228148423
20
304.7940452240561
0
LWPOLYLINE
5
77
100
AcDbEntity
8
_ABF_LABEL
100
AcDbPolyline
90
2
66
1
70
0
10
721.8361884373722
20
329.2276656519725
10
732.4597228148423
20
332.930177467577
0
LWPOLYLINE
5
78
100
AcDbEntity
8
_ABF_LABEL
100
AcDbPolyline
90
2
66
1
70
0
10
743.2758885979946
20
329.2276656519725
10
747.7113168689718
20
318.3158852318413
0
LWPOLYLINE
5
79
100
AcDbEntity
8
_ABF_LABEL
100
AcDbPolyline
90
2
66
1
70
0
10
716.1127885013206
20
318.3158852318413
10
721.8361884373722
20
329.2276656519725
0
LWPOLYLINE
5
7a
100
AcDbEntity
8
_ABF_LABEL
100
AcDbPolyline
90
2
66
1
70
0
10
732.4597228148423
20
271.38325361849286
10
721.0058060850575
20
275.42954319265164
0
LWPOLYLINE
5
7b
100
AcDbEntity
8
_ABF_LABEL
100
AcDbPolyline
90
2
66
1
70
0
10
742.7401627575342
20
275.42954319265164
10
732.4597228148423
20
271.38325361849286
0
LWPOLYLINE
5
7c
100
AcDbEntity
8
_ABF_LABEL
100
AcDbPolyline
90
2
66
1
70
0
10
742.7401627575342
20
301.2101884254536
10
749.4431127759765
20
289.30666999683416
0
LWPOLYLINE
5
7d
100
AcDbEntity
8
_ABF_LABEL
100
AcDbPolyline
90
2
66
1
70
0
10
721.0058060850575
20
275.42954319265164
10
715.2914136794275
20
287.42306367601776
0
LWPOLYLINE
5
7e
100
AcDbEntity
8
_ABF_LABEL
100
AcDbPolyline
90
2
66
1
70
0
10
776.6081218957771
20
333.13796467018636
10
776.6081218957771
20
271.38325361849286
0
LWPOLYLINE
5
7f
100
AcDbEntity
8
_ABF_LABEL
100
AcDbPolyline
90
2
66
1
70
0
10
769.422405657189
20
322.3166060318691
10
759.6486949031471
20
312.8331831811486
0
LWPOLYLINE
5
80
100
AcDbEntity
8
_ABF_LABEL
100
AcDbPolyline
90
2
66
1
70
0
10
776.6081218957771
20
333.13796467018636
10
769.422405657189
20
322.3166060318691
0
LWPOLYLINE
5
81
100
AcDbEntity
8
_ABF_LABEL
100
AcDbPolyline
90
2
66
1
70
0
10
759.6486949031471
20
271.38325361849286
10
776.6081218957771
20
271.38325361849286
0
LWPOLYLINE
5
82
100
AcDbEntity
8
_ABF_LABEL
100
AcDbPolyline
90
2
66
1
70
0
10
776.6081218957771
20
271.38325361849286
10
793.617263227702
20
271.3832536184929
0
LWPOLYLINE
5
83
100
AcDbEntity
8
_ABF_LABEL
100
AcDbPolyline
90
2
66
1
70
0
10
979.622689872981
20
358.9499836862132
10
989.9335349500187
20
335.7500000000045
0
LWPOLYLINE
5
84
100
AcDbEntity
8
_ABF_LABEL
100
AcDbPolyline
90
2
66
1
70
0
10
959.961894392968
20
403.18787825108024
10
979.622689872981
20
358.9499836862132
0
LWPOLYLINE
5
85
100
AcDbEntity
8
_ABF_LABEL
100
AcDbPolyline
90
2
66
1
70
0
10
932.367263227702
20
335.7500000000045
10
941.8603709489116
20
358.9499836862132
0
LWPOLYLINE
5
86
100
AcDbEntity
8
_ABF_LABEL
100
AcDbPolyline
90
2
66
1
70
0
10
941.8603709489116
20
358.9499836862132
10
959.961894392968
20
403.18787825108024
0
LWPOLYLINE
5
87
100
AcDbEntity
8
_ABF_LABEL
100
AcDbPolyline
90
2
66
1
70
0
10
941.8603709489116
20
358.9499836862132
10
979.622689872981
20
358.9499836862132
0
LWPOLYLINE
5
88
100
AcDbEntity
8
_ABF_LABEL
100
AcDbPolyline
90
2
66
1
70
0
10
1001.1835349500187
20
368.7972111702011
10
1001.1835349500187
20
336.22831351403596
0
LWPOLYLINE
5
89
100
AcDbEntity
8
_ABF_LABEL
100
AcDbPolyline
90
2
66
1
70
0
10
1047.1290958821783
20
376.6510410308883
10
1038.8855410516271
20
370.93188297749015
0
LWPOLYLINE
5
8a
100
AcDbEntity
8
_ABF_LABEL
100
AcDbPolyline
90
2
66
1
70
0
10
1038.8855410516271
20
370.93188297749015
10
1024.9620778262624
20
368.7972111702011
0
LWPOLYLINE
5
8b
100
AcDbEntity
8
_ABF_LABEL
100
AcDbPolyline
90
2
66
1
70
0
10
1001.1835349500187
20
368.7972111702011
10
1024.9620778262624
20
368.7972111702011
0
LWPOLYLINE
5
8c
100
AcDbEntity
8
_ABF_LABEL
100
AcDbPolyline
90
2
66
1
70
0
10
1043.5823706686506
20
398.362615525727
10
1049.990319997073
20
386.406838715081
0
LWPOLYLINE
5
8d
100
AcDbEntity
8
_ABF_LABEL
100
AcDbPolyline
90
2
66
1
70
0
10
1049.990319997073
20
386.406838715081
10
1047.1290958821783
20
376.6510410308883
0
LWPOLYLINE
5
8e
100
AcDbEntity
8
_ABF_LABEL
100
AcDbPolyline
90
2
66
1
70
0
10
1029.1535680890092
20
401.3661084771201
10
1043.5823706686506
20
398.362615525727
0
LWPOLYLINE
5
8f
100
AcDbEntity
8
_ABF_LABEL
100
AcDbPolyline
90
2
66
1
70
0
10
1024.9620778262624
20
368.7972111702011
10
1032.9406237006194
20
363.90380692482444
0
LWPOLYLINE
5
90
100
AcDbEntity
8
_ABF_LABEL
100
AcDbPolyline
90
2
66
1
70
0
10
1029.1535680890092
20
401.3661084771201
10
1001.1835349500187
20
401.3661084771201
0
LWPOLYLINE
5
91
100
AcDbEntity
8
_ABF_LABEL
100
AcDbPolyline
90
2
66
1
70
0
10
1001.1835349500187
20
401.3661084771201
10
1001.1835349500187
20
368.7972111702011
0
LWPOLYLINE
5
92
100
AcDbEntity
8
_ABF_LABEL
100
AcDbPolyline
90
2
66
1
70
0
10
1032.9406237006194
20
363.90380692482444
10
1053.5585788786418
20
335.7500000000045
0
LWPOLYLINE
5
93
100
AcDbEntity
8
_ABF_LABEL
100
AcDbPolyline
90
2
66
1
70
0
10
1064.8085788786418
20
369.61958763003804
10
1064.8085788786418
20
335.7500000000045
0
LWPOLYLINE
5
94
100
AcDbEntity
8
_ABF_LABEL
100
AcDbPolyline
90
2
66
1
70
0
10
1064.8085788786418
20
335.7500000000045
10
1110.2514938414104
20
335.75000000000455
0
LWPOLYLINE
5
95
100
AcDbEntity
8
_ABF_LABEL
100
AcDbPolyline
90
2
66
1
70
0
10
1064.8085788786418
20
399.8218489885375
10
1064.8085788786418
20
369.61958763003804
0
LWPOLYLINE
5
96
100
AcDbEntity
8
_ABF_LABEL
100
AcDbPolyline
90
2
66
1
70
0
10
1064.8085788786418
20
399.8218489885375
10
1110.2514938414104
20
399.82184898853757
0
LWPOLYLINE
5
97
100
AcDbEntity
8
_ABF_LABEL
100
AcDbPolyline
90
2
66
1
70
0
10
1064.8085788786418
20
369.61958763003804
10
1106.1589703857908
20
369.61958763003804
0
LWPOLYLINE
5
98
100
AcDbEntity
8
_ABF_LABEL
100
AcDbPolyline
90
2
66
1
70
0
10
1121.5014938414104
20
335.75000000000455
10
1121.5014938414104
20
402.34941077232816
0
LWPOLYLINE
5
99
100
AcDbEntity
8
_ABF_LABEL
100
AcDbPolyline
90
2
66
1
70
0
10
1121.5014938414104
20
402.34941077232816
10
1169.316465049983
20
335.75000000000455
0
LWPOLYLINE
5
9a
100
AcDbEntity
8
_ABF_LABEL
100
AcDbPolyline
90
2
66
1
70
0
10
1169.316465049983
20
335.75000000000455
10
1169.316465049983
20
402.34941077232816
0
LWPOLYLINE
5
9b
100
AcDbEntity
8
_ABF_LABEL
100
AcDbPolyline
90
2
66
1
70
0
10
1227.821891695262
20
358.9499836862133
10
1238.1327367722997
20
335.75000000000455
0
LWPOLYLINE
5
9c
100
AcDbEntity
8
_ABF_LABEL
100
AcDbPolyline
90
2
66
1
70
0
10
1208.161096215249
20
403.1878782510803
10
1227.821891695262
20
358.9499836862133
0
LWPOLYLINE
5
9d
100
AcDbEntity
8
_ABF_LABEL
100
AcDbPolyline
90
2
66
1
70
0
10
1180.5664650499828
20
335.75000000000455
10
1190.0595727711923
20
358.9499836862133
0
LWPOLYLINE
5
9e
100
AcDbEntity
8
_ABF_LABEL
100
AcDbPolyline
90
2
66
1
70
0
10
1190.0595727711923
20
358.9499836862133
10
1208.161096215249
20
403.1878782510803
0
LWPOLYLINE
5
9f
100
AcDbEntity
8
_ABF_LABEL
100
AcDbPolyline
90
2
66
1
70
0
10
1190.0595727711923
20
358.9499836862133
10
1227.821891695262
20
358.9499836862133
0
LWPOLYLINE
5
a0
100
AcDbEntity
8
_ABF_LABEL
100
AcDbPolyline
90
2
66
1
70
0
10
857.3672632277021
20
302.00000000000443
10
1313.1327367722995
20
302.00000000000455
0
LWPOLYLINE
5
a1
100
AcDbEntity
8
_ABF_CUTTING_LINES
100
AcDbPolyline
90
5
66
1
70
1
10
5.000000000001931
20
606.5000000000136
10
978.0000000000023
20
606.5000000000144
10
978.0000000000019
20
1200.5000000000093
10
5.00000000000157
20
1200.5000000000084
10
5.000000000001931
20
606.5000000000136
0
LWPOLYLINE
5
a2
100
AcDbEntity
8
_ABF_EDGE_BANDING
100
AcDbPolyline
90
4
66
1
70
1
10
12.839668565511772
20
903.5000000000111
10
52.038011393062234
20
942.6983428275619
10
52.038011393062234
20
864.3016571724617
10
12.839668565511772
20
903.5000000000111
0
LWPOLYLINE
5
a3
100
AcDbEntity
8
_ABF_EDGE_BANDING
100
AcDbPolyline
90
4
66
1
70
1
10
491.500000000002
20
614.3396685655244
10
452.30165717245166
20
653.5380113930752
10
530.6983428275524
20
653.5380113930752
10
491.500000000002
20
614.3396685655244
0
LWPOLYLINE
5
a4
100
AcDbEntity
8
_ABF_EDGE_BANDING
100
AcDbPolyline
90
4
66
1
70
1
10
970.1603314344919
20
903.5000000000118
10
930.9619886069414
20
864.3016571724617
10
930.9619886069414
20
942.6983428275619
10
970.1603314344919
20
903.5000000000118
0
LWPOLYLINE
5
a5
100
AcDbEntity
8
_ABF_EDGE_BANDING
100
AcDbPolyline
90
4
66
1
70
1
10
491.5000000000018
20
1192.6603314344993
10
530.6983428275522
20
1153.4619886069484
10
452.3016571724514
20
1153.4619886069484
10
491.5000000000018
20
1192.6603314344993
0
LWPOLYLINE
5
a6
100
AcDbEntity
8
_ABF_LABEL
100
AcDbPolyline
90
5
66
1
70
1
10
352.2197729335243
20
903.5000000000106
10
233.4875664253338
20
784.7677934918199
10
114.75535991714317
20
903.5000000000106
10
233.4875664253337
20
1022.232206508201
10
352.2197729335243
20
903.5000000000106
0
LWPOLYLINE
5
a7
100
AcDbEntity
8
_ABF_LABEL
100
AcDbPolyline
90
4
66
1
70
1
10
785.1320955271278
20
986.612544555744
10
868.2446400828612
20
903.5000000000106
10
785.1320955271278
20
820.3874554442773
10
785.1320955271278
20
986.612544555744
0
LWPOLYLINE
5
a8
100
AcDbEntity
8
_ABF_LABEL
100
AcDbPolyline
90
2
66
1
70
0
10
191.24922826863238
20
932.7670826781501
10
191.24922826863238
20
874.7228189230015
0
LWPOLYLINE
5
a9
100
AcDbEntity
8
_ABF_LABEL
100
AcDbPolyline
90
2
66
1
70
0
10
184.4952559559269
20
922.5959105635927
10
175.30878523632038
20
913.6822861959222
0
LWPOLYLINE
5
aa
100
AcDbEntity
8
_ABF_LABEL
100
AcDbPolyline
90
2
66
1
70
0
10
191.24922826863238
20
932.7670826781501
10
184.4952559559269
20
922.5959105635927
0
LWPOLYLINE
5
ab
100
AcDbEntity
8
_ABF_LABEL
100
AcDbPolyline
90
2
66
1
70
0
10
175.30878523632038
20
874.7228189230015
10
191.24922826863238
20
874.7228189230015
0
LWPOLYLINE
5
ac
100
AcDbEntity
8
_ABF_LABEL
100
AcDbPolyline
90
2
66
1
70
0
10
191.24922826863238
20
874.7228189230015
10
207.23639862220136
20
874.7228189230015
0
LWPOLYLINE
5
ad
100
AcDbEntity
8
_ABF_LABEL
100
AcDbPolyline
90
2
66
1
70
0
10
232.96556709195957
20
906.1261688406827
10
242.62832087042148
20
902.7576431729867
0
LWPOLYLINE
5
ae
100
AcDbEntity
8
_ABF_LABEL
100
AcDbPolyline
90
2
66
1
70
0
10
232.96556709195957
20
932.5717800852337
10
243.1318583569478
20
929.0917286248423
0
LWPOLYLINE
5
af
100
AcDbEntity
8
_ABF_LABEL
100
AcDbPolyline
90
2
66
1
70
0
10
248.9285333106087
20
891.5693313580923
10
242.62832087042148
20
878.525992725816
0
LWPOLYLINE
5
b0
100
AcDbEntity
8
_ABF_LABEL
100
AcDbPolyline
90
2
66
1
70
0
10
247.30078999055456
20
918.8355675974806
10
242.62832087042148
20
909.2773699643599
0
LWPOLYLINE
5
b1
100
AcDbEntity
8
_ABF_LABEL
100
AcDbPolyline
90
2
66
1
70
0
10
242.62832087042148
20
909.2773699643599
10
232.96556709195957
20
906.1261688406827
0
LWPOLYLINE
5
b2
100
AcDbEntity
8
_ABF_LABEL
100
AcDbPolyline
90
2
66
1
70
0
10
222.98033323827687
20
929.0917286248423
10
232.96556709195957
20
932.5717800852337
0
LWPOLYLINE
5
b3
100
AcDbEntity
8
_ABF_LABEL
100
AcDbPolyline
90
2
66
1
70
0
10
243.1318583569478
20
929.0917286248423
10
247.30078999055456
20
918.8355675974806
0
LWPOLYLINE
5
b4
100
AcDbEntity
8
_ABF_LABEL
100
AcDbPolyline
90
2
66
1
70
0
10
217.60081595438413
20
918.8355675974806
10
222.98033323827687
20
929.0917286248423
0
LWPOLYLINE
5
b5
100
AcDbEntity
8
_ABF_LABEL
100
AcDbPolyline
90
2
66
1
70
0
10
232.96556709195957
20
874.7228189230015
10
222.19984327314643
20
878.525992725816
0
LWPOLYLINE
5
b6
100
AcDbEntity
8
_ABF_LABEL
100
AcDbPolyline
90
2
66
1
70
0
10
242.62832087042148
20
878.525992725816
10
232.96556709195957
20
874.7228189230015
0
LWPOLYLINE
5
b7
100
AcDbEntity
8
_ABF_LABEL
100
AcDbPolyline
90
2
66
1
70
0
10
242.62832087042148
20
902.7576431729867
10
248.9285333106087
20
891.5693313580923
0
LWPOLYLINE
5
b8
100
AcDbEntity
8
_ABF_LABEL
100
AcDbPolyline
90
2
66
1
70
0
10
222.19984327314643
20
878.525992725816
10
216.82879231453765
20
889.7988989451738
0
LWPOLYLINE
5
b9
100
AcDbEntity
8
_ABF_LABEL
100
AcDbPolyline
90
2
66
1
70
0
10
271.4396591275633
20
892.5896614302288
10
268.22565303836274
20
874.7228189230015
0
LWPOLYLINE
5
ba
100
AcDbEntity
8
_ABF_LABEL
100
AcDbPolyline
90
2
66
1
70
0
10
258.52092700294503
20
932.7670826781504
10
291.6663476143471
20
932.7670826781504
0
LWPOLYLINE
5
bb
100
AcDbEntity
8
_ABF_LABEL
100
AcDbPolyline
90
2
66
1
70
0
10
279.4287122230218
20
913.5367107123229
10
271.4396591275633
20
892.5896614302288
0
LWPOLYLINE
5
bc
100
AcDbEntity
8
_ABF_LABEL
100
AcDbPolyline
90
2
66
1
70
0
10
291.6663476143471
20
932.7670826781504
10
279.4287122230218
20
913.5367107123229
0
LWPOLYLINE
5
bd
100
AcDbEntity
8
_ABF_LABEL
100
AcDbPolyline
90
2
66
1
70
0
10
468.3450254390779
20
957.5943777893627
10
478.13886053476443
20
935.5576957572221
0
LWPOLYLINE
5
be
100
AcDbEntity
8
_ABF_LABEL
100
AcDbPolyline
90
2
66
1
70
0
10
449.67006840669245
20
999.6140804530695
10
468.3450254390779
20
957.5943777893627
0
LWPOLYLINE
5
bf
100
AcDbEntity
8
_ABF_LABEL
100
AcDbPolyline
90
2
66
1
70
0
10
423.45909683843865
20
935.5576957572221
10
432.47619784931186
20
957.5943777893627
0
LWPOLYLINE
5
c0
100
AcDbEntity
8
_ABF_LABEL
100
AcDbPolyline
90
2
66
1
70
0
10
432.47619784931186
20
957.5943777893627
10
449.67006840669245
20
999.6140804530695
0
LWPOLYLINE
5
c1
100
AcDbEntity
8
_ABF_LABEL
100
AcDbPolyline
90
2
66
1
70
0
10
432.47619784931186
20
957.5943777893627
10
468.3450254390779
20
957.5943777893627
0
LWPOLYLINE
5
c2
100
AcDbEntity
8
_ABF_LABEL
100
AcDbPolyline
90
2
66
1
70
0
10
488.82475912050154
20
966.9478421666585
10
488.82475912050165
20
936.012025508611
0
LWPOLYLINE
5
c3
100
AcDbEntity
8
_ABF_LABEL
100
AcDbPolyline
90
2
66
1
70
0
10
532.466501750356
20
974.407862557853
10
524.6362981143353
20
968.9754765174606
0
LWPOLYLINE
5
c4
100
AcDbEntity
8
_ABF_LABEL
100
AcDbPolyline
90
2
66
1
70
0
10
524.6362981143353
20
968.9754765174606
10
511.4109900264698
20
966.9478421666585
0
LWPOLYLINE
5
c5
100
AcDbEntity
8
_ABF_LABEL
100
AcDbPolyline
90
2
66
1
70
0
10
488.82475912050154
20
966.9478421666585
10
511.4109900264698
20
966.9478421666585
0
LWPOLYLINE
5
c6
100
AcDbEntity
8
_ABF_LABEL
100
AcDbPolyline
90
2
66
1
70
0
10
529.0976176665131
20
995.0307677301662
10
535.1842573701633
20
983.6744816401864
0
LWPOLYLINE
5
c7
100
AcDbEntity
8
_ABF_LABEL
100
AcDbPolyline
90
2
66
1
70
0
10
535.1842573701633
20
983.6744816401864
10
532.466501750356
20
974.407862557853
0
LWPOLYLINE
5
c8
100
AcDbEntity
8
_ABF_LABEL
100
AcDbPolyline
90
2
66
1
70
0
10
515.3923091260979
20
997.8836584929718
10
529.0976176665131
20
995.0307677301662
0
LWPOLYLINE
5
c9
100
AcDbEntity
8
_ABF_LABEL
100
AcDbPolyline
90
2
66
1
70
0
10
511.4109900264698
20
966.9478421666585
10
518.9894728775838
20
962.2998046995376
0
LWPOLYLINE
5
ca
100
AcDbEntity
8
_ABF_LABEL
100
AcDbPolyline
90
2
66
1
70
0
10
515.3923091260979
20
997.8836584929718
10
488.82475912050154
20
997.8836584929718
0
LWPOLYLINE
5
cb
100
AcDbEntity
8
_ABF_LABEL
100
AcDbPolyline
90
2
66
1
70
0
10
488.82475912050154
20
997.8836584929718
10
488.82475912050154
20
966.9478421666585
0
LWPOLYLINE
5
cc
100
AcDbEntity
8
_ABF_LABEL
100
AcDbPolyline
90
2
66
1
70
0
10
518.9894728775838
20
962.2998046995376
10
538.5735953733724
20
935.5576957572221
0
LWPOLYLINE
5
cd
100
AcDbEntity
8
_ABF_LABEL
100
AcDbPolyline
90
2
66
1
70
0
10
549.2594939591095
20
967.7289827399131
10
549.2594939591095
20
935.5576957572221
0
LWPOLYLINE
5
ce
100
AcDbEntity
8
_ABF_LABEL
100
AcDbPolyline
90
2
66
1
70
0
10
549.2594939591095
20
935.5576957572221
10
592.4237944686581
20
935.5576957572221
0
LWPOLYLINE
5
cf
100
AcDbEntity
8
_ABF_LABEL
100
AcDbPolyline
90
2
66
1
70
0
10
549.2594939591094
20
996.4168318009669
10
549.2594939591095
20
967.7289827399131
0
LWPOLYLINE
5
d0
100
AcDbEntity
8
_ABF_LABEL
100
AcDbPolyline
90
2
66
1
70
0
10
549.2594939591094
20
996.4168318009669
10
592.4237944686581
20
996.4168318009669
0
LWPOLYLINE
5
d1
100
AcDbEntity
8
_ABF_LABEL
100
AcDbPolyline
90
2
66
1
70
0
10
549.2594939591095
20
967.7289827399131
10
588.53647974808
20
967.7289827399132
0
LWPOLYLINE
5
d2
100
AcDbEntity
8
_ABF_LABEL
100
AcDbPolyline
90
2
66
1
70
0
10
603.1096930543952
20
935.5576957572221
10
603.1096930543952
20
998.8176557023688
0
LWPOLYLINE
5
d3
100
AcDbEntity
8
_ABF_LABEL
100
AcDbPolyline
90
2
66
1
70
0
10
603.1096930543952
20
998.8176557023688
10
648.5271093401504
20
935.5576957572221
0
LWPOLYLINE
5
d4
100
AcDbEntity
8
_ABF_LABEL
100
AcDbPolyline
90
2
66
1
70
0
10
648.5271093401504
20
935.5576957572221
10
648.5271093401504
20
998.8176557023688
0
LWPOLYLINE
5
d5
100
AcDbEntity
8
_ABF_LABEL
100
AcDbPolyline
90
2
66
1
70
0
10
704.0989365265269
20
957.5943777893627
10
713.8927716222134
20
935.5576957572221
0
LWPOLYLINE
5
d6
100
AcDbEntity
8
_ABF_LABEL
100
AcDbPolyline
90
2
66
1
70
0
10
685.4239794941415
20
999.6140804530695
10
704.0989365265269
20
957.5943777893627
0
LWPOLYLINE
5
d7
100
AcDbEntity
8
_ABF_LABEL
100
AcDbPolyline
90
2
66
1
70
0
10
659.2130079258877
20
935.5576957572221
10
668.2301089367609
20
957.5943777893627
0
LWPOLYLINE
5
d8
100
AcDbEntity
8
_ABF_LABEL
100
AcDbPolyline
90
2
66
1
70
0
10
668.2301089367609
20
957.5943777893627
10
685.4239794941415
20
999.6140804530695
0
LWPOLYLINE
5
d9
100
AcDbEntity
8
_ABF_LABEL
100
AcDbPolyline
90
2
66
1
70
0
10
668.2301089367609
20
957.5943777893627
10
704.0989365265269
20
957.5943777893627
0
LWPOLYLINE
5
da
100
AcDbEntity
8
_ABF_LABEL
100
AcDbPolyline
90
2
66
1
70
0
10
352.2197729335243
20
903.5000000000106
10
785.1320955271278
20
903.5000000000106
0
LWPOLYLINE
5
db
100
AcDbEntity
8
_ABF_CUTTING_LINES
100
AcDbPolyline
90
5
66
1
70
1
10
985.5000000000015
20
606.5000000000072
10
1967.5000000000011
20
606.5000000000072
10
1967.5000000000011
20
1155.5000000000064
10
985.5000000000013
20
1155.5000000000061
10
985.5000000000015
20
606.5000000000072
0
LWPOLYLINE
5
dc
100
AcDbEntity
8
_ABF_EDGE_BANDING
100
AcDbPolyline
90
4
66
1
70
1
10
1476.5000000000014
20
613.9894692502177
10
1439.0526537489484
20
651.4368155012708
10
1513.9473462510543
20
651.4368155012711
10
1476.5000000000014
20
613.9894692502177
0
LWPOLYLINE
5
dd
100
AcDbEntity
8
_ABF_LABEL
100
AcDbPolyline
90
5
66
1
70
1
10
1334.1133118658265
20
880.500000000006
10
1212.7329406843878
20
759.1196288185674
10
1091.3525695029493
20
880.500000000006
10
1212.7329406843878
20
1001.8803711814446
10
1334.1133118658265
20
880.500000000006
0
LWPOLYLINE
5
de
100
AcDbEntity
8
_ABF_LABEL
100
AcDbPolyline
90
4
66
1
70
1
10
1776.6811706700457
20
965.466259827013
10
1861.6474304970525
20
880.500000000006
10
1776.6811706700457
20
795.5337401729992
10
1776.6811706700457
20
965.466259827013
0
LWPOLYLINE
5
df
100
AcDbEntity
8
_ABF_LABEL
100
AcDbPolyline
90
2
66
1
70
0
10
1169.700308649717
20
910.6911675387195
10
1169.700308649717
20
850.8142023158788
0
LWPOLYLINE
5
e0
100
AcDbEntity
8
_ABF_LABEL
100
AcDbPolyline
90
2
66
1
70
0
10
1162.7330850324133
20
900.1988487533879
10
1153.2565588054829
20
891.0037837849718
0
LWPOLYLINE
5
e1
100
AcDbEntity
8
_ABF_LABEL
100
AcDbPolyline
90
2
66
1
70
0
10
1169.700308649717
20
910.6911675387195
10
1162.7330850324133
20
900.1988487533879
0
LWPOLYLINE
5
e2
100
AcDbEntity
8
_ABF_LABEL
100
AcDbPolyline
90
2
66
1
70
0
10
1153.2565588054829
20
850.8142023158788
10
1169.700308649717
20
850.8142023158788
0
LWPOLYLINE
5
e3
100
AcDbEntity
8
_ABF_LABEL
100
AcDbPolyline
90
2
66
1
70
0
10
1169.700308649717
20
850.8142023158788
10
1186.1922611932166
20
850.8142023158788
0
LWPOLYLINE
5
e4
100
AcDbEntity
8
_ABF_LABEL
100
AcDbPolyline
90
2
66
1
70
0
10
1212.7338076959866
20
883.209088033331
10
1222.7016552405858
20
879.734203846537
0
LWPOLYLINE
5
e5
100
AcDbEntity
8
_ABF_LABEL
100
AcDbPolyline
90
2
66
1
70
0
10
1212.7338076959866
20
910.4896984217485
10
1223.2210915228054
20
906.8997671040465
0
LWPOLYLINE
5
e6
100
AcDbEntity
8
_ABF_LABEL
100
AcDbPolyline
90
2
66
1
70
0
10
1229.2007918782547
20
868.1926299837223
10
1222.7016552405858
20
854.737458306999
0
LWPOLYLINE
5
e7
100
AcDbEntity
8
_ABF_LABEL
100
AcDbPolyline
90
2
66
1
70
0
10
1227.5216538573516
20
896.3197759485774
10
1222.7016552405858
20
886.4597858264589
0
LWPOLYLINE
5
e8
100
AcDbEntity
8
_ABF_LABEL
100
AcDbPolyline
90
2
66
1
70
0
10
1222.7016552405858
20
886.4597858264589
10
1212.7338076959866
20
883.209088033331
0
LWPOLYLINE
5
e9
100
AcDbEntity
8
_ABF_LABEL
100
AcDbPolyline
90
2
66
1
70
0
10
1202.4332980242475
20
906.8997671040465
10
1212.7338076959866
20
910.4896984217485
0
LWPOLYLINE
5
ea
100
AcDbEntity
8
_ABF_LABEL
100
AcDbPolyline
90
2
66
1
70
0
10
1223.2210915228054
20
906.8997671040465
10
1227.5216538573516
20
896.3197759485774
0
LWPOLYLINE
5
eb
100
AcDbEntity
8
_ABF_LABEL
100
AcDbPolyline
90
2
66
1
70
0
10
1196.8839267602393
20
896.3197759485774
10
1202.4332980242475
20
906.8997671040465
0
LWPOLYLINE
5
ec
100
AcDbEntity
8
_ABF_LABEL
100
AcDbPolyline
90
2
66
1
70
0
10
1212.7338076959866
20
850.8142023158788
10
1201.6281647091616
20
854.737458306999
0
LWPOLYLINE
5
ed
100
AcDbEntity
8
_ABF_LABEL
100
AcDbPolyline
90
2
66
1
70
0
10
1222.7016552405858
20
854.737458306999
10
1212.7338076959866
20
850.8142023158788
0
LWPOLYLINE
5
ee
100
AcDbEntity
8
_ABF_LABEL
100
AcDbPolyline
90
2
66
1
70
0
10
1222.7016552405858
20
879.734203846537
10
1229.2007918782547
20
868.1926299837223
0
LWPOLYLINE
5
ef
100
AcDbEntity
8
_ABF_LABEL
100
AcDbPolyline
90
2
66
1
70
0
10
1201.6281647091616
20
854.737458306999
10
1196.0875270879258
20
866.3662975753232
0
LWPOLYLINE
5
f0
100
AcDbEntity
8
_ABF_LABEL
100
AcDbPolyline
90
2
66
1
70
0
10
1255.7423383810244
20
883.209088033331
10
1265.710185925624
20
879.734203846537
0
LWPOLYLINE
5
f1
100
AcDbEntity
8
_ABF_LABEL
100
AcDbPolyline
90
2
66
1
70
0
10
1255.7423383810244
20
910.4896984217485
10
1266.2296222078432
20
906.8997671040465
0
LWPOLYLINE
5
f2
100
AcDbEntity
8
_ABF_LABEL
100
AcDbPolyline
90
2
66
1
70
0
10
1272.2093225632927
20
868.1926299837223
10
1265.710185925624
20
854.737458306999
0
LWPOLYLINE
5
f3
100
AcDbEntity
8
_ABF_LABEL
100
AcDbPolyline
90
2
66
1
70
0
10
1270.5301845423896
20
896.3197759485774
10
1265.710185925624
20
886.4597858264589
0
LWPOLYLINE
5
f4
100
AcDbEntity
8
_ABF_LABEL
100
AcDbPolyline
90
2
66
1
70
0
10
1265.710185925624
20
886.4597858264589
10
1255.7423383810244
20
883.209088033331
0
LWPOLYLINE
5
f5
100
AcDbEntity
8
_ABF_LABEL
100
AcDbPolyline
90
2
66
1
70
0
10
1245.4418287092853
20
906.8997671040465
10
1255.7423383810244
20
910.4896984217485
0
LWPOLYLINE
5
f6
100
AcDbEntity
8
_ABF_LABEL
100
AcDbPolyline
90
2
66
1
70
0
10
1266.2296222078432
20
906.8997671040465
10
1270.5301845423896
20
896.3197759485774
0
LWPOLYLINE
5
f7
100
AcDbEntity
8
_ABF_LABEL
100
AcDbPolyline
90
2
66
1
70
0
10
1239.8924574452776
20
896.3197759485774
10
1245.4418287092853
20
906.8997671040465
0
LWPOLYLINE
5
f8
100
AcDbEntity
8
_ABF_LABEL
100
AcDbPolyline
90
2
66
1
70
0
10
1255.7423383810244
20
850.814202315879
10
1244.6366953941997
20
854.737458306999
0
LWPOLYLINE
5
f9
100
AcDbEntity
8
_ABF_LABEL
100
AcDbPolyline
90
2
66
1
70
0
10
1265.710185925624
20
854.737458306999
10
1255.7423383810244
20
850.814202315879
0
LWPOLYLINE
5
fa
100
AcDbEntity
8
_ABF_LABEL
100
AcDbPolyline
90
2
66
1
70
0
10
1265.710185925624
20
879.734203846537
10
1272.2093225632927
20
868.1926299837223
0
LWPOLYLINE
5
fb
100
AcDbEntity
8
_ABF_LABEL
100
AcDbPolyline
90
2
66
1
70
0
10
1244.6366953941997
20
854.737458306999
10
1239.0960577729636
20
866.3662975753232
0
LWPOLYLINE
5
fc
100
AcDbEntity
8
_ABF_LABEL
100
AcDbPolyline
90
2
66
1
70
0
10
1452.8285843870192
20
935.8008812688772
10
1462.8408580081805
20
913.2727002189946
0
LWPOLYLINE
5
fd
100
AcDbEntity
8
_ABF_LABEL
100
AcDbPolyline
90
2
66
1
70
0
10
1433.7371071623288
20
978.7577777694285
10
1452.8285843870192
20
935.8008812688772
0
LWPOLYLINE
5
fe
100
AcDbEntity
8
_ABF_LABEL
100
AcDbPolyline
90
2
66
1
70
0
10
1406.9415345746897
20
913.2727002189944
10
1416.159750085616
20
935.8008812688772
0
LWPOLYLINE
5
ff
100
AcDbEntity
8
_ABF_LABEL
100
AcDbPolyline
90
2
66
1
70
0
10
1416.159750085616
20
935.8008812688772
10
1433.7371071623288
20
978.7577777694285
0
LWPOLYLINE
5
100
100
AcDbEntity
8
_ABF_LABEL
100
AcDbPolyline
90
2
66
1
70
0
10
1416.159750085616
20
935.8008812688772
10
1452.8285843870192
20
935.8008812688772
0
LWPOLYLINE
5
101
100
AcDbEntity
8
_ABF_LABEL
100
AcDbPolyline
90
2
66
1
70
0
10
1473.7650914145102
20
945.3629622857931
10
1473.7650914145102
20
913.7371631939884
0
LWPOLYLINE
5
102
100
AcDbEntity
8
_ABF_LABEL
100
AcDbPolyline
90
2
66
1
70
0
10
1518.3802053351892
20
952.9893685552819
10
1510.3753593736947
20
947.4358203363475
0
LWPOLYLINE
5
103
100
AcDbEntity
8
_ABF_LABEL
100
AcDbPolyline
90
2
66
1
70
0
10
1510.3753593736947
20
947.4358203363475
10
1496.8550782982877
20
945.3629622857931
0
LWPOLYLINE
5
104
100
AcDbEntity
8
_ABF_LABEL
100
AcDbPolyline
90
2
66
1
70
0
10
1473.7650914145102
20
945.3629622857931
10
1496.8550782982877
20
945.3629622857931
0
LWPOLYLINE
5
105
100
AcDbEntity
8
_ABF_LABEL
100
AcDbPolyline
90
2
66
1
70
0
10
1514.936182752017
20
974.0722403242178
10
1521.158576895983
20
962.4626673079085
0
LWPOLYLINE
5
106
100
AcDbEntity
8
_ABF_LABEL
100
AcDbPolyline
90
2
66
1
70
0
10
1521.158576895983
20
962.4626673079085
10
1518.3802053351892
20
952.9893685552819
0
LWPOLYLINE
5
107
100
AcDbEntity
8
_ABF_LABEL
100
AcDbPolyline
90
2
66
1
70
0
10
1500.9251954494523
20
976.9887610384651
10
1514.936182752017
20
974.0722403242178
0
LWPOLYLINE
5
108
100
AcDbEntity
8
_ABF_LABEL
100
AcDbPolyline
90
2
66
1
70
0
10
1496.8550782982877
20
945.3629622857931
10
1504.6025891760285
20
940.6112564966362
0
LWPOLYLINE
5
109
100
AcDbEntity
8
_ABF_LABEL
100
AcDbPolyline
90
2
66
1
70
0
10
1500.9251954494523
20
976.9887610384651
10
1473.7650914145102
20
976.9887610384651
0
LWPOLYLINE
5
10a
100
AcDbEntity
8
_ABF_LABEL
100
AcDbPolyline
90
2
66
1
70
0
10
1473.7650914145102
20
976.9887610384651
10
1473.7650914145102
20
945.3629622857931
0
LWPOLYLINE
5
10b
100
AcDbEntity
8
_ABF_LABEL
100
AcDbPolyline
90
2
66
1
70
0
10
1504.6025891760285
20
940.6112564966362
10
1524.6235095961135
20
913.2727002189946
0
LWPOLYLINE
5
10c
100
AcDbEntity
8
_ABF_LABEL
100
AcDbPolyline
90
2
66
1
70
0
10
1535.547743002443
20
946.1615251653603
10
1535.547743002443
20
913.2727002189946
0
LWPOLYLINE
5
10d
100
AcDbEntity
8
_ABF_LABEL
100
AcDbPolyline
90
2
66
1
70
0
10
1535.547743002443
20
913.2727002189946
10
1579.674766088422
20
913.2727002189946
0
LWPOLYLINE
5
10e
100
AcDbEntity
8
_ABF_LABEL
100
AcDbPolyline
90
2
66
1
70
0
10
1535.547743002443
20
975.4892187190683
10
1535.547743002443
20
946.1615251653603
0
LWPOLYLINE
5
10f
100
AcDbEntity
8
_ABF_LABEL
100
AcDbPolyline
90
2
66
1
70
0
10
1535.547743002443
20
975.4892187190683
10
1579.674766088422
20
975.4892187190683
0
LWPOLYLINE
5
110
100
AcDbEntity
8
_ABF_LABEL
100
AcDbPolyline
90
2
66
1
70
0
10
1535.547743002443
20
946.1615251653603
10
1575.700749959527
20
946.1615251653603
0
LWPOLYLINE
5
111
100
AcDbEntity
8
_ABF_LABEL
100
AcDbPolyline
90
2
66
1
70
0
10
1590.5989994947515
20
913.2727002189946
10
1590.5989994947515
20
977.9435898190725
0
LWPOLYLINE
5
112
100
AcDbEntity
8
_ABF_LABEL
100
AcDbPolyline
90
2
66
1
70
0
10
1590.5989994947515
20
977.9435898190725
10
1637.029391121362
20
913.2727002189946
0
LWPOLYLINE
5
113
100
AcDbEntity
8
_ABF_LABEL
100
AcDbPolyline
90
2
66
1
70
0
10
1637.029391121362
20
913.2727002189946
10
1637.029391121362
20
977.9435898190725
0
LWPOLYLINE
5
114
100
AcDbEntity
8
_ABF_LABEL
100
AcDbPolyline
90
2
66
1
70
0
10
1693.8406743400212
20
935.8008812688772
10
1703.8529479611825
20
913.2727002189946
0
LWPOLYLINE
5
115
100
AcDbEntity
8
_ABF_LABEL
100
AcDbPolyline
90
2
66
1
70
0
10
1674.7491971153308
20
978.7577777694285
10
1693.8406743400212
20
935.8008812688772
0
LWPOLYLINE
5
116
100
AcDbEntity
8
_ABF_LABEL
100
AcDbPolyline
90
2
66
1
70
0
10
1647.9536245276915
20
913.2727002189946
10
1657.171840038618
20
935.8008812688772
0
LWPOLYLINE
5
117
100
AcDbEntity
8
_ABF_LABEL
100
AcDbPolyline
90
2
66
1
70
0
10
1657.171840038618
20
935.8008812688772
10
1674.7491971153308
20
978.7577777694285
0
LWPOLYLINE
5
118
100
AcDbEntity
8
_ABF_LABEL
100
AcDbPolyline
90
2
66
1
70
0
10
1657.171840038618
20
935.8008812688772
10
1693.8406743400212
20
935.8008812688772
0
LWPOLYLINE
5
119
100
AcDbEntity
8
_ABF_LABEL
100
AcDbPolyline
90
2
66
1
70
0
10
1334.1133118658265
20
880.500000000006
10
1776.6811706700457
20
880.500000000006
0
LWPOLYLINE
5
11a
100
AcDbEntity
8
_ABF_CUTTING_LINES
100
AcDbPolyline
90
5
66
1
70
1
10
985.5000000000009
20
1163.000000000006
10
1967.500000000001
20
1163.0000000000061
10
1967.5000000000005
20
1712.0000000000052
10
985.5000000000006
20
1712.0000000000048
10
985.5000000000009
20
1163.000000000006
0
LWPOLYLINE
5
11b
100
AcDbEntity
8
_ABF_EDGE_BANDING
100
AcDbPolyline
90
4
66
1
70
1
10
1476.5000000000007
20
1170.4894692502164
10
1439.052653748948
20
1207.936815501269
10
1513.9473462510537
20
1207.9368155012694
10
1476.5000000000007
20
1170.4894692502164
0
LWPOLYLINE
5
11c
100
AcDbEntity
8
_ABF_LABEL
100
AcDbPolyline
90
5
66
1
70
1
10
1334.1133118658265
20
1437.0000000000023
10
1212.7329406843878
20
1315.6196288185636
10
1091.3525695029493
20
1437.0000000000023
10
1212.7329406843878
20
1558.3803711814408
10
1334.1133118658265
20
1437.0000000000023
0
LWPOLYLINE
5
11d
100
AcDbEntity
8
_ABF_LABEL
100
AcDbPolyline
90
4
66
1
70
1
10
1776.6811706700457
20
1521.9662598270093
10
1861.6474304970525
20
1437.0000000000023
10
1776.6811706700457
20
1352.033740172995
10
1776.6811706700457
20
1521.9662598270093
0
LWPOLYLINE
5
11e
100
AcDbEntity
8
_ABF_LABEL
100
AcDbPolyline
90
2
66
1
70
0
10
1169.758340070877
20
1467.2977147907322
10
1169.758340070877
20
1407.2094385579612
0
LWPOLYLINE
5
11f
100
AcDbEntity
8
_ABF_LABEL
100
AcDbPolyline
90
2
66
1
70
0
10
1162.7665285164005
20
1456.7683677012642
10
1153.2565588054829
20
1447.5408525500839
0
LWPOLYLINE
5
120
100
AcDbEntity
8
_ABF_LABEL
100
AcDbPolyline
90
2
66
1
70
0
10
1169.758340070877
20
1467.2977147907322
10
1162.7665285164005
20
1456.7683677012642
0
LWPOLYLINE
5
121
100
AcDbEntity
8
_ABF_LABEL
100
AcDbPolyline
90
2
66
1
70
0
10
1153.2565588054829
20
1407.2094385579612
10
1169.758340070877
20
1407.2094385579612
0
LWPOLYLINE
5
122
100
AcDbEntity
8
_ABF_LABEL
100
AcDbPolyline
90
2
66
1
70
0
10
1169.758340070877
20
1407.2094385579612
10
1186.308494147048
20
1407.2094385579614
0
LWPOLYLINE
5
123
100
AcDbEntity
8
_ABF_LABEL
100
AcDbPolyline
90
2
66
1
70
0
10
1212.943708072269
20
1439.7186486402513
10
1222.9467330164514
20
1436.2315012854065
0
LWPOLYLINE
5
124
100
AcDbEntity
8
_ABF_LABEL
100
AcDbPolyline
90
2
66
1
70
0
10
1212.943708072269
20
1467.095534671752
10
1223.4680024344182
20
1463.4929341746836
0
LWPOLYLINE
5
125
100
AcDbEntity
8
_ABF_LABEL
100
AcDbPolyline
90
2
66
1
70
0
10
1229.4688056716934
20
1424.6491962061707
10
1222.9467330164514
20
1411.1465400601658
0
LWPOLYLINE
5
126
100
AcDbEntity
8
_ABF_LABEL
100
AcDbPolyline
90
2
66
1
70
0
10
1227.7837418269
20
1452.8756053116704
10
1222.9467330164514
20
1442.9808184281787
0
LWPOLYLINE
5
127
100
AcDbEntity
8
_ABF_LABEL
100
AcDbPolyline
90
2
66
1
70
0
10
1222.9467330164514
20
1442.9808184281787
10
1212.943708072269
20
1439.7186486402513
0
LWPOLYLINE
5
128
100
AcDbEntity
8
_ABF_LABEL
100
AcDbPolyline
90
2
66
1
70
0
10
1202.6068470074117
20
1463.4929341746836
10
1212.943708072269
20
1467.095534671752
0
LWPOLYLINE
5
129
100
AcDbEntity
8
_ABF_LABEL
100
AcDbPolyline
90
2
66
1
70
0
10
1223.4680024344182
20
1463.4929341746836
10
1227.7837418269
20
1452.8756053116704
0
LWPOLYLINE
5
12a
100
AcDbEntity
8
_ABF_LABEL
100
AcDbPolyline
90
2
66
1
70
0
10
1197.0378915303108
20
1452.8756053116704
10
1202.6068470074117
20
1463.4929341746836
0
LWPOLYLINE
5
12b
100
AcDbEntity
8
_ABF_LABEL
100
AcDbPolyline
90
2
66
1
70
0
10
1212.943708072269
20
1407.2094385579614
10
1201.79887230694
20
1411.1465400601658
0
LWPOLYLINE
5
12c
100
AcDbEntity
8
_ABF_LABEL
100
AcDbPolyline
90
2
66
1
70
0
10
1222.9467330164514
20
1411.1465400601658
10
1212.943708072269
20
1407.2094385579614
0
LWPOLYLINE
5
12d
100
AcDbEntity
8
_ABF_LABEL
100
AcDbPolyline
90
2
66
1
70
0
10
1222.9467330164514
20
1436.2315012854065
10
1229.4688056716934
20
1424.6491962061707
0
LWPOLYLINE
5
12e
100
AcDbEntity
8
_ABF_LABEL
100
AcDbPolyline
90
2
66
1
70
0
10
1201.79887230694
20
1411.1465400601658
10
1196.2386812943948
20
1422.8164185121052
0
LWPOLYLINE
5
12f
100
AcDbEntity
8
_ABF_LABEL
100
AcDbPolyline
90
2
66
1
70
0
10
1239.3989928190404
20
1407.2094385579614
10
1271.1964430986134
20
1407.2094385579614
0
LWPOLYLINE
5
130
100
AcDbEntity
8
_ABF_LABEL
100
AcDbPolyline
90
2
66
1
70
0
10
1268.3815136640487
20
1440.6643846390543
10
1244.1437957680134
20
1417.362781646637
0
LWPOLYLINE
5
131
100
AcDbEntity
8
_ABF_LABEL
100
AcDbPolyline
90
2
66
1
70
0
10
1244.8666899192751
20
1462.2038198780576
10
1240.5313644264147
20
1450.3502715327154
0
LWPOLYLINE
5
132
100
AcDbEntity
8
_ABF_LABEL
100
AcDbPolyline
90
2
66
1
70
0
10
1244.1437957680134
20
1417.362781646637
10
1239.3989928190404
20
1407.2094385579614
0
LWPOLYLINE
5
133
100
AcDbEntity
8
_ABF_LABEL
100
AcDbPolyline
90
2
66
1
70
0
10
1268.3815136640487
20
1440.6643846390543
10
1272.2093225632927
20
1452.5453727858603
0
LWPOLYLINE
5
134
100
AcDbEntity
8
_ABF_LABEL
100
AcDbPolyline
90
2
66
1
70
0
10
1256.2812182112834
20
1466.4842671243948
10
1244.8666899192751
20
1462.2038198780576
0
LWPOLYLINE
5
135
100
AcDbEntity
8
_ABF_LABEL
100
AcDbPolyline
90
2
66
1
70
0
10
1272.2093225632927
20
1452.5453727858603
10
1267.2292866484945
20
1462.450766253524
0
LWPOLYLINE
5
136
100
AcDbEntity
8
_ABF_LABEL
100
AcDbPolyline
90
2
66
1
70
0
10
1267.2292866484945
20
1462.450766253524
10
1256.2812182112834
20
1466.4842671243948
0
LWPOLYLINE
5
137
100
AcDbEntity
8
_ABF_LABEL
100
AcDbPolyline
90
2
66
1
70
0
10
1452.8285843870192
20
1492.3008812688734
10
1462.8408580081805
20
1469.7727002189906
0
LWPOLYLINE
5
138
100
AcDbEntity
8
_ABF_LABEL
100
AcDbPolyline
90
2
66
1
70
0
10
1433.7371071623288
20
1535.2577777694246
10
1452.8285843870192
20
1492.3008812688734
0
LWPOLYLINE
5
139
100
AcDbEntity
8
_ABF_LABEL
100
AcDbPolyline
90
2
66
1
70
0
10
1406.9415345746897
20
1469.7727002189906
10
1416.159750085616
20
1492.3008812688734
0
LWPOLYLINE
5
13a
100
AcDbEntity
8
_ABF_LABEL
100
AcDbPolyline
90
2
66
1
70
0
10
1416.159750085616
20
1492.3008812688734
10
1433.7371071623288
20
1535.2577777694246
0
LWPOLYLINE
5
13b
100
AcDbEntity
8
_ABF_LABEL
100
AcDbPolyline
90
2
66
1
70
0
10
1416.159750085616
20
1492.3008812688734
10
1452.8285843870192
20
1492.3008812688734
0
LWPOLYLINE
5
13c
100
AcDbEntity
8
_ABF_LABEL
100
AcDbPolyline
90
2
66
1
70
0
10
1473.7650914145102
20
1501.8629622857893
10
1473.7650914145102
20
1470.2371631939845
0
LWPOLYLINE
5
13d
100
AcDbEntity
8
_ABF_LABEL
100
AcDbPolyline
90
2
66
1
70
0
10
1518.3802053351892
20
1509.4893685552781
10
1510.3753593736947
20
1503.9358203363438
0
LWPOLYLINE
5
13e
100
AcDbEntity
8
_ABF_LABEL
100
AcDbPolyline
90
2
66
1
70
0
10
1510.3753593736947
20
1503.9358203363438
10
1496.8550782982877
20
1501.8629622857893
0
LWPOLYLINE
5
13f
100
AcDbEntity
8
_ABF_LABEL
100
AcDbPolyline
90
2
66
1
70
0
10
1473.7650914145102
20
1501.8629622857893
10
1496.8550782982877
20
1501.8629622857893
0
LWPOLYLINE
5
140
100
AcDbEntity
8
_ABF_LABEL
100
AcDbPolyline
90
2
66
1
70
0
10
1514.936182752017
20
1530.572240324214
10
1521.158576895983
20
1518.9626673079047
0
LWPOLYLINE
5
141
100
AcDbEntity
8
_ABF_LABEL
100
AcDbPolyline
90
2
66
1
70
0
10
1521.158576895983
20
1518.9626673079047
10
1518.3802053351892
20
1509.4893685552781
0
LWPOLYLINE
5
142
100
AcDbEntity
8
_ABF_LABEL
100
AcDbPolyline
90
2
66
1
70
0
10
1500.9251954494523
20
1533.4887610384612
10
1514.936182752017
20
1530.572240324214
0
LWPOLYLINE
5
143
100
AcDbEntity
8
_ABF_LABEL
100
AcDbPolyline
90
2
66
1
70
0
10
1496.8550782982877
20
1501.8629622857893
10
1504.6025891760285
20
1497.1112564966322
0
LWPOLYLINE
5
144
100
AcDbEntity
8
_ABF_LABEL
100
AcDbPolyline
90
2
66
1
70
0
10
1500.9251954494523
20
1533.4887610384612
10
1473.7650914145102
20
1533.4887610384612
0
LWPOLYLINE
5
145
100
AcDbEntity
8
_ABF_LABEL
100
AcDbPolyline
90
2
66
1
70
0
10
1473.7650914145102
20
1533.4887610384612
10
1473.7650914145102
20
1501.8629622857893
0
LWPOLYLINE
5
146
100
AcDbEntity
8
_ABF_LABEL
100
AcDbPolyline
90
2
66
1
70
0
10
1504.6025891760285
20
1497.1112564966322
10
1524.6235095961135
20
1469.7727002189906
0
LWPOLYLINE
5
147
100
AcDbEntity
8
_ABF_LABEL
100
AcDbPolyline
90
2
66
1
70
0
10
1535.547743002443
20
1502.6615251653564
10
1535.547743002443
20
1469.7727002189906
0
LWPOLYLINE
5
148
100
AcDbEntity
8
_ABF_LABEL
100
AcDbPolyline
90
2
66
1
70
0
10
1535.547743002443
20
1469.7727002189906
10
1579.674766088422
20
1469.7727002189906
0
LWPOLYLINE
5
149
100
AcDbEntity
8
_ABF_LABEL
100
AcDbPolyline
90
2
66
1
70
0
10
1535.547743002443
20
1531.9892187190644
10
1535.547743002443
20
1502.6615251653564
0
LWPOLYLINE
5
14a
100
AcDbEntity
8
_ABF_LABEL
100
AcDbPolyline
90
2
66
1
70
0
10
1535.547743002443
20
1531.9892187190644
10
1579.674766088422
20
1531.9892187190644
0
LWPOLYLINE
5
14b
100
AcDbEntity
8
_ABF_LABEL
100
AcDbPolyline
90
2
66
1
70
0
10
1535.547743002443
20
1502.6615251653564
10
1575.700749959527
20
1502.6615251653564
0
LWPOLYLINE
5
14c
100
AcDbEntity
8
_ABF_LABEL
100
AcDbPolyline
90
2
66
1
70
0
10
1590.5989994947515
20
1469.7727002189906
10
1590.5989994947515
20
1534.4435898190686
0
LWPOLYLINE
5
14d
100
AcDbEntity
8
_ABF_LABEL
100
AcDbPolyline
90
2
66
1
70
0
10
1590.5989994947515
20
1534.4435898190686
10
1637.029391121362
20
1469.7727002189906
0
LWPOLYLINE
5
14e
100
AcDbEntity
8
_ABF_LABEL
100
AcDbPolyline
90
2
66
1
70
0
10
1637.029391121362
20
1469.7727002189906
10
1637.029391121362
20
1534.4435898190686
0
LWPOLYLINE
5
14f
100
AcDbEntity
8
_ABF_LABEL
100
AcDbPolyline
90
2
66
1
70
0
10
1693.8406743400212
20
1492.3008812688734
10
1703.8529479611825
20
1469.7727002189906
0
LWPOLYLINE
5
150
100
AcDbEntity
8
_ABF_LABEL
100
AcDbPolyline
90
2
66
1
70
0
10
1674.7491971153308
20
1535.2577777694246
10
1693.8406743400212
20
1492.3008812688734
0
LWPOLYLINE
5
151
100
AcDbEntity
8
_ABF_LABEL
100
AcDbPolyline
90
2
66
1
70
0
10
1647.9536245276915
20
1469.7727002189906
10
1657.171840038618
20
1492.3008812688734
0
LWPOLYLINE
5
152
100
AcDbEntity
8
_ABF_LABEL
100
AcDbPolyline
90
2
66
1
70
0
10
1657.171840038618
20
1492.3008812688734
10
1674.7491971153308
20
1535.2577777694246
0
LWPOLYLINE
5
153
100
AcDbEntity
8
_ABF_LABEL
100
AcDbPolyline
90
2
66
1
70
0
10
1657.171840038618
20
1492.3008812688734
10
1693.8406743400212
20
1492.3008812688734
0
LWPOLYLINE
5
154
100
AcDbEntity
8
_ABF_LABEL
100
AcDbPolyline
90
2
66
1
70
0
10
1334.1133118658265
20
1437.0000000000023
10
1776.6811706700457
20
1437.0000000000023
0
LWPOLYLINE
5
155
100
AcDbEntity
8
_ABF_CUTTING_LINES
100
AcDbPolyline
90
5
66
1
70
1
10
5.000000000001931
20
1208.0000000000082
10
569.0000000000019
20
1208.0000000000082
10
569.0000000000018
20
1757.0000000000075
10
5.00000000000184
20
1757.0000000000075
10
5.000000000001931
20
1208.0000000000082
0
LWPOLYLINE
5
156
100
AcDbEntity
8
_ABF_EDGE_BANDING
100
AcDbPolyline
90
4
66
1
70
1
10
287.00000000000193
20
1215.4894692502196
10
249.55265374894876
20
1252.9368155012721
10
324.4473462510551
20
1252.9368155012721
10
287.00000000000193
20
1215.4894692502196
0
LWPOLYLINE
5
157
100
AcDbEntity
8
_ABF_LABEL
100
AcDbPolyline
90
5
66
1
70
1
10
221.87935459039497
20
1482.0000000000066
10
166.3659620466729
20
1426.4866074562847
10
110.8525695029509
20
1482.0000000000066
10
166.3659620466729
20
1537.5133925437285
10
221.87935459039497
20
1482.0000000000066
0
LWPOLYLINE
5
158
100
AcDbEntity
8
_ABF_LABEL
100
AcDbPolyline
90
4
66
1
70
1
10
424.2880557164478
20
1520.859374780612
10
463.1474304970532
20
1482.0000000000066
10
424.2880557164478
20
1443.140625219401
10
424.2880557164478
20
1520.859374780612
0
LWPOLYLINE
5
159
100
AcDbEntity
8
_ABF_LABEL
100
AcDbPolyline
90
2
66
1
70
0
10
146.63407939616206
20
1495.7145330776857
10
146.63407939616206
20
1468.515034446614
0
LWPOLYLINE
5
15a
100
AcDbEntity
8
_ABF_LABEL
100
AcDbPolyline
90
2
66
1
70
0
10
143.46917301628855
20
1490.9483294236381
10
139.16439970024913
20
1486.7714117042738
0
LWPOLYLINE
5
15b
100
AcDbEntity
8
_ABF_LABEL
100
AcDbPolyline
90
2
66
1
70
0
10
146.63407939616206
20
1495.7145330776857
10
143.46917301628855
20
1490.9483294236381
0
LWPOLYLINE
5
15c
100
AcDbEntity
8
_ABF_LABEL
100
AcDbPolyline
90
2
66
1
70
0
10
139.16439970024913
20
1468.515034446614
10
146.63407939616206
20
1468.515034446614
0
LWPOLYLINE
5
15d
100
AcDbEntity
8
_ABF_LABEL
100
AcDbPolyline
90
2
66
1
70
0
10
146.63407939616206
20
1468.515034446614
10
154.12565547990616
20
1468.515034446614
0
LWPOLYLINE
5
15e
100
AcDbEntity
8
_ABF_LABEL
100
AcDbPolyline
90
2
66
1
70
0
10
166.1823246026966
20
1483.2306207567474
10
170.7102838042869
20
1481.6521321454745
0
LWPOLYLINE
5
15f
100
AcDbEntity
8
_ABF_LABEL
100
AcDbPolyline
90
2
66
1
70
0
10
166.1823246026966
20
1495.6230144285548
10
170.9462410942827
20
1493.992264914145
0
LWPOLYLINE
5
160
100
AcDbEntity
8
_ABF_LABEL
100
AcDbPolyline
90
2
66
1
70
0
10
173.66255864690015
20
1476.409297587749
10
170.7102838042869
20
1470.29719884928
0
LWPOLYLINE
5
161
100
AcDbEntity
8
_ABF_LABEL
100
AcDbPolyline
90
2
66
1
70
0
10
172.899799343202
20
1489.186235519052
10
170.7102838042869
20
1484.7072712490553
0
LWPOLYLINE
5
162
100
AcDbEntity
8
_ABF_LABEL
100
AcDbPolyline
90
2
66
1
70
0
10
170.7102838042869
20
1484.7072712490553
10
166.1823246026966
20
1483.2306207567474
0
LWPOLYLINE
5
163
100
AcDbEntity
8
_ABF_LABEL
100
AcDbPolyline
90
2
66
1
70
0
10
161.50325147878118
20
1493.992264914145
10
166.1823246026966
20
1495.6230144285548
0
LWPOLYLINE
5
164
100
AcDbEntity
8
_ABF_LABEL
100
AcDbPolyline
90
2
66
1
70
0
10
170.9462410942827
20
1493.992264914145
10
172.899799343202
20
1489.186235519052
0
LWPOLYLINE
5
165
100
AcDbEntity
8
_ABF_LABEL
100
AcDbPolyline
90
2
66
1
70
0
10
158.98241369856063
20
1489.186235519052
10
161.50325147878118
20
1493.992264914145
0
LWPOLYLINE
5
166
100
AcDbEntity
8
_ABF_LABEL
100
AcDbPolyline
90
2
66
1
70
0
10
166.1823246026966
20
1468.515034446614
10
161.1375144642214
20
1470.29719884928
0
LWPOLYLINE
5
167
100
AcDbEntity
8
_ABF_LABEL
100
AcDbPolyline
90
2
66
1
70
0
10
170.7102838042869
20
1470.29719884928
10
166.1823246026966
20
1468.515034446614
0
LWPOLYLINE
5
168
100
AcDbEntity
8
_ABF_LABEL
100
AcDbPolyline
90
2
66
1
70
0
10
170.7102838042869
20
1481.6521321454745
10
173.66255864690015
20
1476.409297587749
0
LWPOLYLINE
5
169
100
AcDbEntity
8
_ABF_LABEL
100
AcDbPolyline
90
2
66
1
70
0
10
161.1375144642214
20
1470.29719884928
10
158.62064399770367
20
1475.579674281737
0
LWPOLYLINE
5
16a
100
AcDbEntity
8
_ABF_LABEL
100
AcDbPolyline
90
2
66
1
70
0
10
180.16522368736278
20
1470.406214157282
10
178.15754716469763
20
1474.3682609563823
0
LWPOLYLINE
5
16b
100
AcDbEntity
8
_ABF_LABEL
100
AcDbPolyline
90
2
66
1
70
0
10
185.66654980100523
20
1485.939368614314
10
191.64682144281204
20
1483.3277889918731
0
LWPOLYLINE
5
16c
100
AcDbEntity
8
_ABF_LABEL
100
AcDbPolyline
90
2
66
1
70
0
10
185.31693545099873
20
1468.515034446614
10
191.64682144281204
20
1471.6666978789815
0
LWPOLYLINE
5
16d
100
AcDbEntity
8
_ABF_LABEL
100
AcDbPolyline
90
2
66
1
70
0
10
185.31693545099873
20
1468.515034446614
10
180.16522368736278
20
1470.406214157282
0
LWPOLYLINE
5
16e
100
AcDbEntity
8
_ABF_LABEL
100
AcDbPolyline
90
2
66
1
70
0
10
192.51990931979904
20
1495.7093889715634
10
180.73265721810841
20
1495.7093889715634
0
LWPOLYLINE
5
16f
100
AcDbEntity
8
_ABF_LABEL
100
AcDbPolyline
90
2
66
1
70
0
10
178.50684011970577
20
1483.3277889918731
10
185.66654980100523
20
1485.939368614314
0
LWPOLYLINE
5
170
100
AcDbEntity
8
_ABF_LABEL
100
AcDbPolyline
90
2
66
1
70
0
10
193.5675243930967
20
1477.610104319985
10
191.64682144281204
20
1471.6666978789815
0
LWPOLYLINE
5
171
100
AcDbEntity
8
_ABF_LABEL
100
AcDbPolyline
90
2
66
1
70
0
10
191.64682144281204
20
1483.3277889918731
10
193.5675243930967
20
1477.610104319985
0
LWPOLYLINE
5
172
100
AcDbEntity
8
_ABF_LABEL
100
AcDbPolyline
90
2
66
1
70
0
10
180.73265721810841
20
1495.7093889715634
10
178.50684011970577
20
1483.3277889918731
0
LWPOLYLINE
5
173
100
AcDbEntity
8
_ABF_LABEL
100
AcDbPolyline
90
2
66
1
70
0
10
276.1738625100716
20
1507.2918943978552
10
280.7529824318244
20
1496.9886159868115
0
LWPOLYLINE
5
174
100
AcDbEntity
8
_ABF_LABEL
100
AcDbPolyline
90
2
66
1
70
0
10
267.44236285244125
20
1526.9382592481531
10
276.1738625100716
20
1507.2918943978552
0
LWPOLYLINE
5
175
100
AcDbEntity
8
_ABF_LABEL
100
AcDbPolyline
90
2
66
1
70
0
10
255.18739011662817
20
1496.9886159868115
10
259.4033470397269
20
1507.2918943978552
0
LWPOLYLINE
5
176
100
AcDbEntity
8
_ABF_LABEL
100
AcDbPolyline
90
2
66
1
70
0
10
259.4033470397269
20
1507.2918943978552
10
267.44236285244125
20
1526.9382592481531
0
LWPOLYLINE
5
177
100
AcDbEntity
8
_ABF_LABEL
100
AcDbPolyline
90
2
66
1
70
0
10
259.4033470397269
20
1507.2918943978552
10
276.1738625100716
20
1507.2918943978552
0
LWPOLYLINE
5
178
100
AcDbEntity
8
_ABF_LABEL
100
AcDbPolyline
90
2
66
1
70
0
10
285.7491877607594
20
1511.6651184361426
10
285.7491877607594
20
1497.2010384337186
0
LWPOLYLINE
5
179
100
AcDbEntity
8
_ABF_LABEL
100
AcDbPolyline
90
2
66
1
70
0
10
306.1539394381071
20
1515.1530603563663
10
302.4929178759945
20
1512.613141428063
0
LWPOLYLINE
5
17a
100
AcDbEntity
8
_ABF_LABEL
100
AcDbPolyline
90
2
66
1
70
0
10
302.4929178759945
20
1512.613141428063
10
296.3094084392125
20
1511.6651184361426
0
LWPOLYLINE
5
17b
100
AcDbEntity
8
_ABF_LABEL
100
AcDbPolyline
90
2
66
1
70
0
10
285.7491877607594
20
1511.6651184361426
10
296.3094084392125
20
1511.6651184361426
0
LWPOLYLINE
5
17c
100
AcDbEntity
8
_ABF_LABEL
100
AcDbPolyline
90
2
66
1
70
0
10
304.5788134459209
20
1524.7953256177602
10
307.4246294976729
20
1519.485679767724
0
LWPOLYLINE
5
17d
100
AcDbEntity
8
_ABF_LABEL
100
AcDbPolyline
90
2
66
1
70
0
10
307.4246294976729
20
1519.485679767724
10
306.1539394381071
20
1515.1530603563663
0
LWPOLYLINE
5
17e
100
AcDbEntity
8
_ABF_LABEL
100
AcDbPolyline
90
2
66
1
70
0
10
298.1708791936049
20
1526.129198283464
10
304.5788134459209
20
1524.7953256177602
0
LWPOLYLINE
5
17f
100
AcDbEntity
8
_ABF_LABEL
100
AcDbPolyline
90
2
66
1
70
0
10
296.3094084392125
20
1511.6651184361426
10
299.85273763162274
20
1509.491922670153
0
LWPOLYLINE
5
180
100
AcDbEntity
8
_ABF_LABEL
100
AcDbPolyline
90
2
66
1
70
0
10
298.1708791936049
20
1526.129198283464
10
285.7491877607594
20
1526.129198283464
0
LWPOLYLINE
5
181
100
AcDbEntity
8
_ABF_LABEL
100
AcDbPolyline
90
2
66
1
70
0
10
285.7491877607594
20
1526.129198283464
10
285.7491877607594
20
1511.6651184361426
0
LWPOLYLINE
5
182
100
AcDbEntity
8
_ABF_LABEL
100
AcDbPolyline
90
2
66
1
70
0
10
299.85273763162274
20
1509.491922670153
10
309.00931874559416
20
1496.9886159868115
0
LWPOLYLINE
5
183
100
AcDbEntity
8
_ABF_LABEL
100
AcDbPolyline
90
2
66
1
70
0
10
314.00552407452915
20
1512.030341694012
10
314.00552407452915
20
1496.9886159868115
0
LWPOLYLINE
5
184
100
AcDbEntity
8
_ABF_LABEL
100
AcDbPolyline
90
2
66
1
70
0
10
314.00552407452915
20
1496.9886159868115
10
334.1870470878023
20
1496.9886159868115
0
LWPOLYLINE
5
185
100
AcDbEntity
8
_ABF_LABEL
100
AcDbPolyline
90
2
66
1
70
0
10
314.00552407452915
20
1525.4433816180317
10
314.00552407452915
20
1512.030341694012
0
LWPOLYLINE
5
186
100
AcDbEntity
8
_ABF_LABEL
100
AcDbPolyline
90
2
66
1
70
0
10
314.00552407452915
20
1525.4433816180317
10
334.1870470878023
20
1525.4433816180317
0
LWPOLYLINE
5
187
100
AcDbEntity
8
_ABF_LABEL
100
AcDbPolyline
90
2
66
1
70
0
10
314.00552407452915
20
1512.030341694012
10
332.36952819911266
20
1512.030341694012
0
LWPOLYLINE
5
188
100
AcDbEntity
8
_ABF_LABEL
100
AcDbPolyline
90
2
66
1
70
0
10
339.1832524167373
20
1496.9886159868115
10
339.1832524167373
20
1526.5658898538882
0
LWPOLYLINE
5
189
100
AcDbEntity
8
_ABF_LABEL
100
AcDbPolyline
90
2
66
1
70
0
10
339.1832524167373
20
1526.5658898538882
10
360.4182225460833
20
1496.9886159868115
0
LWPOLYLINE
5
18a
100
AcDbEntity
8
_ABF_LABEL
100
AcDbPolyline
90
2
66
1
70
0
10
360.4182225460833
20
1496.9886159868115
10
360.4182225460833
20
1526.5658898538882
0
LWPOLYLINE
5
18b
100
AcDbEntity
8
_ABF_LABEL
100
AcDbPolyline
90
2
66
1
70
0
10
386.4009002684617
20
1507.2918943978552
10
390.98002019021453
20
1496.9886159868115
0
LWPOLYLINE
5
18c
100
AcDbEntity
8
_ABF_LABEL
100
AcDbPolyline
90
2
66
1
70
0
10
377.6694006108314
20
1526.9382592481531
10
386.4009002684617
20
1507.2918943978552
0
LWPOLYLINE
5
18d
100
AcDbEntity
8
_ABF_LABEL
100
AcDbPolyline
90
2
66
1
70
0
10
365.4144278750183
20
1496.9886159868115
10
369.630384798117
20
1507.2918943978552
0
LWPOLYLINE
5
18e
100
AcDbEntity
8
_ABF_LABEL
100
AcDbPolyline
90
2
66
1
70
0
10
369.630384798117
20
1507.2918943978552
10
377.6694006108314
20
1526.9382592481531
0
LWPOLYLINE
5
18f
100
AcDbEntity
8
_ABF_LABEL
100
AcDbPolyline
90
2
66
1
70
0
10
369.630384798117
20
1507.2918943978552
10
386.4009002684617
20
1507.2918943978552
0
LWPOLYLINE
5
190
100
AcDbEntity
8
_ABF_LABEL
100
AcDbPolyline
90
2
66
1
70
0
10
221.87935459039497
20
1482.0000000000066
10
424.2880557164478
20
1482.0000000000066
0
LWPOLYLINE
5
191
100
AcDbEntity
8
_ABF_CUTTING_LINES
100
AcDbPolyline
90
5
66
1
70
1
10
1975.0000000000014
20
606.5000000000078
10
2539.0000000000014
20
606.5000000000078
10
2539.0000000000014
20
1155.5000000000068
10
1975.0000000000014
20
1155.5000000000064
10
1975.0000000000014
20
606.5000000000078
0
LWPOLYLINE
5
192
100
AcDbEntity
8
_ABF_EDGE_BANDING
100
AcDbPolyline
90
4
66
1
70
1
10
2257.000000000001
20
613.9894692502185
10
2219.552653748948
20
651.4368155012718
10
2294.4473462510546
20
651.4368155012718
10
2257.000000000001
20
613.9894692502185
0
LWPOLYLINE
5
193
100
AcDbEntity
8
_ABF_LABEL
100
AcDbPolyline
90
5
66
1
70
1
10
2191.879354590394
20
880.500000000003
10
2136.3659620466724
20
824.9866074562808
10
2080.85256950295
20
880.500000000003
10
2136.3659620466724
20
936.0133925437251
10
2191.879354590394
20
880.500000000003
0
LWPOLYLINE
5
194
100
AcDbEntity
8
_ABF_LABEL
100
AcDbPolyline
90
4
66
1
70
1
10
2394.288055716447
20
919.3593747806084
10
2433.147430497053
20
880.500000000003
10
2394.288055716447
20
841.6406252193975
10
2394.288055716447
20
919.3593747806084
0
LWPOLYLINE
5
195
100
AcDbEntity
8
_ABF_LABEL
100
AcDbPolyline
90
2
66
1
70
0
10
2116.3381329983004
20
893.6711675214718
10
2116.3381329983004
20
867.5493046085543
0
LWPOLYLINE
5
196
100
AcDbEntity
8
_ABF_LABEL
100
AcDbPolyline
90
2
66
1
70
0
10
2113.298619229733
20
889.0937993811688
10
2109.1643997002484
20
885.0823698491874
0
LWPOLYLINE
5
197
100
AcDbEntity
8
_ABF_LABEL
100
AcDbPolyline
90
2
66
1
70
0
10
2116.3381329983004
20
893.6711675214718
10
2113.298619229733
20
889.0937993811688
0
LWPOLYLINE
5
198
100
AcDbEntity
8
_ABF_LABEL
100
AcDbPolyline
90
2
66
1
70
0
10
2109.1643997002484
20
867.5493046085543
10
2116.3381329983004
20
867.5493046085543
0
LWPOLYLINE
5
199
100
AcDbEntity
8
_ABF_LABEL
100
AcDbPolyline
90
2
66
1
70
0
10
2116.3381329983004
20
867.5493046085543
10
2123.5328951560746
20
867.5493046085543
0
LWPOLYLINE
5
19a
100
AcDbEntity
8
_ABF_LABEL
100
AcDbPolyline
90
2
66
1
70
0
10
2135.111882779477
20
881.6818639432101
10
2139.460445638798
20
880.1659145622106
0
LWPOLYLINE
5
19b
100
AcDbEntity
8
_ABF_LABEL
100
AcDbPolyline
90
2
66
1
70
0
10
2135.111882779477
20
893.5832748128965
10
2139.687054373987
20
892.0171350895688
0
LWPOLYLINE
5
19c
100
AcDbEntity
8
_ABF_LABEL
100
AcDbPolyline
90
2
66
1
70
0
10
2142.2957522658066
20
875.1307994871273
10
2139.460445638798
20
869.2608602091249
0
LWPOLYLINE
5
19d
100
AcDbEntity
8
_ABF_LABEL
100
AcDbPolyline
90
2
66
1
70
0
10
2141.563213249665
20
887.4015190917557
10
2139.460445638798
20
883.1000100000015
0
LWPOLYLINE
5
19e
100
AcDbEntity
8
_ABF_LABEL
100
AcDbPolyline
90
2
66
1
70
0
10
2139.460445638798
20
883.1000100000015
10
2135.111882779477
20
881.6818639432101
0
LWPOLYLINE
5
19f
100
AcDbEntity
8
_ABF_LABEL
100
AcDbPolyline
90
2
66
1
70
0
10
2130.6181930846674
20
892.0171350895688
10
2135.111882779477
20
893.5832748128965
0
LWPOLYLINE
5
1a0
100
AcDbEntity
8
_ABF_LABEL
100
AcDbPolyline
90
2
66
1
70
0
10
2139.687054373987
20
892.0171350895688
10
2141.563213249665
20
887.4015190917557
0
LWPOLYLINE
5
1a1
100
AcDbEntity
8
_ABF_LABEL
100
AcDbPolyline
90
2
66
1
70
0
10
2128.197230117159
20
887.4015190917557
10
2130.6181930846674
20
892.0171350895688
0
LWPOLYLINE
5
1a2
100
AcDbEntity
8
_ABF_LABEL
100
AcDbPolyline
90
2
66
1
70
0
10
2135.111882779477
20
867.5493046085543
10
2130.2669464574374
20
869.2608602091249
0
LWPOLYLINE
5
1a3
100
AcDbEntity
8
_ABF_LABEL
100
AcDbPolyline
90
2
66
1
70
0
10
2139.460445638798
20
869.2608602091249
10
2135.111882779477
20
867.5493046085543
0
LWPOLYLINE
5
1a4
100
AcDbEntity
8
_ABF_LABEL
100
AcDbPolyline
90
2
66
1
70
0
10
2139.460445638798
20
880.1659145622106
10
2142.2957522658066
20
875.1307994871273
0
LWPOLYLINE
5
1a5
100
AcDbEntity
8
_ABF_LABEL
100
AcDbPolyline
90
2
66
1
70
0
10
2130.2669464574374
20
869.2608602091249
10
2127.8497936198905
20
874.3340455997505
0
LWPOLYLINE
5
1a6
100
AcDbEntity
8
_ABF_LABEL
100
AcDbPolyline
90
2
66
1
70
0
10
2146.612650729623
20
875.1080089307798
10
2159.3674560916597
20
893.6711675214718
0
LWPOLYLINE
5
1a7
100
AcDbEntity
8
_ABF_LABEL
100
AcDbPolyline
90
2
66
1
70
0
10
2146.612650729623
20
875.1080089307798
10
2159.3674560916597
20
875.1080089307798
0
LWPOLYLINE
5
1a8
100
AcDbEntity
8
_ABF_LABEL
100
AcDbPolyline
90
2
66
1
70
0
10
2159.3674560916597
20
893.6711675214718
10
2159.3674560916597
20
875.1080089307798
0
LWPOLYLINE
5
1a9
100
AcDbEntity
8
_ABF_LABEL
100
AcDbPolyline
90
2
66
1
70
0
10
2159.3674560916597
20
875.1080089307798
10
2163.567524393096
20
875.1080089307798
0
LWPOLYLINE
5
1aa
100
AcDbEntity
8
_ABF_LABEL
100
AcDbPolyline
90
2
66
1
70
0
10
2159.3674560916597
20
875.1080089307798
10
2159.3674560916597
20
867.5493046085543
0
LWPOLYLINE
5
1ab
100
AcDbEntity
8
_ABF_LABEL
100
AcDbPolyline
90
2
66
1
70
0
10
2246.173862510071
20
905.7918943978516
10
2250.752982431824
20
895.4886159868079
0
LWPOLYLINE
5
1ac
100
AcDbEntity
8
_ABF_LABEL
100
AcDbPolyline
90
2
66
1
70
0
10
2237.442362852441
20
925.4382592481495
10
2246.173862510071
20
905.7918943978516
0
LWPOLYLINE
5
1ad
100
AcDbEntity
8
_ABF_LABEL
100
AcDbPolyline
90
2
66
1
70
0
10
2225.1873901166277
20
895.4886159868079
10
2229.403347039726
20
905.7918943978516
0
LWPOLYLINE
5
1ae
100
AcDbEntity
8
_ABF_LABEL
100
AcDbPolyline
90
2
66
1
70
0
10
2229.403347039726
20
905.7918943978516
10
2237.442362852441
20
925.4382592481495
0
LWPOLYLINE
5
1af
100
AcDbEntity
8
_ABF_LABEL
100
AcDbPolyline
90
2
66
1
70
0
10
2229.403347039726
20
905.7918943978516
10
2246.173862510071
20
905.7918943978516
0
LWPOLYLINE
5
1b0
100
AcDbEntity
8
_ABF_LABEL
100
AcDbPolyline
90
2
66
1
70
0
10
2255.749187760759
20
910.1651184361391
10
2255.749187760759
20
895.701038433715
0
LWPOLYLINE
5
1b1
100
AcDbEntity
8
_ABF_LABEL
100
AcDbPolyline
90
2
66
1
70
0
10
2276.1539394381066
20
913.6530603563625
10
2272.492917875994
20
911.1131414280595
0
LWPOLYLINE
5
1b2
100
AcDbEntity
8
_ABF_LABEL
100
AcDbPolyline
90
2
66
1
70
0
10
2272.492917875994
20
911.1131414280595
10
2266.309408439212
20
910.1651184361391
0
LWPOLYLINE
5
1b3
100
AcDbEntity
8
_ABF_LABEL
100
AcDbPolyline
90
2
66
1
70
0
10
2255.749187760759
20
910.1651184361391
10
2266.309408439212
20
910.1651184361391
0
LWPOLYLINE
5
1b4
100
AcDbEntity
8
_ABF_LABEL
100
AcDbPolyline
90
2
66
1
70
0
10
2274.5788134459203
20
923.2953256177566
10
2277.4246294976724
20
917.9856797677203
0
LWPOLYLINE
5
1b5
100
AcDbEntity
8
_ABF_LABEL
100
AcDbPolyline
90
2
66
1
70
0
10
2277.4246294976724
20
917.9856797677203
10
2276.1539394381066
20
913.6530603563625
0
LWPOLYLINE
5
1b6
100
AcDbEntity
8
_ABF_LABEL
100
AcDbPolyline
90
2
66
1
70
0
10
2268.1708791936044
20
924.6291982834606
10
2274.5788134459203
20
923.2953256177566
0
LWPOLYLINE
5
1b7
100
AcDbEntity
8
_ABF_LABEL
100
AcDbPolyline
90
2
66
1
70
0
10
2266.309408439212
20
910.1651184361391
10
2269.852737631622
20
907.9919226701494
0
LWPOLYLINE
5
1b8
100
AcDbEntity
8
_ABF_LABEL
100
AcDbPolyline
90
2
66
1
70
0
10
2268.1708791936044
20
924.6291982834606
10
2255.749187760759
20
924.6291982834606
0
LWPOLYLINE
5
1b9
100
AcDbEntity
8
_ABF_LABEL
100
AcDbPolyline
90
2
66
1
70
0
10
2255.749187760759
20
924.6291982834606
10
2255.749187760759
20
910.1651184361391
0
LWPOLYLINE
5
1ba
100
AcDbEntity
8
_ABF_LABEL
100
AcDbPolyline
90
2
66
1
70
0
10
2269.852737631622
20
907.9919226701494
10
2279.0093187455936
20
895.4886159868079
0
LWPOLYLINE
5
1bb
100
AcDbEntity
8
_ABF_LABEL
100
AcDbPolyline
90
2
66
1
70
0
10
2284.0055240745287
20
910.5303416940083
10
2284.0055240745287
20
895.4886159868079
0
LWPOLYLINE
5
1bc
100
AcDbEntity
8
_ABF_LABEL
100
AcDbPolyline
90
2
66
1
70
0
10
2284.0055240745287
20
895.4886159868079
10
2304.1870470878016
20
895.4886159868079
0
LWPOLYLINE
5
1bd
100
AcDbEntity
8
_ABF_LABEL
100
AcDbPolyline
90
2
66
1
70
0
10
2284.0055240745287
20
923.943381618028
10
2284.0055240745287
20
910.5303416940083
0
LWPOLYLINE
5
1be
100
AcDbEntity
8
_ABF_LABEL
100
AcDbPolyline
90
2
66
1
70
0
10
2284.0055240745287
20
923.943381618028
10
2304.1870470878016
20
923.943381618028
0
LWPOLYLINE
5
1bf
100
AcDbEntity
8
_ABF_LABEL
100
AcDbPolyline
90
2
66
1
70
0
10
2284.0055240745287
20
910.5303416940083
10
2302.369528199112
20
910.5303416940083
0
LWPOLYLINE
5
1c0
100
AcDbEntity
8
_ABF_LABEL
100
AcDbPolyline
90
2
66
1
70
0
10
2309.1832524167367
20
895.4886159868079
10
2309.1832524167367
20
925.0658898538846
0
LWPOLYLINE
5
1c1
100
AcDbEntity
8
_ABF_LABEL
100
AcDbPolyline
90
2
66
1
70
0
10
2309.1832524167367
20
925.0658898538846
10
2330.418222546083
20
895.4886159868079
0
LWPOLYLINE
5
1c2
100
AcDbEntity
8
_ABF_LABEL
100
AcDbPolyline
90
2
66
1
70
0
10
2330.418222546083
20
895.4886159868079
10
2330.4182225460827
20
925.0658898538846
0
LWPOLYLINE
5
1c3
100
AcDbEntity
8
_ABF_LABEL
100
AcDbPolyline
90
2
66
1
70
0
10
2356.400900268461
20
905.7918943978516
10
2360.980020190214
20
895.4886159868079
0
LWPOLYLINE
5
1c4
100
AcDbEntity
8
_ABF_LABEL
100
AcDbPolyline
90
2
66
1
70
0
10
2347.669400610831
20
925.4382592481495
10
2356.400900268461
20
905.7918943978516
0
LWPOLYLINE
5
1c5
100
AcDbEntity
8
_ABF_LABEL
100
AcDbPolyline
90
2
66
1
70
0
10
2335.4144278750177
20
895.4886159868079
10
2339.6303847981167
20
905.7918943978516
0
LWPOLYLINE
5
1c6
100
AcDbEntity
8
_ABF_LABEL
100
AcDbPolyline
90
2
66
1
70
0
10
2339.6303847981167
20
905.7918943978516
10
2347.669400610831
20
925.4382592481495
0
LWPOLYLINE
5
1c7
100
AcDbEntity
8
_ABF_LABEL
100
AcDbPolyline
90
2
66
1
70
0
10
2339.6303847981167
20
905.7918943978516
10
2356.400900268461
20
905.7918943978516
0
LWPOLYLINE
5
1c8
100
AcDbEntity
8
_ABF_LABEL
100
AcDbPolyline
90
2
66
1
70
0
10
2191.879354590394
20
880.500000000003
10
2394.288055716447
20
880.500000000003
0
LWPOLYLINE
5
1c9
100
AcDbEntity
8
_ABF_CUTTING_LINES
100
AcDbPolyline
90
5
66
1
70
1
10
1975.0000000000007
20
1163.000000000005
10
2539.0000000000005
20
1163.000000000005
10
2539.0
20
1702.0000000000007
10
1975.0000000000002
20
1702.0000000000007
10
1975.0000000000007
20
1163.000000000005
0
LWPOLYLINE
5
1ca
100
AcDbEntity
8
_ABF_EDGE_BANDING
100
AcDbPolyline
90
4
66
1
70
1
10
2257.0000000000005
20
1170.410048622371
10
2219.9497568881693
20
1207.4602917342022
10
2294.0502431118316
20
1207.4602917342022
10
2257.0000000000005
20
1170.410048622371
0
LWPOLYLINE
5
1cb
100
AcDbEntity
8
_ABF_LABEL
100
AcDbPolyline
90
5
66
1
70
1
10
2191.4682959935544
20
1432.0000000000034
10
2135.604488353341
20
1376.1361923597901
10
2079.740680713128
20
1432.0000000000034
10
2135.604488353341
20
1487.863807640217
10
2191.4682959935544
20
1432.0000000000034
0
LWPOLYLINE
5
1cc
100
AcDbEntity
8
_ABF_LABEL
100
AcDbPolyline
90
4
66
1
70
1
10
2395.1546539387236
20
1471.1046653481528
10
2434.259319286873
20
1432.0000000000034
10
2395.1546539387236
20
1392.8953346518542
10
2395.1546539387236
20
1471.1046653481528
0
LWPOLYLINE
5
1cd
100
AcDbEntity
8
_ABF_LABEL
100
AcDbPolyline
90
2
66
1
70
0
10
2115.879168642245
20
1446.041834872509
10
2115.879168642245
20
1418.1932113554567
0
LWPOLYLINE
5
1ce
100
AcDbEntity
8
_ABF_LABEL
100
AcDbPolyline
90
2
66
1
70
0
10
2112.638730741705
20
1441.1618842172588
10
2108.2312226096365
20
1436.8852829972861
0
LWPOLYLINE
5
1cf
100
AcDbEntity
8
_ABF_LABEL
100
AcDbPolyline
90
2
66
1
70
0
10
2115.879168642245
20
1446.041834872509
10
2112.638730741705
20
1441.1618842172588
0
LWPOLYLINE
5
1d0
100
AcDbEntity
8
_ABF_LABEL
100
AcDbPolyline
90
2
66
1
70
0
10
2108.2312226096365
20
1418.1932113554567
10
2115.879168642245
20
1418.1932113554567
0
LWPOLYLINE
5
1d1
100
AcDbEntity
8
_ABF_LABEL
100
AcDbPolyline
90
2
66
1
70
0
10
2115.879168642245
20
1418.1932113554567
10
2123.549533627106
20
1418.1932113554567
0
LWPOLYLINE
5
1d2
100
AcDbEntity
8
_ABF_LABEL
100
AcDbPolyline
90
2
66
1
70
0
10
2135.8939390819437
20
1433.2599899215675
10
2140.5299595033503
20
1431.6438301659211
0
LWPOLYLINE
5
1d3
100
AcDbEntity
8
_ABF_LABEL
100
AcDbPolyline
90
2
66
1
70
0
10
2135.8939390819437
20
1445.9481321010348
10
2140.771547990856
20
1444.278464218792
0
LWPOLYLINE
5
1d4
100
AcDbEntity
8
_ABF_LABEL
100
AcDbPolyline
90
2
66
1
70
0
10
2143.5526913457993
20
1426.2758736553737
10
2140.5299595033503
20
1420.017907691537
0
LWPOLYLINE
5
1d5
100
AcDbEntity
8
_ABF_LABEL
100
AcDbPolyline
90
2
66
1
70
0
10
2142.7717285431045
20
1439.3577373682265
10
2140.5299595033503
20
1434.7718811584
0
LWPOLYLINE
5
1d6
100
AcDbEntity
8
_ABF_LABEL
100
AcDbPolyline
90
2
66
1
70
0
10
2140.5299595033503
20
1434.7718811584
10
2135.8939390819437
20
1433.2599899215675
0
LWPOLYLINE
5
1d7
100
AcDbEntity
8
_ABF_LABEL
100
AcDbPolyline
90
2
66
1
70
0
10
2131.103198355281
20
1444.278464218792
10
2135.8939390819437
20
1445.9481321010348
0
LWPOLYLINE
5
1d8
100
AcDbEntity
8
_ABF_LABEL
100
AcDbPolyline
90
2
66
1
70
0
10
2140.771547990856
20
1444.278464218792
10
2142.7717285431045
20
1439.3577373682265
0
LWPOLYLINE
5
1d9
100
AcDbEntity
8
_ABF_LABEL
100
AcDbPolyline
90
2
66
1
70
0
10
2128.522199961115
20
1439.3577373682265
10
2131.103198355281
20
1444.278464218792
0
LWPOLYLINE
5
1da
100
AcDbEntity
8
_ABF_LABEL
100
AcDbPolyline
90
2
66
1
70
0
10
2135.8939390819437
20
1418.1932113554567
10
2130.728732907852
20
1420.017907691537
0
LWPOLYLINE
5
1db
100
AcDbEntity
8
_ABF_LABEL
100
AcDbPolyline
90
2
66
1
70
0
10
2140.5299595033503
20
1420.017907691537
10
2135.8939390819437
20
1418.1932113554567
0
LWPOLYLINE
5
1dc
100
AcDbEntity
8
_ABF_LABEL
100
AcDbPolyline
90
2
66
1
70
0
10
2140.5299595033503
20
1431.6438301659211
10
2143.5526913457993
20
1426.2758736553737
0
LWPOLYLINE
5
1dd
100
AcDbEntity
8
_ABF_LABEL
100
AcDbPolyline
90
2
66
1
70
0
10
2130.728732907852
20
1420.017907691537
10
2128.1517965086214
20
1425.4264511191911
0
LWPOLYLINE
5
1de
100
AcDbEntity
8
_ABF_LABEL
100
AcDbPolyline
90
2
66
1
70
0
10
2160.5145963036216
20
1443.9518322092542
10
2162.977754097046
20
1436.484651437709
0
LWPOLYLINE
5
1df
100
AcDbEntity
8
_ABF_LABEL
100
AcDbPolyline
90
2
66
1
70
0
10
2155.6265761788545
20
1418.1932113554567
10
2161.1344769501634
20
1420.4836116361796
0
LWPOLYLINE
5
1e0
100
AcDbEntity
8
_ABF_LABEL
100
AcDbPolyline
90
2
66
1
70
0
10
2150.4076515690454
20
1420.4749903338177
10
2155.6265761788545
20
1418.1932113554567
0
LWPOLYLINE
5
1e1
100
AcDbEntity
8
_ABF_LABEL
100
AcDbPolyline
90
2
66
1
70
0
10
2162.977754097046
20
1436.484651437709
10
2162.977754097046
20
1427.8045859643014
0
LWPOLYLINE
5
1e2
100
AcDbEntity
8
_ABF_LABEL
100
AcDbPolyline
90
2
66
1
70
0
10
2162.977754097046
20
1427.8045859643014
10
2161.1344769501634
20
1420.4836116361796
0
LWPOLYLINE
5
1e3
100
AcDbEntity
8
_ABF_LABEL
100
AcDbPolyline
90
2
66
1
70
0
10
2150.6204135340276
20
1443.9518322092542
10
2148.154954227315
20
1436.484651437709
0
LWPOLYLINE
5
1e4
100
AcDbEntity
8
_ABF_LABEL
100
AcDbPolyline
90
2
66
1
70
0
10
2148.154954227315
20
1427.8045859643014
10
2150.4076515690454
20
1420.4749903338177
0
LWPOLYLINE
5
1e5
100
AcDbEntity
8
_ABF_LABEL
100
AcDbPolyline
90
2
66
1
70
0
10
2148.154954227315
20
1436.484651437709
10
2148.154954227315
20
1427.8045859643014
0
LWPOLYLINE
5
1e6
100
AcDbEntity
8
_ABF_LABEL
100
AcDbPolyline
90
2
66
1
70
0
10
2160.5145963036216
20
1443.9518322092542
10
2155.576514378672
20
1446.041834872509
0
LWPOLYLINE
5
1e7
100
AcDbEntity
8
_ABF_LABEL
100
AcDbPolyline
90
2
66
1
70
0
10
2155.576514378672
20
1446.041834872509
10
2150.6204135340276
20
1443.9518322092542
0
LWPOLYLINE
5
1e8
100
AcDbEntity
8
_ABF_LABEL
100
AcDbPolyline
90
2
66
1
70
0
10
2246.105525090227
20
1457.4515434700807
10
2250.7135496181604
20
1447.083228062861
0
LWPOLYLINE
5
1e9
100
AcDbEntity
8
_ABF_LABEL
100
AcDbPolyline
90
2
66
1
70
0
10
2237.3189099162346
20
1477.221921329119
10
2246.105525090227
20
1457.4515434700807
0
LWPOLYLINE
5
1ea
100
AcDbEntity
8
_ABF_LABEL
100
AcDbPolyline
90
2
66
1
70
0
10
2224.986580577682
20
1447.083228062861
10
2229.229149726846
20
1457.4515434700807
0
LWPOLYLINE
5
1eb
100
AcDbEntity
8
_ABF_LABEL
100
AcDbPolyline
90
2
66
1
70
0
10
2229.229149726846
20
1457.4515434700807
10
2237.3189099162346
20
1477.221921329119
0
LWPOLYLINE
5
1ec
100
AcDbEntity
8
_ABF_LABEL
100
AcDbPolyline
90
2
66
1
70
0
10
2229.229149726846
20
1457.4515434700807
10
2246.105525090227
20
1457.4515434700807
0
LWPOLYLINE
5
1ed
100
AcDbEntity
8
_ABF_LABEL
100
AcDbPolyline
90
2
66
1
70
0
10
2255.7412923057796
20
1461.85237244572
10
2255.7412923057796
20
1447.2969913759775
0
LWPOLYLINE
5
1ee
100
AcDbEntity
8
_ABF_LABEL
100
AcDbPolyline
90
2
66
1
70
0
10
2276.2748441284666
20
1465.3623311703313
10
2272.590713237863
20
1462.8063796074591
0
LWPOLYLINE
5
1ef
100
AcDbEntity
8
_ABF_LABEL
100
AcDbPolyline
90
2
66
1
70
0
10
2272.590713237863
20
1462.8063796074591
10
2266.368171867404
20
1461.85237244572
0
LWPOLYLINE
5
1f0
100
AcDbEntity
8
_ABF_LABEL
100
AcDbPolyline
90
2
66
1
70
0
10
2255.7412923057796
20
1461.85237244572
10
2266.368171867404
20
1461.85237244572
0
LWPOLYLINE
5
1f1
100
AcDbEntity
8
_ABF_LABEL
100
AcDbPolyline
90
2
66
1
70
0
10
2274.689775527817
20
1475.065460939498
10
2277.5535551170265
20
1469.722299211984
0
LWPOLYLINE
5
1f2
100
AcDbEntity
8
_ABF_LABEL
100
AcDbPolyline
90
2
66
1
70
0
10
2277.5535551170265
20
1469.722299211984
10
2276.2748441284666
20
1465.3623311703313
0
LWPOLYLINE
5
1f3
100
AcDbEntity
8
_ABF_LABEL
100
AcDbPolyline
90
2
66
1
70
0
10
2268.2413927135153
20
1476.4077533593809
10
2274.689775527817
20
1475.065460939498
0
LWPOLYLINE
5
1f4
100
AcDbEntity
8
_ABF_LABEL
100
AcDbPolyline
90
2
66
1
70
0
10
2266.368171867404
20
1461.85237244572
10
2269.9338674831934
20
1459.6654588979638
0
LWPOLYLINE
5
1f5
100
AcDbEntity
8
_ABF_LABEL
100
AcDbPolyline
90
2
66
1
70
0
10
2268.2413927135153
20
1476.4077533593809
10
2255.7412923057796
20
1476.4077533593809
0
LWPOLYLINE
5
1f6
100
AcDbEntity
8
_ABF_LABEL
100
AcDbPolyline
90
2
66
1
70
0
10
2255.7412923057796
20
1476.4077533593809
10
2255.7412923057796
20
1461.85237244572
0
LWPOLYLINE
5
1f7
100
AcDbEntity
8
_ABF_LABEL
100
AcDbPolyline
90
2
66
1
70
0
10
2269.9338674831934
20
1459.6654588979638
10
2279.14824733919
20
1447.083228062861
0
LWPOLYLINE
5
1f8
100
AcDbEntity
8
_ABF_LABEL
100
AcDbPolyline
90
2
66
1
70
0
10
2284.1759900268094
20
1462.2199010886015
10
2284.1759900268094
20
1447.083228062861
0
LWPOLYLINE
5
1f9
100
AcDbEntity
8
_ABF_LABEL
100
AcDbPolyline
90
2
66
1
70
0
10
2284.1759900268094
20
1447.083228062861
10
2304.484904107535
20
1447.083228062861
0
LWPOLYLINE
5
1fa
100
AcDbEntity
8
_ABF_LABEL
100
AcDbPolyline
90
2
66
1
70
0
10
2284.1759900268094
20
1475.7176076392468
10
2284.1759900268094
20
1462.2199010886015
0
LWPOLYLINE
5
1fb
100
AcDbEntity
8
_ABF_LABEL
100
AcDbPolyline
90
2
66
1
70
0
10
2284.1759900268094
20
1475.7176076392468
10
2304.484904107535
20
1475.7176076392468
0
LWPOLYLINE
5
1fc
100
AcDbEntity
8
_ABF_LABEL
100
AcDbPolyline
90
2
66
1
70
0
10
2284.1759900268094
20
1462.2199010886015
10
2302.655912562833
20
1462.2199010886015
0
LWPOLYLINE
5
1fd
100
AcDbEntity
8
_ABF_LABEL
100
AcDbPolyline
90
2
66
1
70
0
10
2309.512646795154
20
1447.083228062861
10
2309.512646795154
20
1476.8472014415543
0
LWPOLYLINE
5
1fe
100
AcDbEntity
8
_ABF_LABEL
100
AcDbPolyline
90
2
66
1
70
0
10
2309.512646795154
20
1476.8472014415543
10
2330.881657626498
20
1447.083228062861
0
LWPOLYLINE
5
1ff
100
AcDbEntity
8
_ABF_LABEL
100
AcDbPolyline
90
2
66
1
70
0
10
2330.881657626498
20
1447.083228062861
10
2330.881657626498
20
1476.8472014415543
0
LWPOLYLINE
5
200
100
AcDbEntity
8
_ABF_LABEL
100
AcDbPolyline
90
2
66
1
70
0
10
2357.0283448266623
20
1457.4515434700807
10
2361.6363693545954
20
1447.083228062861
0
LWPOLYLINE
5
201
100
AcDbEntity
8
_ABF_LABEL
100
AcDbPolyline
90
2
66
1
70
0
10
2348.24172965267
20
1477.221921329119
10
2357.0283448266623
20
1457.4515434700807
0
LWPOLYLINE
5
202
100
AcDbEntity
8
_ABF_LABEL
100
AcDbPolyline
90
2
66
1
70
0
10
2335.9094003141176
20
1447.083228062861
10
2340.151969463281
20
1457.4515434700807
0
LWPOLYLINE
5
203
100
AcDbEntity
8
_ABF_LABEL
100
AcDbPolyline
90
2
66
1
70
0
10
2340.151969463281
20
1457.4515434700807
10
2348.24172965267
20
1477.221921329119
0
LWPOLYLINE
5
204
100
AcDbEntity
8
_ABF_LABEL
100
AcDbPolyline
90
2
66
1
70
0
10
2340.151969463281
20
1457.4515434700807
10
2357.0283448266623
20
1457.4515434700807
0
LWPOLYLINE
5
205
100
AcDbEntity
8
_ABF_LABEL
100
AcDbPolyline
90
2
66
1
70
0
10
2191.4682959935544
20
1432.0000000000034
10
2395.1546539387236
20
1432.0000000000034
0
LWPOLYLINE
5
206
100
AcDbEntity
8
_ABF_CUTTING_LINES
100
AcDbPolyline
90
5
66
1
70
1
10
2010.5000000000005
20
60.00000000000061
10
2574.5000000000005
20
60.00000000000061
10
2574.5000000000005
20
598.9999999999962
10
2010.5000000000005
20
598.999999999996
10
2010.5000000000005
20
60.00000000000061
0
LWPOLYLINE
5
207
100
AcDbEntity
8
_ABF_EDGE_BANDING
100
AcDbPolyline
90
4
66
1
70
1
10
2292.5
20
67.41004862236683
10
2255.4497568881693
20
104.4602917341979
10
2329.5502431118316
20
104.4602917341979
10
2292.5
20
67.41004862236683
0
LWPOLYLINE
5
208
100
AcDbEntity
8
_ABF_LABEL
100
AcDbPolyline
90
5
66
1
70
1
10
2226.9682959935544
20
329.00000000000233
10
2171.104488353341
20
273.1361923597889
10
2115.2406807131274
20
329.0000000000023
10
2171.104488353341
20
384.8638076402157
10
2226.9682959935544
20
329.00000000000233
0
LWPOLYLINE
5
209
100
AcDbEntity
8
_ABF_LABEL
100
AcDbPolyline
90
4
66
1
70
1
10
2430.654653938724
20
368.1046653481518
10
2469.7593192868735
20
329.0000000000024
10
2430.654653938724
20
289.895334651853
10
2430.654653938724
20
368.1046653481518
0
LWPOLYLINE
5
20a
100
AcDbEntity
8
_ABF_LABEL
100
AcDbPolyline
90
2
66
1
70
0
10
2151.3373562435236
20
342.9650661824615
10
2151.3373562435236
20
315.2686950146505
0
LWPOLYLINE
5
20b
100
AcDbEntity
8
_ABF_LABEL
100
AcDbPolyline
90
2
66
1
70
0
10
2148.114634273634
20
338.11179490513416
10
2143.7312226096365
20
333.85857446669684
0
LWPOLYLINE
5
20c
100
AcDbEntity
8
_ABF_LABEL
100
AcDbPolyline
90
2
66
1
70
0
10
2151.3373562435236
20
342.9650661824615
10
2148.114634273634
20
338.11179490513416
0
LWPOLYLINE
5
20d
100
AcDbEntity
8
_ABF_LABEL
100
AcDbPolyline
90
2
66
1
70
0
10
2143.7312226096365
20
315.2686950146505
10
2151.3373562435236
20
315.2686950146505
0
LWPOLYLINE
5
20e
100
AcDbEntity
8
_ABF_LABEL
100
AcDbPolyline
90
2
66
1
70
0
10
2151.3373562435236
20
315.2686950146505
10
2158.965786262092
20
315.2686950146505
0
LWPOLYLINE
5
20f
100
AcDbEntity
8
_ABF_LABEL
100
AcDbPolyline
90
2
66
1
70
0
10
2163.542887923876
20
315.2686950146505
10
2178.1992242401566
20
315.2686950146505
0
LWPOLYLINE
5
210
100
AcDbEntity
8
_ABF_LABEL
100
AcDbPolyline
90
2
66
1
70
0
10
2176.901744343598
20
330.689017615879
10
2165.7299006297126
20
319.9486555062567
0
LWPOLYLINE
5
211
100
AcDbEntity
8
_ABF_LABEL
100
AcDbPolyline
90
2
66
1
70
0
10
2166.0631028112966
20
340.6171472033127
10
2164.0648297452094
20
335.1535144414672
0
LWPOLYLINE
5
212
100
AcDbEntity
8
_ABF_LABEL
100
AcDbPolyline
90
2
66
1
70
0
10
2165.7299006297126
20
319.9486555062567
10
2163.542887923876
20
315.2686950146505
0
LWPOLYLINE
5
213
100
AcDbEntity
8
_ABF_LABEL
100
AcDbPolyline
90
2
66
1
70
0
10
2176.901744343598
20
330.689017615879
10
2178.666088782806
20
336.1652981515292
0
LWPOLYLINE
5
214
100
AcDbEntity
8
_ABF_LABEL
100
AcDbPolyline
90
2
66
1
70
0
10
2171.3243789220683
20
342.5901253469948
10
2166.0631028112966
20
340.6171472033127
0
LWPOLYLINE
5
215
100
AcDbEntity
8
_ABF_LABEL
100
AcDbPolyline
90
2
66
1
70
0
10
2178.666088782806
20
336.1652981515292
10
2176.370650607962
20
340.73097171122447
0
LWPOLYLINE
5
216
100
AcDbEntity
8
_ABF_LABEL
100
AcDbPolyline
90
2
66
1
70
0
10
2176.370650607962
20
340.73097171122447
10
2171.3243789220683
20
342.5901253469948
0
LWPOLYLINE
5
217
100
AcDbEntity
8
_ABF_LABEL
100
AcDbPolyline
90
2
66
1
70
0
10
2186.069189226123
20
317.1275094485493
10
2184.1648596188456
20
320.1011790373392
0
LWPOLYLINE
5
218
100
AcDbEntity
8
_ABF_LABEL
100
AcDbPolyline
90
2
66
1
70
0
10
2198.4777540970454
20
324.9966754913408
10
2196.0132869917406
20
317.6461252386631
0
LWPOLYLINE
5
219
100
AcDbEntity
8
_ABF_LABEL
100
AcDbPolyline
90
2
66
1
70
0
10
2183.2431904445903
20
334.29056305499034
10
2185.45480483469
20
340.42418407967057
0
LWPOLYLINE
5
21a
100
AcDbEntity
8
_ABF_LABEL
100
AcDbPolyline
90
2
66
1
70
0
10
2196.099532477782
20
328.7785962999237
10
2198.4777540970454
20
334.29056305499034
0
LWPOLYLINE
5
21b
100
AcDbEntity
8
_ABF_LABEL
100
AcDbPolyline
90
2
66
1
70
0
10
2190.79911765455
20
342.9650661824615
10
2196.4505745862148
20
340.42418407967057
0
LWPOLYLINE
5
21c
100
AcDbEntity
8
_ABF_LABEL
100
AcDbPolyline
90
2
66
1
70
0
10
2185.516149220339
20
328.1787955428425
10
2190.79911765455
20
326.0498181856304
0
LWPOLYLINE
5
21d
100
AcDbEntity
8
_ABF_LABEL
100
AcDbPolyline
90
2
66
1
70
0
10
2185.45480483469
20
340.42418407967057
10
2190.79911765455
20
342.9650661824615
0
LWPOLYLINE
5
21e
100
AcDbEntity
8
_ABF_LABEL
100
AcDbPolyline
90
2
66
1
70
0
10
2183.2431904445903
20
334.29056305499034
10
2185.516149220339
20
328.1787955428425
0
LWPOLYLINE
5
21f
100
AcDbEntity
8
_ABF_LABEL
100
AcDbPolyline
90
2
66
1
70
0
10
2190.79911765455
20
315.2686950146505
10
2186.069189226123
20
317.1275094485493
0
LWPOLYLINE
5
220
100
AcDbEntity
8
_ABF_LABEL
100
AcDbPolyline
90
2
66
1
70
0
10
2196.0132869917406
20
317.6461252386631
10
2190.79911765455
20
315.2686950146505
0
LWPOLYLINE
5
221
100
AcDbEntity
8
_ABF_LABEL
100
AcDbPolyline
90
2
66
1
70
0
10
2198.4777540970454
20
334.29056305499034
10
2198.4777540970454
20
324.9966754913408
0
LWPOLYLINE
5
222
100
AcDbEntity
8
_ABF_LABEL
100
AcDbPolyline
90
2
66
1
70
0
10
2196.4505745862148
20
340.42418407967057
10
2198.4777540970454
20
334.29056305499034
0
LWPOLYLINE
5
223
100
AcDbEntity
8
_ABF_LABEL
100
AcDbPolyline
90
2
66
1
70
0
10
2190.79911765455
20
326.0498181856304
10
2196.099532477782
20
328.7785962999237
0
LWPOLYLINE
5
224
100
AcDbEntity
8
_ABF_LABEL
100
AcDbPolyline
90
2
66
1
70
0
10
2281.6055250902273
20
354.45154347007957
10
2286.2135496181604
20
344.08322806286
0
LWPOLYLINE
5
225
100
AcDbEntity
8
_ABF_LABEL
100
AcDbPolyline
90
2
66
1
70
0
10
2272.818909916235
20
374.2219213291178
10
2281.6055250902273
20
354.45154347007957
0
LWPOLYLINE
5
226
100
AcDbEntity
8
_ABF_LABEL
100
AcDbPolyline
90
2
66
1
70
0
10
2260.4865805776826
20
344.08322806286
10
2264.729149726846
20
354.45154347007957
0
LWPOLYLINE
5
227
100
AcDbEntity
8
_ABF_LABEL
100
AcDbPolyline
90
2
66
1
70
0
10
2264.729149726846
20
354.45154347007957
10
2272.818909916235
20
374.2219213291178
0
LWPOLYLINE
5
228
100
AcDbEntity
8
_ABF_LABEL
100
AcDbPolyline
90
2
66
1
70
0
10
2264.729149726846
20
354.45154347007957
10
2281.6055250902273
20
354.45154347007957
0
LWPOLYLINE
5
229
100
AcDbEntity
8
_ABF_LABEL
100
AcDbPolyline
90
2
66
1
70
0
10
2291.24129230578
20
358.8523724457189
10
2291.24129230578
20
344.2969913759765
0
LWPOLYLINE
5
22a
100
AcDbEntity
8
_ABF_LABEL
100
AcDbPolyline
90
2
66
1
70
0
10
2311.7748441284666
20
362.36233117033015
10
2308.090713237863
20
359.80637960745804
0
LWPOLYLINE
5
22b
100
AcDbEntity
8
_ABF_LABEL
100
AcDbPolyline
90
2
66
1
70
0
10
2308.090713237863
20
359.80637960745804
10
2301.8681718674043
20
358.8523724457189
0
LWPOLYLINE
5
22c
100
AcDbEntity
8
_ABF_LABEL
100
AcDbPolyline
90
2
66
1
70
0
10
2291.24129230578
20
358.8523724457189
10
2301.8681718674043
20
358.8523724457189
0
LWPOLYLINE
5
22d
100
AcDbEntity
8
_ABF_LABEL
100
AcDbPolyline
90
2
66
1
70
0
10
2310.189775527817
20
372.0654609394968
10
2313.053555117027
20
366.7222992119827
0
LWPOLYLINE
5
22e
100
AcDbEntity
8
_ABF_LABEL
100
AcDbPolyline
90
2
66
1
70
0
10
2313.053555117027
20
366.7222992119827
10
2311.7748441284666
20
362.36233117033015
0
LWPOLYLINE
5
22f
100
AcDbEntity
8
_ABF_LABEL
100
AcDbPolyline
90
2
66
1
70
0
10
2303.7413927135153
20
373.4077533593797
10
2310.189775527817
20
372.0654609394968
0
LWPOLYLINE
5
230
100
AcDbEntity
8
_ABF_LABEL
100
AcDbPolyline
90
2
66
1
70
0
10
2301.8681718674043
20
358.8523724457189
10
2305.433867483194
20
356.66545889796276
0
LWPOLYLINE
5
231
100
AcDbEntity
8
_ABF_LABEL
100
AcDbPolyline
90
2
66
1
70
0
10
2303.7413927135153
20
373.4077533593797
10
2291.24129230578
20
373.4077533593797
0
LWPOLYLINE
5
232
100
AcDbEntity
8
_ABF_LABEL
100
AcDbPolyline
90
2
66
1
70
0
10
2291.24129230578
20
373.4077533593797
10
2291.24129230578
20
358.8523724457189
0
LWPOLYLINE
5
233
100
AcDbEntity
8
_ABF_LABEL
100
AcDbPolyline
90
2
66
1
70
0
10
2305.433867483194
20
356.66545889796276
10
2314.6482473391907
20
344.08322806286
0
LWPOLYLINE
5
234
100
AcDbEntity
8
_ABF_LABEL
100
AcDbPolyline
90
2
66
1
70
0
10
2319.67599002681
20
359.2199010886003
10
2319.67599002681
20
344.08322806286
0
LWPOLYLINE
5
235
100
AcDbEntity
8
_ABF_LABEL
100
AcDbPolyline
90
2
66
1
70
0
10
2319.67599002681
20
344.08322806286
10
2339.9849041075354
20
344.08322806286
0
LWPOLYLINE
5
236
100
AcDbEntity
8
_ABF_LABEL
100
AcDbPolyline
90
2
66
1
70
0
10
2319.67599002681
20
372.71760763924567
10
2319.67599002681
20
359.2199010886003
0
LWPOLYLINE
5
237
100
AcDbEntity
8
_ABF_LABEL
100
AcDbPolyline
90
2
66
1
70
0
10
2319.67599002681
20
372.71760763924567
10
2339.9849041075354
20
372.71760763924567
0
LWPOLYLINE
5
238
100
AcDbEntity
8
_ABF_LABEL
100
AcDbPolyline
90
2
66
1
70
0
10
2319.67599002681
20
359.2199010886003
10
2338.155912562833
20
359.21990108860035
0
LWPOLYLINE
5
239
100
AcDbEntity
8
_ABF_LABEL
100
AcDbPolyline
90
2
66
1
70
0
10
2345.012646795154
20
344.08322806286
10
2345.012646795154
20
373.8472014415531
0
LWPOLYLINE
5
23a
100
AcDbEntity
8
_ABF_LABEL
100
AcDbPolyline
90
2
66
1
70
0
10
2345.012646795154
20
373.8472014415531
10
2366.381657626499
20
344.08322806286
0
LWPOLYLINE
5
23b
100
AcDbEntity
8
_ABF_LABEL
100
AcDbPolyline
90
2
66
1
70
0
10
2366.381657626499
20
344.08322806286
10
2366.3816576264985
20
373.8472014415531
0
LWPOLYLINE
5
23c
100
AcDbEntity
8
_ABF_LABEL
100
AcDbPolyline
90
2
66
1
70
0
10
2392.5283448266623
20
354.4515434700796
10
2397.136369354596
20
344.08322806286
0
LWPOLYLINE
5
23d
100
AcDbEntity
8
_ABF_LABEL
100
AcDbPolyline
90
2
66
1
70
0
10
2383.74172965267
20
374.2219213291178
10
2392.5283448266623
20
354.4515434700796
0
LWPOLYLINE
5
23e
100
AcDbEntity
8
_ABF_LABEL
100
AcDbPolyline
90
2
66
1
70
0
10
2371.4094003141176
20
344.08322806286
10
2375.6519694632816
20
354.4515434700796
0
LWPOLYLINE
5
23f
100
AcDbEntity
8
_ABF_LABEL
100
AcDbPolyline
90
2
66
1
70
0
10
2375.6519694632816
20
354.4515434700796
10
2383.74172965267
20
374.2219213291178
0
LWPOLYLINE
5
240
100
AcDbEntity
8
_ABF_LABEL
100
AcDbPolyline
90
2
66
1
70
0
10
2375.6519694632816
20
354.4515434700796
10
2392.5283448266623
20
354.4515434700796
0
LWPOLYLINE
5
241
100
AcDbEntity
8
_ABF_LABEL
100
AcDbPolyline
90
2
66
1
70
0
10
2226.9682959935544
20
329.00000000000233
10
2430.654653938724
20
329.0000000000024
0
LWPOLYLINE
5
242
100
AcDbEntity
8
_ABF_CUTTING_LINES
100
AcDbPolyline
90
5
66
1
70
1
10
1974.9999999999998
20
1709.4999999999957
10
2538.9999999999995
20
1709.499999999996
10
2538.9999999999995
20
2008.4999999999998
10
1974.9999999999998
20
2008.4999999999998
10
1974.9999999999998
20
1709.4999999999957
0
LWPOLYLINE
5
243
100
AcDbEntity
8
_ABF_EDGE_BANDING
100
AcDbPolyline
90
4
66
1
70
1
10
2257.0
20
1713.8197278911523
10
2231.0816326530608
20
1739.7380952380913
10
2282.918367346939
20
1739.7380952380913
10
2257.0
20
1713.8197278911523
0
LWPOLYLINE
5
244
100
AcDbEntity
8
_ABF_LABEL
100
AcDbPolyline
90
5
66
1
70
1
10
2177.0706516332325
20
1858.4999999999989
10
2108.9332850002893
20
1790.3626333670559
10
2040.7959183673465
20
1858.4999999999989
10
2108.9332850002893
20
1926.6373666329416
10
2177.0706516332325
20
1858.4999999999989
0
LWPOLYLINE
5
245
100
AcDbEntity
8
_ABF_LABEL
100
AcDbPolyline
90
4
66
1
70
1
10
2425.507924989593
20
1906.196156643059
10
2473.2040816326526
20
1858.4999999999989
10
2425.507924989593
20
1810.803843356939
10
2425.507924989593
20
1906.196156643059
0
LWPOLYLINE
5
246
100
AcDbEntity
8
_ABF_LABEL
100
AcDbPolyline
90
2
66
1
70
0
10
2084.669288231705
20
1875.2506481383127
10
2084.669288231705
20
1842.029740906032
0
LWPOLYLINE
5
247
100
AcDbEntity
8
_ABF_LABEL
100
AcDbPolyline
90
2
66
1
70
0
10
2080.803736786411
20
1869.4293051941306
10
2075.5459753501477
20
1864.3277039494167
0
LWPOLYLINE
5
248
100
AcDbEntity
8
_ABF_LABEL
100
AcDbPolyline
90
2
66
1
70
0
10
2084.669288231705
20
1875.2506481383127
10
2080.803736786411
20
1869.4293051941306
0
LWPOLYLINE
5
249
100
AcDbEntity
8
_ABF_LABEL
100
AcDbPolyline
90
2
66
1
70
0
10
2075.5459753501477
20
1842.029740906032
10
2084.669288231705
20
1842.029740906032
0
LWPOLYLINE
5
24a
100
AcDbEntity
8
_ABF_LABEL
100
AcDbPolyline
90
2
66
1
70
0
10
2084.669288231705
20
1842.029740906032
10
2093.8193449102255
20
1842.029740906032
0
LWPOLYLINE
5
24b
100
AcDbEntity
8
_ABF_LABEL
100
AcDbPolyline
90
2
66
1
70
0
10
2099.3094312748813
20
1842.029740906032
10
2116.8892357257314
20
1842.029740906032
0
LWPOLYLINE
5
24c
100
AcDbEntity
8
_ABF_LABEL
100
AcDbPolyline
90
2
66
1
70
0
10
2115.3329502824804
20
1860.5259223560636
10
2101.932682738988
20
1847.6432031318368
0
LWPOLYLINE
5
24d
100
AcDbEntity
8
_ABF_LABEL
100
AcDbPolyline
90
2
66
1
70
0
10
2102.3323480488198
20
1872.4343947698617
10
2099.9354837177125
20
1865.8809428380987
0
LWPOLYLINE
5
24e
100
AcDbEntity
8
_ABF_LABEL
100
AcDbPolyline
90
2
66
1
70
0
10
2101.932682738988
20
1847.6432031318368
10
2099.3094312748813
20
1842.029740906032
0
LWPOLYLINE
5
24f
100
AcDbEntity
8
_ABF_LABEL
100
AcDbPolyline
90
2
66
1
70
0
10
2115.3329502824804
20
1860.5259223560636
10
2117.449224742611
20
1867.094544886087
0
LWPOLYLINE
5
250
100
AcDbEntity
8
_ABF_LABEL
100
AcDbPolyline
90
2
66
1
70
0
10
2108.6430796800637
20
1874.8009186543609
10
2102.3323480488198
20
1872.4343947698617
0
LWPOLYLINE
5
251
100
AcDbEntity
8
_ABF_LABEL
100
AcDbPolyline
90
2
66
1
70
0
10
2117.449224742611
20
1867.094544886087
10
2114.695920412528
20
1872.5709236095133
0
LWPOLYLINE
5
252
100
AcDbEntity
8
_ABF_LABEL
100
AcDbPolyline
90
2
66
1
70
0
10
2114.695920412528
20
1872.5709236095133
10
2108.6430796800637
20
1874.8009186543609
0
LWPOLYLINE
5
253
100
AcDbEntity
8
_ABF_LABEL
100
AcDbPolyline
90
2
66
1
70
0
10
2124.34884899091
20
1868.2220231379686
10
2126.3927852325482
20
1873.3468689504805
0
LWPOLYLINE
5
254
100
AcDbEntity
8
_ABF_LABEL
100
AcDbPolyline
90
2
66
1
70
0
10
2132.3121993098193
20
1842.029740906032
10
2125.1945716665564
20
1845.303776185024
0
LWPOLYLINE
5
255
100
AcDbEntity
8
_ABF_LABEL
100
AcDbPolyline
90
2
66
1
70
0
10
2132.3121993098193
20
1875.908655930738
10
2138.3737499378185
20
1873.3468689504805
0
LWPOLYLINE
5
256
100
AcDbEntity
8
_ABF_LABEL
100
AcDbPolyline
90
2
66
1
70
0
10
2140.4880566269353
20
1868.2220231379686
10
2138.3737499378185
20
1863.4533198817728
0
LWPOLYLINE
5
257
100
AcDbEntity
8
_ABF_LABEL
100
AcDbPolyline
90
2
66
1
70
0
10
2142.3205946504313
20
1850.9973969920068
10
2140.104488534808
20
1845.303776185024
0
LWPOLYLINE
5
258
100
AcDbEntity
8
_ABF_LABEL
100
AcDbPolyline
90
2
66
1
70
0
10
2126.3927852325482
20
1873.3468689504805
10
2132.3121993098193
20
1875.908655930738
0
LWPOLYLINE
5
259
100
AcDbEntity
8
_ABF_LABEL
100
AcDbPolyline
90
2
66
1
70
0
10
2140.104488534808
20
1856.6937035773594
10
2142.3205946504313
20
1850.9973969920068
0
LWPOLYLINE
5
25a
100
AcDbEntity
8
_ABF_LABEL
100
AcDbPolyline
90
2
66
1
70
0
10
2138.3737499378185
20
1873.3468689504805
10
2140.4880566269353
20
1868.2220231379686
0
LWPOLYLINE
5
25b
100
AcDbEntity
8
_ABF_LABEL
100
AcDbPolyline
90
2
66
1
70
0
10
2122.939311107267
20
1850.9973969920068
10
2125.1945716665564
20
1856.6937035773594
0
LWPOLYLINE
5
25c
100
AcDbEntity
8
_ABF_LABEL
100
AcDbPolyline
90
2
66
1
70
0
10
2126.3927852325482
20
1863.4533198817728
10
2132.3121993098193
20
1860.5351590993814
0
LWPOLYLINE
5
25d
100
AcDbEntity
8
_ABF_LABEL
100
AcDbPolyline
90
2
66
1
70
0
10
2125.1945716665564
20
1845.303776185024
10
2122.939311107267
20
1850.9973969920068
0
LWPOLYLINE
5
25e
100
AcDbEntity
8
_ABF_LABEL
100
AcDbPolyline
90
2
66
1
70
0
10
2126.3927852325482
20
1863.4533198817728
10
2124.34884899091
20
1868.2220231379686
0
LWPOLYLINE
5
25f
100
AcDbEntity
8
_ABF_LABEL
100
AcDbPolyline
90
2
66
1
70
0
10
2125.1945716665564
20
1856.6937035773594
10
2132.3121993098193
20
1860.5351590993814
0
LWPOLYLINE
5
260
100
AcDbEntity
8
_ABF_LABEL
100
AcDbPolyline
90
2
66
1
70
0
10
2132.3121993098193
20
1860.5351590993814
10
2140.104488534808
20
1856.6937035773594
0
LWPOLYLINE
5
261
100
AcDbEntity
8
_ABF_LABEL
100
AcDbPolyline
90
2
66
1
70
0
10
2140.104488534808
20
1845.303776185024
10
2132.3121993098193
20
1842.029740906032
0
LWPOLYLINE
5
262
100
AcDbEntity
8
_ABF_LABEL
100
AcDbPolyline
90
2
66
1
70
0
10
2138.3737499378185
20
1863.4533198817728
10
2132.3121993098193
20
1860.5351590993814
0
LWPOLYLINE
5
263
100
AcDbEntity
8
_ABF_LABEL
100
AcDbPolyline
90
2
66
1
70
0
10
2243.711954258802
20
1889.5433753453374
10
2249.332384909279
20
1876.8970889908935
0
LWPOLYLINE
5
264
100
AcDbEntity
8
_ABF_LABEL
100
AcDbPolyline
90
2
66
1
70
0
10
2232.9948756194667
20
1913.657404473624
10
2243.711954258802
20
1889.5433753453374
0
LWPOLYLINE
5
265
100
AcDbEntity
8
_ABF_LABEL
100
AcDbPolyline
90
2
66
1
70
0
10
2217.953071612998
20
1876.8970889908935
10
2223.1277545032867
20
1889.5433753453374
0
LWPOLYLINE
5
266
100
AcDbEntity
8
_ABF_LABEL
100
AcDbPolyline
90
2
66
1
70
0
10
2223.1277545032867
20
1889.5433753453374
10
2232.9948756194667
20
1913.657404473624
0
LWPOLYLINE
5
267
100
AcDbEntity
8
_ABF_LABEL
100
AcDbPolyline
90
2
66
1
70
0
10
2223.1277545032867
20
1889.5433753453374
10
2243.711954258802
20
1889.5433753453374
0
LWPOLYLINE
5
268
100
AcDbEntity
8
_ABF_LABEL
100
AcDbPolyline
90
2
66
1
70
0
10
2255.4647479062437
20
1894.9110885404932
10
2255.4647479062437
20
1877.1578171770618
0
LWPOLYLINE
5
269
100
AcDbEntity
8
_ABF_LABEL
100
AcDbPolyline
90
2
66
1
70
0
10
2280.5096241493698
20
1899.1922028180163
10
2276.0160712065854
20
1896.0746958650875
0
LWPOLYLINE
5
26a
100
AcDbEntity
8
_ABF_LABEL
100
AcDbPolyline
90
2
66
1
70
0
10
2276.0160712065854
20
1896.0746958650875
10
2268.42640625789
20
1894.9110885404932
0
LWPOLYLINE
5
26b
100
AcDbEntity
8
_ABF_LABEL
100
AcDbPolyline
90
2
66
1
70
0
10
2255.4647479062437
20
1894.9110885404932
10
2268.42640625789
20
1894.9110885404932
0
LWPOLYLINE
5
26c
100
AcDbEntity
8
_ABF_LABEL
100
AcDbPolyline
90
2
66
1
70
0
10
2278.576308019606
20
1911.0271589102827
10
2282.0692743616546
20
1904.5100777268535
0
LWPOLYLINE
5
26d
100
AcDbEntity
8
_ABF_LABEL
100
AcDbPolyline
90
2
66
1
70
0
10
2282.0692743616546
20
1904.5100777268535
10
2280.5096241493698
20
1899.1922028180163
0
LWPOLYLINE
5
26e
100
AcDbEntity
8
_ABF_LABEL
100
AcDbPolyline
90
2
66
1
70
0
10
2270.711183128059
20
1912.6643597135508
10
2278.576308019606
20
1911.0271589102827
0
LWPOLYLINE
5
26f
100
AcDbEntity
8
_ABF_LABEL
100
AcDbPolyline
90
2
66
1
70
0
10
2268.42640625789
20
1894.9110885404932
10
2272.7755031014003
20
1892.2436991072898
0
LWPOLYLINE
5
270
100
AcDbEntity
8
_ABF_LABEL
100
AcDbPolyline
90
2
66
1
70
0
10
2270.711183128059
20
1912.6643597135508
10
2255.4647479062437
20
1912.6643597135508
0
LWPOLYLINE
5
271
100
AcDbEntity
8
_ABF_LABEL
100
AcDbPolyline
90
2
66
1
70
0
10
2255.4647479062437
20
1912.6643597135508
10
2255.4647479062437
20
1894.9110885404932
0
LWPOLYLINE
5
272
100
AcDbEntity
8
_ABF_LABEL
100
AcDbPolyline
90
2
66
1
70
0
10
2272.7755031014003
20
1892.2436991072898
10
2284.014328470892
20
1876.8970889908935
0
LWPOLYLINE
5
273
100
AcDbEntity
8
_ABF_LABEL
100
AcDbPolyline
90
2
66
1
70
0
10
2290.146691467857
20
1895.359365071327
10
2290.146691467857
20
1876.8970889908935
0
LWPOLYLINE
5
274
100
AcDbEntity
8
_ABF_LABEL
100
AcDbPolyline
90
2
66
1
70
0
10
2290.146691467857
20
1876.8970889908935
10
2314.9175759293594
20
1876.8970889908935
0
LWPOLYLINE
5
275
100
AcDbEntity
8
_ABF_LABEL
100
AcDbPolyline
90
2
66
1
70
0
10
2290.146691467857
20
1911.8225855139513
10
2290.146691467857
20
1895.359365071327
0
LWPOLYLINE
5
276
100
AcDbEntity
8
_ABF_LABEL
100
AcDbPolyline
90
2
66
1
70
0
10
2290.146691467857
20
1911.8225855139513
10
2314.9175759293594
20
1911.8225855139513
0
LWPOLYLINE
5
277
100
AcDbEntity
8
_ABF_LABEL
100
AcDbPolyline
90
2
66
1
70
0
10
2290.146691467857
20
1895.359365071327
10
2312.686745760164
20
1895.359365071327
0
LWPOLYLINE
5
278
100
AcDbEntity
8
_ABF_LABEL
100
AcDbPolyline
90
2
66
1
70
0
10
2321.0499389263246
20
1876.8970889908935
10
2321.0499389263246
20
1913.2003567455479
0
LWPOLYLINE
5
279
100
AcDbEntity
8
_ABF_LABEL
100
AcDbPolyline
90
2
66
1
70
0
10
2321.0499389263246
20
1913.2003567455479
10
2347.1138287165813
20
1876.8970889908935
0
LWPOLYLINE
5
27a
100
AcDbEntity
8
_ABF_LABEL
100
AcDbPolyline
90
2
66
1
70
0
10
2347.1138287165813
20
1876.8970889908935
10
2347.1138287165813
20
1913.2003567455479
0
LWPOLYLINE
5
27b
100
AcDbEntity
8
_ABF_LABEL
100
AcDbPolyline
90
2
66
1
70
0
10
2379.00507435935
20
1889.5433753453374
10
2384.625505009827
20
1876.8970889908935
0
LWPOLYLINE
5
27c
100
AcDbEntity
8
_ABF_LABEL
100
AcDbPolyline
90
2
66
1
70
0
10
2368.287995720015
20
1913.657404473624
10
2379.00507435935
20
1889.5433753453374
0
LWPOLYLINE
5
27d
100
AcDbEntity
8
_ABF_LABEL
100
AcDbPolyline
90
2
66
1
70
0
10
2353.246191713546
20
1876.8970889908935
10
2358.420874603835
20
1889.5433753453374
0
LWPOLYLINE
5
27e
100
AcDbEntity
8
_ABF_LABEL
100
AcDbPolyline
90
2
66
1
70
0
10
2358.420874603835
20
1889.5433753453374
10
2368.287995720015
20
1913.657404473624
0
LWPOLYLINE
5
27f
100
AcDbEntity
8
_ABF_LABEL
100
AcDbPolyline
90
2
66
1
70
0
10
2358.420874603835
20
1889.5433753453374
10
2379.00507435935
20
1889.5433753453374
0
LWPOLYLINE
5
280
100
AcDbEntity
8
_ABF_LABEL
100
AcDbPolyline
90
2
66
1
70
0
10
2177.0706516332325
20
1858.4999999999989
10
2425.507924989593
20
1858.4999999999989
0
LWPOLYLINE
5
281
100
AcDbEntity
8
_ABF_SHEET_ID
100
AcDbPolyline
90
2
66
1
70
0
10
1399.832963502407
20
1244.2425096845625
10
1399.832963502407
20
829.2599999999999
0
LWPOLYLINE
5
282
100
AcDbEntity
8
_ABF_SHEET_ID
100
AcDbPolyline
90
2
66
1
70
0
10
1351.5460148990153
20
1171.5245827531814
10
1285.8681265473365
20
1107.7973861074447
0
LWPOLYLINE
5
283
100
AcDbEntity
8
_ABF_SHEET_ID
100
AcDbPolyline
90
2
66
1
70
0
10
1399.832963502407
20
1244.2425096845625
10
1351.5460148990153
20
1171.5245827531814
0
LWPOLYLINE
5
284
100
AcDbEntity
8
_ABF_SHEET_ID
100
AcDbPolyline
90
2
66
1
70
0
10
1285.8681265473365
20
829.2599999999999
10
1399.832963502407
20
829.2599999999999
0
LWPOLYLINE
5
285
100
AcDbEntity
8
_ABF_SHEET_ID
100
AcDbPolyline
90
2
66
1
70
0
10
1399.832963502407
20
829.2599999999999
10
1514.1318734526633
20
829.2599999999999
0
LWPOLYLINE
5
286
100
AcDbEntity
8
_ABF_SHEET_MATERIAL
100
AcDbPolyline
90
2
66
1
70
0
10
246.03260015196386
20
1797.008008760853
10
262.1424219406078
20
1760.7599999999998
0
LWPOLYLINE
5
287
100
AcDbEntity
8
_ABF_SHEET_MATERIAL
100
AcDbPolyline
90
2
66
1
70
0
10
215.31427308570397
20
1866.1259707145173
10
246.03260015196386
20
1797.008008760853
0
LWPOLYLINE
5
288
100
AcDbEntity
8
_ABF_SHEET_MATERIAL
100
AcDbPolyline
90
2
66
1
70
0
10
172.2
20
1760.7599999999998
10
187.03217645754992
20
1797.008008760853
0
LWPOLYLINE
5
289
100
AcDbEntity
8
_ABF_SHEET_MATERIAL
100
AcDbPolyline
90
2
66
1
70
0
10
187.03217645754992
20
1797.008008760853
10
215.31427308570397
20
1866.1259707145173
0
LWPOLYLINE
5
28a
100
AcDbEntity
8
_ABF_SHEET_MATERIAL
100
AcDbPolyline
90
2
66
1
70
0
10
187.03217645754992
20
1797.008008760853
10
246.03260015196386
20
1797.008008760853
0
LWPOLYLINE
5
28b
100
AcDbEntity
8
_ABF_SHEET_MATERIAL
100
AcDbPolyline
90
2
66
1
70
0
10
279.7195937212074
20
1760.7599999999998
10
318.10795206791926
20
1760.7599999999998
0
LWPOLYLINE
5
28c
100
AcDbEntity
8
_ABF_SHEET_MATERIAL
100
AcDbPolyline
90
2
66
1
70
0
10
332.2757991909586
20
1858.4032620293563
10
350.7264792628482
20
1845.1452071872282
0
LWPOLYLINE
5
28d
100
AcDbEntity
8
_ABF_SHEET_MATERIAL
100
AcDbPolyline
90
2
66
1
70
0
10
279.7195937212074
20
1862.0109657978946
10
279.7195937212074
20
1760.7599999999998
0
LWPOLYLINE
5
28e
100
AcDbEntity
8
_ABF_SHEET_MATERIAL
100
AcDbPolyline
90
2
66
1
70
0
10
353.1439195407817
20
1786.2689721157835
10
340.4211109934155
20
1769.777909658888
0
LWPOLYLINE
5
28f
100
AcDbEntity
8
_ABF_SHEET_MATERIAL
100
AcDbPolyline
90
2
66
1
70
0
10
358.7160462882019
20
1814.351157224766
10
353.1439195407817
20
1786.2689721157835
0
LWPOLYLINE
5
290
100
AcDbEntity
8
_ABF_SHEET_MATERIAL
100
AcDbPolyline
90
2
66
1
70
0
10
313.47145341684666
20
1862.0109657978946
10
332.2757991909586
20
1858.4032620293563
0
LWPOLYLINE
5
291
100
AcDbEntity
8
_ABF_SHEET_MATERIAL
100
AcDbPolyline
90
2
66
1
70
0
10
350.7264792628482
20
1845.1452071872282
10
358.7160462882019
20
1814.351157224766
0
LWPOLYLINE
5
292
100
AcDbEntity
8
_ABF_SHEET_MATERIAL
100
AcDbPolyline
90
2
66
1
70
0
10
340.4211109934155
20
1769.777909658888
10
318.10795206791926
20
1760.7599999999998
0
LWPOLYLINE
5
293
100
AcDbEntity
8
_ABF_SHEET_MATERIAL
100
AcDbPolyline
90
2
66
1
70
0
10
279.7195937212074
20
1862.0109657978946
10
313.47145341684666
20
1862.0109657978946
0
LWPOLYLINE
5
294
100
AcDbEntity
8
_ABF_SHEET_MATERIAL
100
AcDbPolyline
90
2
66
1
70
0
10
450.12581822076544
20
1797.008008760853
10
466.23564000940934
20
1760.7599999999998
0
LWPOLYLINE
5
295
100
AcDbEntity
8
_ABF_SHEET_MATERIAL
100
AcDbPolyline
90
2
66
1
70
0
10
419.4074911545056
20
1866.1259707145173
10
450.12581822076544
20
1797.008008760853
0
LWPOLYLINE
5
296
100
AcDbEntity
8
_ABF_SHEET_MATERIAL
100
AcDbPolyline
90
2
66
1
70
0
10
376.2932180688016
20
1760.7599999999998
10
391.1253945263515
20
1797.008008760853
0
LWPOLYLINE
5
297
100
AcDbEntity
8
_ABF_SHEET_MATERIAL
100
AcDbPolyline
90
2
66
1
70
0
10
391.1253945263515
20
1797.008008760853
10
419.4074911545056
20
1866.1259707145173
0
LWPOLYLINE
5
298
100
AcDbEntity
8
_ABF_SHEET_MATERIAL
100
AcDbPolyline
90
2
66
1
70
0
10
391.1253945263515
20
1797.008008760853
10
450.12581822076544
20
1797.008008760853
0
LWPOLYLINE
5
299
100
AcDbEntity
8
_ABF_SHEET_MATERIAL
100
AcDbPolyline
90
2
66
1
70
0
10
483.81281179000894
20
1760.7599999999998
10
483.81281179000894
20
1865.9416137671158
0
LWPOLYLINE
5
29a
100
AcDbEntity
8
_ABF_SHEET_MATERIAL
100
AcDbPolyline
90
2
66
1
70
0
10
579.2911596044478
20
1865.9416137671158
10
579.2911596044478
20
1760.7599999999998
0
LWPOLYLINE
5
29b
100
AcDbEntity
8
_ABF_SHEET_MATERIAL
100
AcDbPolyline
90
2
66
1
70
0
10
483.81281179000894
20
1865.9416137671158
10
532.5442549250384
20
1760.7599999999998
0
LWPOLYLINE
5
29c
100
AcDbEntity
8
_ABF_SHEET_MATERIAL
100
AcDbPolyline
90
2
66
1
70
0
10
532.5442549250384
20
1760.7599999999998
10
579.2911596044478
20
1865.9416137671158
0
LWPOLYLINE
5
29d
100
AcDbEntity
8
_ABF_SHEET_MATERIAL
100
AcDbPolyline
90
2
66
1
70
0
10
640.2253551105266
20
1800.627072884571
10
719.4748715501584
20
1800.627072884571
0
LWPOLYLINE
5
29e
100
AcDbEntity
8
_ABF_SHEET_MATERIAL
100
AcDbPolyline
90
2
66
1
70
0
10
780.4090670562371
20
1865.5096897804772
10
780.4090670562371
20
1803.740459765878
0
LWPOLYLINE
5
29f
100
AcDbEntity
8
_ABF_SHEET_MATERIAL
100
AcDbPolyline
90
2
66
1
70
0
10
851.628003248498
20
1778.0033254105972
10
842.6792911788177
20
1766.9372586086324
0
LWPOLYLINE
5
2a0
100
AcDbEntity
8
_ABF_SHEET_MATERIAL
100
AcDbPolyline
90
2
66
1
70
0
10
796.2418365677788
20
1766.8128211614064
10
784.930632037082
20
1778.0033254105972
0
LWPOLYLINE
5
2a1
100
AcDbEntity
8
_ABF_SHEET_MATERIAL
100
AcDbPolyline
90
2
66
1
70
0
10
856.3337047271839
20
1803.740459765878
10
851.628003248498
20
1778.0033254105972
0
LWPOLYLINE
5
2a2
100
AcDbEntity
8
_ABF_SHEET_MATERIAL
100
AcDbPolyline
90
2
66
1
70
0
10
842.6792911788177
20
1766.9372586086324
10
819.5465872206534
20
1760.7599999999998
0
LWPOLYLINE
5
2a3
100
AcDbEntity
8
_ABF_SHEET_MATERIAL
100
AcDbPolyline
90
2
66
1
70
0
10
819.5465872206534
20
1760.7599999999998
10
796.2418365677788
20
1766.8128211614064
0
LWPOLYLINE
5
2a4
100
AcDbEntity
8
_ABF_SHEET_MATERIAL
100
AcDbPolyline
90
2
66
1
70
0
10
780.4090670562371
20
1803.740459765878
10
784.930632037082
20
1778.0033254105972
0
LWPOLYLINE
5
2a5
100
AcDbEntity
8
_ABF_SHEET_MATERIAL
100
AcDbPolyline
90
2
66
1
70
0
10
856.3337047271839
20
1865.2523164463303
10
856.3337047271839
20
1803.740459765878
0
LWPOLYLINE
5
2a6
100
AcDbEntity
8
_ABF_SHEET_MATERIAL
100
AcDbPolyline
90
2
66
1
70
0
10
884.7633918559809
20
1767.8982947173083
10
877.450307920468
20
1779.3179014997659
0
LWPOLYLINE
5
2a7
100
AcDbEntity
8
_ABF_SHEET_MATERIAL
100
AcDbPolyline
90
2
66
1
70
0
10
932.4152668641303
20
1798.1177858986118
10
922.9511201489139
20
1769.8899041471518
0
LWPOLYLINE
5
2a8
100
AcDbEntity
8
_ABF_SHEET_MATERIAL
100
AcDbPolyline
90
2
66
1
70
0
10
873.9108765077837
20
1833.8085505542904
10
882.4040079520357
20
1857.3631312375348
0
LWPOLYLINE
5
2a9
100
AcDbEntity
8
_ABF_SHEET_MATERIAL
100
AcDbPolyline
90
2
66
1
70
0
10
923.282323568778
20
1812.6412718565743
10
932.4152668641303
20
1833.8085505542904
0
LWPOLYLINE
5
2aa
100
AcDbEntity
8
_ABF_SHEET_MATERIAL
100
AcDbPolyline
90
2
66
1
70
0
10
902.9274551955742
20
1867.120729931028
10
924.630409737295
20
1857.3631312375348
0
LWPOLYLINE
5
2ab
100
AcDbEntity
8
_ABF_SHEET_MATERIAL
100
AcDbPolyline
90
2
66
1
70
0
10
882.6395851543778
20
1810.3378926178355
10
902.9274551955742
20
1802.1621072650278
0
LWPOLYLINE
5
2ac
100
AcDbEntity
8
_ABF_SHEET_MATERIAL
100
AcDbPolyline
90
2
66
1
70
0
10
882.4040079520357
20
1857.3631312375348
10
902.9274551955742
20
1867.120729931028
0
LWPOLYLINE
5
2ad
100
AcDbEntity
8
_ABF_SHEET_MATERIAL
100
AcDbPolyline
90
2
66
1
70
0
10
873.9108765077837
20
1833.8085505542904
10
882.6395851543778
20
1810.3378926178355
0
LWPOLYLINE
5
2ae
100
AcDbEntity
8
_ABF_SHEET_MATERIAL
100
AcDbPolyline
90
2
66
1
70
0
10
902.9274551955742
20
1760.7599999999998
10
884.7633918559809
20
1767.8982947173083
0
LWPOLYLINE
5
2af
100
AcDbEntity
8
_ABF_SHEET_MATERIAL
100
AcDbPolyline
90
2
66
1
70
0
10
922.9511201489139
20
1769.8899041471518
10
902.9274551955742
20
1760.7599999999998
0
LWPOLYLINE
5
2b0
100
AcDbEntity
8
_ABF_SHEET_MATERIAL
100
AcDbPolyline
90
2
66
1
70
0
10
932.4152668641303
20
1833.8085505542904
10
932.4152668641303
20
1798.1177858986118
0
LWPOLYLINE
5
2b1
100
AcDbEntity
8
_ABF_SHEET_MATERIAL
100
AcDbPolyline
90
2
66
1
70
0
10
924.630409737295
20
1857.3631312375348
10
932.4152668641303
20
1833.8085505542904
0
LWPOLYLINE
5
2b2
100
AcDbEntity
8
_ABF_SHEET_MATERIAL
100
AcDbPolyline
90
2
66
1
70
0
10
902.9274551955742
20
1802.1621072650278
10
923.282323568778
20
1812.6412718565743
0
LWPOLYLINE
5
2b3
100
AcDbEntity
8
_ABF_SHEET_MATERIAL
100
AcDbPolyline
90
2
66
1
70
0
10
959.1253836862172
20
1815.229152384895
10
949.99243864473
20
1794.0658793211753
0
LWPOLYLINE
5
2b4
100
AcDbEntity
8
_ABF_SHEET_MATERIAL
100
AcDbPolyline
90
2
66
1
70
0
10
1008.4968290010764
20
1794.0658793211753
10
1000.0036975568244
20
1770.515752155589
0
LWPOLYLINE
5
2b5
100
AcDbEntity
8
_ABF_SHEET_MATERIAL
100
AcDbPolyline
90
2
66
1
70
0
10
949.99243864473
20
1829.7498899261575
10
959.4565862330139
20
1857.9724346155815
0
LWPOLYLINE
5
2b6
100
AcDbEntity
8
_ABF_SHEET_MATERIAL
100
AcDbPolyline
90
2
66
1
70
0
10
999.7681229736849
20
1817.5320950898506
10
979.4802538055562
20
1825.7063368592003
0
LWPOLYLINE
5
2b7
100
AcDbEntity
8
_ABF_SHEET_MATERIAL
100
AcDbPolyline
90
2
66
1
70
0
10
959.4565862330139
20
1857.9724346155815
10
979.4802538055562
20
1867.1006144542896
0
LWPOLYLINE
5
2b8
100
AcDbEntity
8
_ABF_SHEET_MATERIAL
100
AcDbPolyline
90
2
66
1
70
0
10
1008.4968290010764
20
1794.0658793211753
10
999.7681229736849
20
1817.5320950898506
0
LWPOLYLINE
5
2b9
100
AcDbEntity
8
_ABF_SHEET_MATERIAL
100
AcDbPolyline
90
2
66
1
70
0
10
979.4802538055562
20
1867.1006144542896
10
997.6443162720819
20
1859.9636642610335
0
LWPOLYLINE
5
2ba
100
AcDbEntity
8
_ABF_SHEET_MATERIAL
100
AcDbPolyline
90
2
66
1
70
0
10
1000.0036975568244
20
1770.515752155589
10
979.4802538055562
20
1760.7599999999998
0
LWPOLYLINE
5
2bb
100
AcDbEntity
8
_ABF_SHEET_MATERIAL
100
AcDbPolyline
90
2
66
1
70
0
10
979.4802538055562
20
1760.7599999999998
10
957.7772975177002
20
1770.515752155589
0
LWPOLYLINE
5
2bc
100
AcDbEntity
8
_ABF_SHEET_MATERIAL
100
AcDbPolyline
90
2
66
1
70
0
10
979.4802538055562
20
1825.7063368592003
10
959.1253836862172
20
1815.229152384895
0
LWPOLYLINE
5
2bd
100
AcDbEntity
8
_ABF_SHEET_MATERIAL
100
AcDbPolyline
90
2
66
1
70
0
10
949.99243864473
20
1794.0658793211753
10
949.99243864473
20
1829.7498899261575
0
LWPOLYLINE
5
2be
100
AcDbEntity
8
_ABF_SHEET_MATERIAL
100
AcDbPolyline
90
2
66
1
70
0
10
957.7772975177002
20
1770.515752155589
10
949.99243864473
20
1794.0658793211753
0
LWPOLYLINE
5
2bf
100
AcDbEntity
8
_ABF_SHEET_MATERIAL
100
AcDbPolyline
90
2
66
1
70
0
10
997.6443162720819
20
1859.9636642610335
10
1004.9573991162604
20
1848.5462174477364
0
LWPOLYLINE
5
2c0
100
AcDbEntity
8
_ABF_SHEET_MATERIAL
100
AcDbPolyline
90
2
66
1
70
0
10
1055.6431439324833
20
1818.3037261744537
10
1073.3492440452587
20
1812.1312153072492
0
LWPOLYLINE
5
2c1
100
AcDbEntity
8
_ABF_SHEET_MATERIAL
100
AcDbPolyline
90
2
66
1
70
0
10
1055.6431439324833
20
1866.7628560431335
10
1074.2719297879964
20
1860.3859845044376
0
LWPOLYLINE
5
2c2
100
AcDbEntity
8
_ABF_SHEET_MATERIAL
100
AcDbPolyline
90
2
66
1
70
0
10
1084.8937990194688
20
1791.6296715828262
10
1073.3492440452587
20
1767.728963262731
0
LWPOLYLINE
5
2c3
100
AcDbEntity
8
_ABF_SHEET_MATERIAL
100
AcDbPolyline
90
2
66
1
70
0
10
1081.9111103529085
20
1841.5925206444779
10
1073.3492440452587
20
1824.0780099708272
0
LWPOLYLINE
5
2c4
100
AcDbEntity
8
_ABF_SHEET_MATERIAL
100
AcDbPolyline
90
2
66
1
70
0
10
1073.3492440452587
20
1824.0780099708272
10
1055.6431439324833
20
1818.3037261744537
0
LWPOLYLINE
5
2c5
100
AcDbEntity
8
_ABF_SHEET_MATERIAL
100
AcDbPolyline
90
2
66
1
70
0
10
1037.346128990753
20
1860.3859845044376
10
1055.6431439324833
20
1866.7628560431335
0
LWPOLYLINE
5
2c6
100
AcDbEntity
8
_ABF_SHEET_MATERIAL
100
AcDbPolyline
90
2
66
1
70
0
10
1074.2719297879964
20
1860.3859845044376
10
1081.9111103529085
20
1841.5925206444779
0
LWPOLYLINE
5
2c7
100
AcDbEntity
8
_ABF_SHEET_MATERIAL
100
AcDbPolyline
90
2
66
1
70
0
10
1027.4886624992314
20
1841.5925206444779
10
1037.346128990753
20
1860.3859845044376
0
LWPOLYLINE
5
2c8
100
AcDbEntity
8
_ABF_SHEET_MATERIAL
100
AcDbPolyline
90
2
66
1
70
0
10
1055.6431439324833
20
1760.7599999999998
10
1035.9159535173367
20
1767.728963262731
0
LWPOLYLINE
5
2c9
100
AcDbEntity
8
_ABF_SHEET_MATERIAL
100
AcDbPolyline
90
2
66
1
70
0
10
1073.3492440452587
20
1767.728963262731
10
1055.6431439324833
20
1760.7599999999998
0
LWPOLYLINE
5
2ca
100
AcDbEntity
8
_ABF_SHEET_MATERIAL
100
AcDbPolyline
90
2
66
1
70
0
10
1073.3492440452587
20
1812.1312153072492
10
1084.8937990194688
20
1791.6296715828262
0
LWPOLYLINE
5
2cb
100
AcDbEntity
8
_ABF_SHEET_MATERIAL
100
AcDbPolyline
90
2
66
1
70
0
10
1035.9159535173367
20
1767.728963262731
10
1026.0740007816762
20
1788.3855183875012
0
LWPOLYLINE
5
2cc
100
AcDbEntity
8
_ABF_SHEET_MATERIAL
100
AcDbPolyline
90
2
66
1
70
0
10
1165.5270127964493
20
1764.5153329460745
10
1151.528074126751
20
1775.429757951966
0
LWPOLYLINE
5
2cd
100
AcDbEntity
8
_ABF_SHEET_MATERIAL
100
AcDbPolyline
90
2
66
1
70
0
10
1205.8090285034848
20
1808.4944488655478
10
1217.0374666653843
20
1799.7745049442565
0
LWPOLYLINE
5
2ce
100
AcDbEntity
8
_ABF_SHEET_MATERIAL
100
AcDbPolyline
90
2
66
1
70
0
10
1153.904699805539
20
1856.5267045703954
10
1149.5450080995822
20
1842.7023152435877
0
LWPOLYLINE
5
2cf
100
AcDbEntity
8
_ABF_SHEET_MATERIAL
100
AcDbPolyline
90
2
66
1
70
0
10
1181.662860729259
20
1867.9279332805722
10
1163.5448316232594
20
1864.4909246981501
0
LWPOLYLINE
5
2d0
100
AcDbEntity
8
_ABF_SHEET_MATERIAL
100
AcDbPolyline
90
2
66
1
70
0
10
1149.5450080995822
20
1842.7023152435877
10
1153.111190084246
20
1829.7043157991714
0
LWPOLYLINE
5
2d1
100
AcDbEntity
8
_ABF_SHEET_MATERIAL
100
AcDbPolyline
90
2
66
1
70
0
10
1198.0079218430965
20
1864.4909246981501
10
1181.662860729259
20
1867.9279332805722
0
LWPOLYLINE
5
2d2
100
AcDbEntity
8
_ABF_SHEET_MATERIAL
100
AcDbPolyline
90
2
66
1
70
0
10
1163.5448316232594
20
1864.4909246981501
10
1153.904699805539
20
1856.5267045703954
0
LWPOLYLINE
5
2d3
100
AcDbEntity
8
_ABF_SHEET_MATERIAL
100
AcDbPolyline
90
2
66
1
70
0
10
1185.205740977099
20
1760.7599999999998
10
1165.5270127964493
20
1764.5153329460745
0
LWPOLYLINE
5
2d4
100
AcDbEntity
8
_ABF_SHEET_MATERIAL
100
AcDbPolyline
90
2
66
1
70
0
10
1216.0301282913715
20
1844.1637185977327
10
1210.2994105665805
20
1856.5267045703954
0
LWPOLYLINE
5
2d5
100
AcDbEntity
8
_ABF_SHEET_MATERIAL
100
AcDbPolyline
90
2
66
1
70
0
10
1210.2994105665805
20
1856.5267045703954
10
1198.0079218430965
20
1864.4909246981501
0
LWPOLYLINE
5
2d6
100
AcDbEntity
8
_ABF_SHEET_MATERIAL
100
AcDbPolyline
90
2
66
1
70
0
10
1164.6054480724674
20
1822.758595341203
10
1205.8090285034848
20
1808.4944488655478
0
LWPOLYLINE
5
2d7
100
AcDbEntity
8
_ABF_SHEET_MATERIAL
100
AcDbPolyline
90
2
66
1
70
0
10
1217.0374666653843
20
1799.7745049442565
10
1220.469858466513
20
1787.1659984027335
0
LWPOLYLINE
5
2d8
100
AcDbEntity
8
_ABF_SHEET_MATERIAL
100
AcDbPolyline
90
2
66
1
70
0
10
1153.111190084246
20
1829.7043157991714
10
1164.6054480724674
20
1822.758595341203
0
LWPOLYLINE
5
2d9
100
AcDbEntity
8
_ABF_SHEET_MATERIAL
100
AcDbPolyline
90
2
66
1
70
0
10
1220.469858466513
20
1787.1659984027335
10
1216.3753531763582
20
1775.429757951966
0
LWPOLYLINE
5
2da
100
AcDbEntity
8
_ABF_SHEET_MATERIAL
100
AcDbPolyline
90
2
66
1
70
0
10
1216.3753531763582
20
1775.429757951966
10
1205.678808729764
20
1765.9991475081247
0
LWPOLYLINE
5
2db
100
AcDbEntity
8
_ABF_SHEET_MATERIAL
100
AcDbPolyline
90
2
66
1
70
0
10
1205.678808729764
20
1765.9991475081247
10
1185.205740977099
20
1760.7599999999998
0
LWPOLYLINE
5
2dc
100
AcDbEntity
8
_ABF_SHEET_MATERIAL
100
AcDbPolyline
90
2
66
1
70
0
10
1151.528074126751
20
1775.429757951966
10
1145.8279945255474
20
1789.7172258084656
0
LWPOLYLINE
5
2dd
100
AcDbEntity
8
_ABF_SHEET_MATERIAL
100
AcDbPolyline
90
2
66
1
70
0
10
1307.6544792782286
20
1861.6555993600523
10
1238.0470302471128
20
1760.7599999999998
0
LWPOLYLINE
5
2de
100
AcDbEntity
8
_ABF_SHEET_MATERIAL
100
AcDbPolyline
90
2
66
1
70
0
10
1238.0470302471128
20
1760.7599999999998
10
1307.6544792782286
20
1760.7599999999998
0
LWPOLYLINE
5
2df
100
AcDbEntity
8
_ABF_SHEET_MATERIAL
100
AcDbPolyline
90
2
66
1
70
0
10
1238.0470302471128
20
1861.6555993600523
10
1307.6544792782286
20
1861.6555993600523
0
LWPOLYLINE
5
2e0
100
AcDbEntity
8
_ABF_SHEET_MATERIAL
100
AcDbPolyline
90
2
66
1
70
0
10
1399.0642512107922
20
1797.008008760853
10
1415.174072999436
20
1760.7599999999998
0
LWPOLYLINE
5
2e1
100
AcDbEntity
8
_ABF_SHEET_MATERIAL
100
AcDbPolyline
90
2
66
1
70
0
10
1368.3459241445323
20
1866.1259707145173
10
1399.0642512107922
20
1797.008008760853
0
LWPOLYLINE
5
2e2
100
AcDbEntity
8
_ABF_SHEET_MATERIAL
100
AcDbPolyline
90
2
66
1
70
0
10
1325.2316510588282
20
1760.7599999999998
10
1340.0638275163783
20
1797.008008760853
0
LWPOLYLINE
5
2e3
100
AcDbEntity
8
_ABF_SHEET_MATERIAL
100
AcDbPolyline
90
2
66
1
70
0
10
1340.0638275163783
20
1797.008008760853
10
1368.3459241445323
20
1866.1259707145173
0
LWPOLYLINE
5
2e4
100
AcDbEntity
8
_ABF_SHEET_MATERIAL
100
AcDbPolyline
90
2
66
1
70
0
10
1340.0638275163783
20
1797.008008760853
10
1399.0642512107922
20
1797.008008760853
0
LWPOLYLINE
5
2e5
100
AcDbEntity
8
_ABF_SHEET_MATERIAL
100
AcDbPolyline
90
2
66
1
70
0
10
1432.7512447800357
20
1812.3934673429592
10
1432.7512447800357
20
1761.5073243378763
0
LWPOLYLINE
5
2e6
100
AcDbEntity
8
_ABF_SHEET_MATERIAL
100
AcDbPolyline
90
2
66
1
70
0
10
1504.5372907409755
20
1824.664411040462
10
1491.6574347996966
20
1815.7287111697972
0
LWPOLYLINE
5
2e7
100
AcDbEntity
8
_ABF_SHEET_MATERIAL
100
AcDbPolyline
90
2
66
1
70
0
10
1491.6574347996966
20
1815.7287111697972
10
1469.9032032536434
20
1812.3934673429592
0
LWPOLYLINE
5
2e8
100
AcDbEntity
8
_ABF_SHEET_MATERIAL
100
AcDbPolyline
90
2
66
1
70
0
10
1432.7512447800357
20
1812.3934673429592
10
1469.9032032536434
20
1812.3934673429592
0
LWPOLYLINE
5
2e9
100
AcDbEntity
8
_ABF_SHEET_MATERIAL
100
AcDbPolyline
90
2
66
1
70
0
10
1498.9958331110415
20
1858.5869065536233
10
1509.0077109872248
20
1839.9070183072913
0
LWPOLYLINE
5
2ea
100
AcDbEntity
8
_ABF_SHEET_MATERIAL
100
AcDbPolyline
90
2
66
1
70
0
10
1509.0077109872248
20
1839.9070183072913
10
1504.5372907409755
20
1824.664411040462
0
LWPOLYLINE
5
2eb
100
AcDbEntity
8
_ABF_SHEET_MATERIAL
100
AcDbPolyline
90
2
66
1
70
0
10
1476.4520516416444
20
1863.279609802375
10
1498.9958331110415
20
1858.5869065536233
0
LWPOLYLINE
5
2ec
100
AcDbEntity
8
_ABF_SHEET_MATERIAL
100
AcDbPolyline
90
2
66
1
70
0
10
1469.9032032536434
20
1812.3934673429592
10
1482.369005155241
20
1804.7479378307016
0
LWPOLYLINE
5
2ed
100
AcDbEntity
8
_ABF_SHEET_MATERIAL
100
AcDbPolyline
90
2
66
1
70
0
10
1476.4520516416444
20
1863.279609802375
10
1432.7512447800357
20
1863.279609802375
0
LWPOLYLINE
5
2ee
100
AcDbEntity
8
_ABF_SHEET_MATERIAL
100
AcDbPolyline
90
2
66
1
70
0
10
1432.7512447800357
20
1863.279609802375
10
1432.7512447800357
20
1812.3934673429592
0
LWPOLYLINE
5
2ef
100
AcDbEntity
8
_ABF_SHEET_MATERIAL
100
AcDbPolyline
90
2
66
1
70
0
10
1482.369005155241
20
1804.7479378307016
10
1514.5828131489125
20
1760.7599999999998
0
LWPOLYLINE
5
2f0
100
AcDbEntity
8
_ABF_SHEET_MATERIAL
100
AcDbPolyline
90
2
66
1
70
0
10
1572.3904529812696
20
1760.7599999999998
10
1572.3904529812696
20
1808.0149776192225
0
LWPOLYLINE
5
2f1
100
AcDbEntity
8
_ABF_SHEET_MATERIAL
100
AcDbPolyline
90
2
66
1
70
0
10
1532.159984929512
20
1866.764231997619
10
1572.3904529812696
20
1808.0149776192225
0
LWPOLYLINE
5
2f2
100
AcDbEntity
8
_ABF_SHEET_MATERIAL
100
AcDbPolyline
90
2
66
1
70
0
10
1572.3904529812696
20
1808.0149776192225
10
1613.2596083731012
20
1866.764231997619
0
LWPOLYLINE
5
2f3
100
AcDbEntity
8
_ABF_SHEET_MATERIAL
100
AcDbPolyline
90
2
66
1
70
0
10
1674.19380387918
20
1760.7599999999998
10
1712.5821622258916
20
1760.7599999999998
0
LWPOLYLINE
5
2f4
100
AcDbEntity
8
_ABF_SHEET_MATERIAL
100
AcDbPolyline
90
2
66
1
70
0
10
1726.7500093489311
20
1858.4032620293563
10
1745.2006894208205
20
1845.1452071872282
0
LWPOLYLINE
5
2f5
100
AcDbEntity
8
_ABF_SHEET_MATERIAL
100
AcDbPolyline
90
2
66
1
70
0
10
1674.19380387918
20
1862.0109657978946
10
1674.19380387918
20
1760.7599999999998
0
LWPOLYLINE
5
2f6
100
AcDbEntity
8
_ABF_SHEET_MATERIAL
100
AcDbPolyline
90
2
66
1
70
0
10
1747.6181296987543
20
1786.2689721157835
10
1734.895321151388
20
1769.777909658888
0
LWPOLYLINE
5
2f7
100
AcDbEntity
8
_ABF_SHEET_MATERIAL
100
AcDbPolyline
90
2
66
1
70
0
10
1753.1902564461743
20
1814.351157224766
10
1747.6181296987543
20
1786.2689721157835
0
LWPOLYLINE
5
2f8
100
AcDbEntity
8
_ABF_SHEET_MATERIAL
100
AcDbPolyline
90
2
66
1
70
0
10
1707.945663574819
20
1862.0109657978946
10
1726.7500093489311
20
1858.4032620293563
0
LWPOLYLINE
5
2f9
100
AcDbEntity
8
_ABF_SHEET_MATERIAL
100
AcDbPolyline
90
2
66
1
70
0
10
1745.2006894208205
20
1845.1452071872282
10
1753.1902564461743
20
1814.351157224766
0
LWPOLYLINE
5
2fa
100
AcDbEntity
8
_ABF_SHEET_MATERIAL
100
AcDbPolyline
90
2
66
1
70
0
10
1734.895321151388
20
1769.777909658888
10
1712.5821622258916
20
1760.7599999999998
0
LWPOLYLINE
5
2fb
100
AcDbEntity
8
_ABF_SHEET_MATERIAL
100
AcDbPolyline
90
2
66
1
70
0
10
1674.19380387918
20
1862.0109657978946
10
1707.945663574819
20
1862.0109657978946
0
LWPOLYLINE
5
2fc
100
AcDbEntity
8
_ABF_SHEET_MATERIAL
100
AcDbPolyline
90
2
66
1
70
0
10
1770.767428226774
20
1863.7363917687749
10
1770.767428226774
20
1760.7599999999998
0
LWPOLYLINE
5
2fd
100
AcDbEntity
8
_ABF_SHEET_MATERIAL
100
AcDbPolyline
90
2
66
1
70
0
10
1862.1772001593376
20
1797.008008760853
10
1878.2870219479817
20
1760.7599999999998
0
LWPOLYLINE
5
2fe
100
AcDbEntity
8
_ABF_SHEET_MATERIAL
100
AcDbPolyline
90
2
66
1
70
0
10
1831.4588730930777
20
1866.1259707145173
10
1862.1772001593376
20
1797.008008760853
0
LWPOLYLINE
5
2ff
100
AcDbEntity
8
_ABF_SHEET_MATERIAL
100
AcDbPolyline
90
2
66
1
70
0
10
1788.3446000073739
20
1760.7599999999998
10
1803.1767764649237
20
1797.008008760853
0
LWPOLYLINE
5
300
100
AcDbEntity
8
_ABF_SHEET_MATERIAL
100
AcDbPolyline
90
2
66
1
70
0
10
1803.1767764649237
20
1797.008008760853
10
1831.4588730930777
20
1866.1259707145173
0
LWPOLYLINE
5
301
100
AcDbEntity
8
_ABF_SHEET_MATERIAL
100
AcDbPolyline
90
2
66
1
70
0
10
1803.1767764649237
20
1797.008008760853
10
1862.1772001593376
20
1797.008008760853
0
LWPOLYLINE
5
302
100
AcDbEntity
8
_ABF_SHEET_MATERIAL
100
AcDbPolyline
90
2
66
1
70
0
10
1895.8641937285815
20
1760.7599999999998
10
1895.8641937285815
20
1865.9416137671158
0
LWPOLYLINE
5
303
100
AcDbEntity
8
_ABF_SHEET_MATERIAL
100
AcDbPolyline
90
2
66
1
70
0
10
1991.3425415430202
20
1865.9416137671158
10
1991.3425415430202
20
1760.7599999999998
0
LWPOLYLINE
5
304
100
AcDbEntity
8
_ABF_SHEET_MATERIAL
100
AcDbPolyline
90
2
66
1
70
0
10
1895.8641937285815
20
1865.9416137671158
10
1944.5956368636107
20
1760.7599999999998
0
LWPOLYLINE
5
305
100
AcDbEntity
8
_ABF_SHEET_MATERIAL
100
AcDbPolyline
90
2
66
1
70
0
10
1944.5956368636107
20
1760.7599999999998
10
1991.3425415430202
20
1865.9416137671158
0
LWPOLYLINE
5
306
100
AcDbEntity
8
_ABF_SHEET_MATERIAL
100
AcDbPolyline
90
2
66
1
70
0
10
2008.91971332362
20
1813.678360880993
10
2008.91971332362
20
1760.7599999999998
0
LWPOLYLINE
5
307
100
AcDbEntity
8
_ABF_SHEET_MATERIAL
100
AcDbPolyline
90
2
66
1
70
0
10
2008.91971332362
20
1760.7599999999998
10
2079.9204175468876
20
1760.7599999999998
0
LWPOLYLINE
5
308
100
AcDbEntity
8
_ABF_SHEET_MATERIAL
100
AcDbPolyline
90
2
66
1
70
0
10
2008.91971332362
20
1860.8668351975184
10
2008.91971332362
20
1813.678360880993
0
LWPOLYLINE
5
309
100
AcDbEntity
8
_ABF_SHEET_MATERIAL
100
AcDbPolyline
90
2
66
1
70
0
10
2008.91971332362
20
1860.8668351975184
10
2079.9204175468876
20
1860.8668351975184
0
LWPOLYLINE
5
30a
100
AcDbEntity
8
_ABF_SHEET_MATERIAL
100
AcDbPolyline
90
2
66
1
70
0
10
2008.91971332362
20
1813.678360880993
10
2073.5261964095043
20
1813.678360880993
0
LWPOLYLINE
5
30b
100
AcDbEntity
8
_ABF_SHEET_MATERIAL
100
AcDbPolyline
90
2
66
1
70
0
10
2097.4975893274877
20
1760.7599999999998
10
2097.4975893274877
20
1864.8159363228308
0
LWPOLYLINE
5
30c
100
AcDbEntity
8
_ABF_SHEET_MATERIAL
100
AcDbPolyline
90
2
66
1
70
0
10
2097.4975893274877
20
1864.8159363228308
10
2172.2044304490432
20
1760.7599999999998
0
LWPOLYLINE
5
30d
100
AcDbEntity
8
_ABF_SHEET_MATERIAL
100
AcDbPolyline
90
2
66
1
70
0
10
2172.2044304490432
20
1760.7599999999998
10
2172.2044304490432
20
1864.8159363228308
0
LWPOLYLINE
5
30e
100
AcDbEntity
8
_ABF_SHEET_MATERIAL
100
AcDbPolyline
90
2
66
1
70
0
10
2229.344079301515
20
1864.9866315089475
10
2229.344079301515
20
1760.7599999999998
0
LWPOLYLINE
5
30f
100
AcDbEntity
8
_ABF_SHEET_MATERIAL
100
AcDbPolyline
90
2
66
1
70
0
10
2229.344079301515
20
1864.9866315089475
10
2268.906556373387
20
1864.9866315089475
0
LWPOLYLINE
5
310
100
AcDbEntity
8
_ABF_SHEET_MATERIAL
100
AcDbPolyline
90
2
66
1
70
0
10
2189.781602229643
20
1864.9866315089475
10
2229.344079301515
20
1864.9866315089475
0
LWPOLYLINE
5
311
100
AcDbEntity
8
_ABF_SHEET_MATERIAL
100
AcDbPolyline
90
2
66
1
70
0
10
2333.975935692455
20
1760.7599999999998
10
2302.2270658623925
20
1775.1669785834458
0
LWPOLYLINE
5
312
100
AcDbEntity
8
_ABF_SHEET_MATERIAL
100
AcDbPolyline
90
2
66
1
70
0
10
2286.4837281539862
20
1817.3245215297131
10
2302.760454269372
20
1856.8112966590045
0
LWPOLYLINE
5
313
100
AcDbEntity
8
_ABF_SHEET_MATERIAL
100
AcDbPolyline
90
2
66
1
70
0
10
2333.975935692455
20
1867.2172562812113
10
2302.760454269372
20
1856.8112966590045
0
LWPOLYLINE
5
314
100
AcDbEntity
8
_ABF_SHEET_MATERIAL
100
AcDbPolyline
90
2
66
1
70
0
10
2302.2270658623925
20
1775.1669785834458
10
2286.4837281539862
20
1817.3245215297131
0
LWPOLYLINE
5
315
100
AcDbEntity
8
_ABF_SHEET_MATERIAL
100
AcDbPolyline
90
2
66
1
70
0
10
2333.975935692455
20
1867.2172562812113
10
2364.926683821803
20
1856.8112966590045
0
LWPOLYLINE
5
316
100
AcDbEntity
8
_ABF_SHEET_MATERIAL
100
AcDbPolyline
90
2
66
1
70
0
10
2380.3997040963172
20
1813.855219924131
10
2366.5280853064164
20
1774.3687329071367
0
LWPOLYLINE
5
317
100
AcDbEntity
8
_ABF_SHEET_MATERIAL
100
AcDbPolyline
90
2
66
1
70
0
10
2333.975935692455
20
1760.7599999999998
10
2366.5280853064164
20
1774.3687329071367
0
LWPOLYLINE
5
318
100
AcDbEntity
8
_ABF_SHEET_MATERIAL
100
AcDbPolyline
90
2
66
1
70
0
10
2364.926683821803
20
1856.8112966590045
10
2380.3997040963172
20
1813.855219924131
0
LWPOLYLINE
5
319
100
AcDbEntity
8
_ABF_SHEET_MATERIAL
100
AcDbPolyline
90
2
66
1
70
0
10
2463.154226414288
20
1866.0447335235635
10
2498.5136025597785
20
1760.7599999999998
0
LWPOLYLINE
5
31a
100
AcDbEntity
8
_ABF_SHEET_MATERIAL
100
AcDbPolyline
90
2
66
1
70
0
10
2427.2666129604618
20
1760.7599999999998
10
2463.154226414288
20
1866.0447335235635
0
LWPOLYLINE
5
31b
100
AcDbEntity
8
_ABF_SHEET_MATERIAL
100
AcDbPolyline
90
2
66
1
70
0
10
2397.9768758769164
20
1866.0447335235635
10
2427.2666129604618
20
1760.7599999999998
0
LWPOLYLINE
5
31c
100
AcDbEntity
8
_ABF_SHEET_MATERIAL
100
AcDbPolyline
90
2
66
1
70
0
10
2498.5136025597785
20
1760.7599999999998
10
2529.1232047758117
20
1866.0447335235635
0
LWPOLYLINE
5
31d
100
AcDbEntity
8
_ABF_SHEET_MATERIAL
100
AcDbPolyline
90
2
66
1
70
0
10
2586.930844608169
20
1760.7599999999998
10
2586.930844608169
20
1808.0149776192225
0
LWPOLYLINE
5
31e
100
AcDbEntity
8
_ABF_SHEET_MATERIAL
100
AcDbPolyline
90
2
66
1
70
0
10
2546.700376556412
20
1866.764231997619
10
2586.930844608169
20
1808.0149776192225
0
LWPOLYLINE
5
31f
100
AcDbEntity
8
_ABF_SHEET_MATERIAL
100
AcDbPolyline
90
2
66
1
70
0
10
2586.930844608169
20
1808.0149776192225
10
2627.8000000000006
20
1866.764231997619
0
ENDSEC
0
SECTION
2
OBJECTS
0
DICTIONARY
5
C
330
0
100
AcDbDictionary
281
1
3
ACAD_GROUP
350
D
0
DICTIONARY
5
D
330
C
100
AcDbDictionary
281
1
0
ENDSEC
0
EOF
