999
Dxf file generated by netDxf https://netdxf.codeplex.com, Copyright(C) 2009-2016 Daniel Carvajal, Licensed under LGPL
0
SECTION
2
HEADER
9
$MEASUREMENT
70
1
9
$ACADVER
1
AC1015
9
$DWGCODEPAGE
3
ANSI_1250
9
$HANDSEED
5
8B
9
$ANGBASE
50
0.0
9
$ANGDIR
70
0
9
$ATTMODE
70
1
9
$AUNITS
70
0
9
$AUPREC
70
0
9
$CECOLOR
62
256
9
$CELTSCALE
40
1.0
9
$CELTYPE
6
ByLayer
9
$CELWEIGHT
370
-1
9
$CLAYER
8
0
9
$CMLJUST
70
0
9
$CMLSCALE
40
20.0
9
$CMLSTYLE
2
Standard
9
$DIMSTYLE
2
Standard
9
$TEXTSIZE
40
2.5
9
$TEXTSTYLE
7
Standard
9
$LUNITS
70
2
9
$LUPREC
70
4
9
$EXTNAMES
290
1
9
$INSBASE
10
0.0
20
0.0
30
0.0
9
$INSUNITS
70
0
9
$LTSCALE
40
1.0
9
$LWDISPLAY
290
0
9
$PDMODE
70
0
9
$PDSIZE
40
0.0
9
$PLINEGEN
70
0
9
$PSLTSCALE
70
1
9
$TDCREATE
40
1721426.0
9
$TDUCREATE
40
1721426.0
9
$TDUPDATE
40
1721426.0
9
$TDUUPDATE
40
1721426.0
9
$TDINDWG
40
0.0
9
$DIMADEC
70
0
9
$DIMAUNIT
70
0
9
$DIMASZ
40
0.18
9
$DIMAZIN
70
0
9
$DIMSAH
70
0
9
$DIMBLK
1

9
$DIMLDRBLK
1

9
$DIMCEN
40
0.09
9
$DIMCLRD
70
0
9
$DIMCLRE
70
0
9
$DIMCLRT
70
0
9
$DIMDEC
70
2
9
$DIMDLE
40
0.0
9
$DIMDLI
40
0.38
9
$DIMDSEP
70
46
9
$DIMEXE
40
0.18
9
$DIMEXO
40
0.0625
9
$DIMGAP
40
0.09
9
$DIMJUST
70
0
9
$DIMLFAC
40
1.0
9
$DIMLUNIT
70
2
9
$DIMLWD
70
-2
9
$DIMLWE
70
-2
9
$DIMPOST
1
<>
9
$DIMRND
40
0.0
9
$DIMSCALE
40
1.0
9
$DIMSD1
70
0
9
$DIMSD2
70
0
9
$DIMSE1
70
0
9
$DIMSE2
70
0
9
$DIMTAD
70
1
9
$DIMTIH
70
0
9
$DIMTOH
70
0
9
$DIMTXT
40
0.18
9
$DIMZIN
70
0
9
$DIMFRAC
70
0
9
$DIMLTYPE
6
ByBlock
9
$DIMLTEX1
6
ByBlock
9
$DIMLTEX2
6
ByBlock
0
ENDSEC
0
SECTION
2
CLASSES
0
CLASS
1
RASTERVARIABLES
2
AcDbRasterVariables
3
ISM
90
0
280
0
281
0
0
ENDSEC
0
SECTION
2
TABLES
0
TABLE
2
APPID
5
4
330
0
100
AcDbSymbolTable
70
4
0
APPID
5
17
330
4
100
AcDbSymbolTableRecord
100
AcDbRegAppTableRecord
2
ACAD
70
0
0
APPID
5
80
330
4
100
AcDbSymbolTableRecord
100
AcDbRegAppTableRecord
2
AcCmTransparency
70
0
0
APPID
5
81
330
4
100
AcDbSymbolTableRecord
100
AcDbRegAppTableRecord
2
GradientColor1ACI
70
0
0
APPID
5
82
330
4
100
AcDbSymbolTableRecord
100
AcDbRegAppTableRecord
2
GradientColor2ACI
70
0
0
ENDTAB
0
TABLE
2
VPORT
5
1
330
0
100
AcDbSymbolTable
70
1
0
VPORT
5
2
330
1
100
AcDbSymbolTableRecord
100
AcDbViewportTableRecord
2
*Active
70
0
10
0.0
20
0.0
11
1.0
21
1.0
12
0.0
22
0.0
13
0.0
23
0.0
14
0.5
24
0.5
15
10.0
25
10.0
16
0.0
26
0.0
36
1.0
17
0.0
27
0.0
37
0.0
40
10.0
41
1.0
75
0
76
1
0
ENDTAB
0
TABLE
2
LTYPE
5
6
330
0
100
AcDbSymbolTable
70
3
0
LTYPE
5
13
330
6
100
AcDbSymbolTableRecord
100
AcDbLinetypeTableRecord
70
0
2
Continuous
3
Solid line
72
65
73
0
40
0.0
0
LTYPE
5
14
330
6
100
AcDbSymbolTableRecord
100
AcDbLinetypeTableRecord
70
0
2
ByLayer
3

72
65
73
0
40
0.0
0
LTYPE
5
15
330
6
100
AcDbSymbolTableRecord
100
AcDbLinetypeTableRecord
70
0
2
ByBlock
3

72
65
73
0
40
0.0
0
ENDTAB
0
TABLE
2
LAYER
5
5
330
0
100
AcDbSymbolTable
70
1
0
LAYER
5
12
330
5
100
AcDbSymbolTableRecord
100
AcDbLayerTableRecord
2
0
70
0
62
7
6
Continuous
290
1
370
-3
390
0
0
ENDTAB
0
TABLE
2
STYLE
5
7
330
0
100
AcDbSymbolTable
70
1
0
STYLE
5
16
330
7
100
AcDbSymbolTableRecord
100
AcDbTextStyleTableRecord
2
Standard
3
simplex.shx
70
0
71
0
40
0.0
41
1.0
42
0.0
50
0.0
0
ENDTAB
0
TABLE
2
DIMSTYLE
5
8
330
0
100
AcDbSymbolTable
70
1
100
AcDbDimStyleTable
0
DIMSTYLE
105
18
330
8
100
AcDbSymbolTableRecord
100
AcDbDimStyleTableRecord
2
Standard
70
0
3
<>
40
1.0
41
0.18
42
0.0625
43
0.38
44
0.18
45
0.0
46
0.0
73
0
74
0
75
0
76
0
77
1
78
0
79
0
140
0.18
141
0.09
144
1.0
147
0.09
176
0
177
0
178
0
179
0
271
2
275
0
276
0
277
2
278
46
280
0
281
0
282
0
340
16
173
0
345
15
346
15
347
15
371
-2
372
-2
0
ENDTAB
0
TABLE
2
VIEW
5
3
330
0
100
AcDbSymbolTable
70
0
0
ENDTAB
0
TABLE
2
UCS
5
A
330
0
100
AcDbSymbolTable
70
0
0
ENDTAB
0
TABLE
2
BLOCK_RECORD
5
B
330
0
100
AcDbSymbolTable
70
2
0
BLOCK_RECORD
5
1A
330
B
100
AcDbSymbolTableRecord
100
AcDbBlockTableRecord
2
*Model_Space
340
1E
0
BLOCK_RECORD
5
7A
330
B
100
AcDbSymbolTableRecord
100
AcDbBlockTableRecord
2
*Paper_Space
340
7F
0
ENDTAB
0
ENDSEC
0
SECTION
2
BLOCKS
0
BLOCK
5
1C
330
1A
100
AcDbEntity
8
0
100
AcDbBlockBegin
2
*Model_Space
70
0
10
0.0
20
0.0
30
0.0
3
*Model_Space
0
ENDBLK
5
1B
330
1A
100
AcDbEntity
8
0
100
AcDbBlockEnd
0
BLOCK
5
7C
330
7A
100
AcDbEntity
8
0
100
AcDbBlockBegin
2
*Paper_Space
70
0
10
0.0
20
0.0
30
0.0
3
*Paper_Space
0
ENDBLK
5
7B
330
7A
100
AcDbEntity
8
0
100
AcDbBlockEnd
0
ENDSEC
0
SECTION
2
ENTITIES
0
POLYLINE
5
25
330
1A
100
AcDbEntity
67
0
8
0
62
256
6
ByLayer
370
-1
48
1.0
60
0
100
AcDb3dPolyline
10
0.0
20
0.0
30
0.0
70
9
75
0
210
0.0
220
0.0
230
1.0
0
VERTEX
5
20
100
AcDbEntity
8
0
62
256
100
AcDbVertex
100
AcDb3dPolylineVertex
10
5.0
20
2795.0
30
0.0
70
32
0
VERTEX
5
21
100
AcDbEntity
8
0
62
256
100
AcDbVertex
100
AcDb3dPolylineVertex
10
495.0
20
2795.0
30
0.0
70
32
0
VERTEX
5
22
100
AcDbEntity
8
0
62
256
100
AcDbVertex
100
AcDb3dPolylineVertex
10
495.0
20
1354.0
30
0.0
70
32
0
VERTEX
5
23
100
AcDbEntity
8
0
62
256
100
AcDbVertex
100
AcDb3dPolylineVertex
10
5.0
20
1354.0
30
0.0
70
32
0
SEQEND
5
24
100
AcDbEntity
8
0
0
POLYLINE
5
2B
330
1A
100
AcDbEntity
67
0
8
0
62
256
6
ByLayer
370
-1
48
1.0
60
0
100
AcDb3dPolyline
10
0.0
20
0.0
30
0.0
70
9
75
0
210
0.0
220
0.0
230
1.0
0
VERTEX
5
26
100
AcDbEntity
8
0
62
256
100
AcDbVertex
100
AcDb3dPolylineVertex
10
502.5
20
2795.0
30
0.0
70
32
0
VERTEX
5
27
100
AcDbEntity
8
0
62
256
100
AcDbVertex
100
AcDb3dPolylineVertex
10
992.5
20
2795.0
30
0.0
70
32
0
VERTEX
5
28
100
AcDbEntity
8
0
62
256
100
AcDbVertex
100
AcDb3dPolylineVertex
10
992.5
20
2235.0
30
0.0
70
32
0
VERTEX
5
29
100
AcDbEntity
8
0
62
256
100
AcDbVertex
100
AcDb3dPolylineVertex
10
502.5
20
2235.0
30
0.0
70
32
0
SEQEND
5
2A
100
AcDbEntity
8
0
0
POLYLINE
5
31
330
1A
100
AcDbEntity
67
0
8
0
62
256
6
ByLayer
370
-1
48
1.0
60
0
100
AcDb3dPolyline
10
0.0
20
0.0
30
0.0
70
9
75
0
210
0.0
220
0.0
230
1.0
0
VERTEX
5
2C
100
AcDbEntity
8
0
62
256
100
AcDbVertex
100
AcDb3dPolylineVertex
10
502.5
20
2227.5
30
0.0
70
32
0
VERTEX
5
2D
100
AcDbEntity
8
0
62
256
100
AcDbVertex
100
AcDb3dPolylineVertex
10
992.5
20
2227.5
30
0.0
70
32
0
VERTEX
5
2E
100
AcDbEntity
8
0
62
256
100
AcDbVertex
100
AcDb3dPolylineVertex
10
992.5
20
1667.5
30
0.0
70
32
0
VERTEX
5
2F
100
AcDbEntity
8
0
62
256
100
AcDbVertex
100
AcDb3dPolylineVertex
10
502.5
20
1667.5
30
0.0
70
32
0
SEQEND
5
30
100
AcDbEntity
8
0
0
POLYLINE
5
37
330
1A
100
AcDbEntity
67
0
8
0
62
256
6
ByLayer
370
-1
48
1.0
60
0
100
AcDb3dPolyline
10
0.0
20
0.0
30
0.0
70
9
75
0
210
0.0
220
0.0
230
1.0
0
VERTEX
5
32
100
AcDbEntity
8
0
62
256
100
AcDbVertex
100
AcDb3dPolylineVertex
10
1000.0
20
2795.0
30
0.0
70
32
0
VERTEX
5
33
100
AcDbEntity
8
0
62
256
100
AcDbVertex
100
AcDb3dPolylineVertex
10
1560.0
20
2795.0
30
0.0
70
32
0
VERTEX
5
34
100
AcDbEntity
8
0
62
256
100
AcDbVertex
100
AcDb3dPolylineVertex
10
1560.0
20
1354.0
30
0.0
70
32
0
VERTEX
5
35
100
AcDbEntity
8
0
62
256
100
AcDbVertex
100
AcDb3dPolylineVertex
10
1000.0
20
1354.0
30
0.0
70
32
0
SEQEND
5
36
100
AcDbEntity
8
0
0
POLYLINE
5
3D
330
1A
100
AcDbEntity
67
0
8
0
62
256
6
ByLayer
370
-1
48
1.0
60
0
100
AcDb3dPolyline
10
0.0
20
0.0
30
0.0
70
9
75
0
210
0.0
220
0.0
230
1.0
0
VERTEX
5
38
100
AcDbEntity
8
0
62
256
100
AcDbVertex
100
AcDb3dPolylineVertex
10
1567.5
20
2795.0
30
0.0
70
32
0
VERTEX
5
39
100
AcDbEntity
8
0
62
256
100
AcDbVertex
100
AcDb3dPolylineVertex
10
2057.5
20
2795.0
30
0.0
70
32
0
VERTEX
5
3A
100
AcDbEntity
8
0
62
256
100
AcDbVertex
100
AcDb3dPolylineVertex
10
2057.5
20
1354.0
30
0.0
70
32
0
VERTEX
5
3B
100
AcDbEntity
8
0
62
256
100
AcDbVertex
100
AcDb3dPolylineVertex
10
1567.5
20
1354.0
30
0.0
70
32
0
SEQEND
5
3C
100
AcDbEntity
8
0
0
POLYLINE
5
43
330
1A
100
AcDbEntity
67
0
8
0
62
256
6
ByLayer
370
-1
48
1.0
60
0
100
AcDb3dPolyline
10
0.0
20
0.0
30
0.0
70
9
75
0
210
0.0
220
0.0
230
1.0
0
VERTEX
5
3E
100
AcDbEntity
8
0
62
256
100
AcDbVertex
100
AcDb3dPolylineVertex
10
502.5
20
1660.0
30
0.0
70
32
0
VERTEX
5
3F
100
AcDbEntity
8
0
62
256
100
AcDbVertex
100
AcDb3dPolylineVertex
10
992.5
20
1660.0
30
0.0
70
32
0
VERTEX
5
40
100
AcDbEntity
8
0
62
256
100
AcDbVertex
100
AcDb3dPolylineVertex
10
992.5
20
1100.0
30
0.0
70
32
0
VERTEX
5
41
100
AcDbEntity
8
0
62
256
100
AcDbVertex
100
AcDb3dPolylineVertex
10
502.5
20
1100.0
30
0.0
70
32
0
SEQEND
5
42
100
AcDbEntity
8
0
0
POLYLINE
5
49
330
1A
100
AcDbEntity
67
0
8
0
62
256
6
ByLayer
370
-1
48
1.0
60
0
100
AcDb3dPolyline
10
0.0
20
0.0
30
0.0
70
9
75
0
210
0.0
220
0.0
230
1.0
0
VERTEX
5
44
100
AcDbEntity
8
0
62
256
100
AcDbVertex
100
AcDb3dPolylineVertex
10
5.0
20
1346.5
30
0.0
70
32
0
VERTEX
5
45
100
AcDbEntity
8
0
62
256
100
AcDbVertex
100
AcDb3dPolylineVertex
10
495.0
20
1346.5
30
0.0
70
32
0
VERTEX
5
46
100
AcDbEntity
8
0
62
256
100
AcDbVertex
100
AcDb3dPolylineVertex
10
495.0
20
786.5
30
0.0
70
32
0
VERTEX
5
47
100
AcDbEntity
8
0
62
256
100
AcDbVertex
100
AcDb3dPolylineVertex
10
5.0
20
786.5
30
0.0
70
32
0
SEQEND
5
48
100
AcDbEntity
8
0
0
POLYLINE
5
4F
330
1A
100
AcDbEntity
67
0
8
0
62
256
6
ByLayer
370
-1
48
1.0
60
0
100
AcDb3dPolyline
10
0.0
20
0.0
30
0.0
70
9
75
0
210
0.0
220
0.0
230
1.0
0
VERTEX
5
4A
100
AcDbEntity
8
0
62
256
100
AcDbVertex
100
AcDb3dPolylineVertex
10
502.5
20
1092.5
30
0.0
70
32
0
VERTEX
5
4B
100
AcDbEntity
8
0
62
256
100
AcDbVertex
100
AcDb3dPolylineVertex
10
992.5
20
1092.5
30
0.0
70
32
0
VERTEX
5
4C
100
AcDbEntity
8
0
62
256
100
AcDbVertex
100
AcDb3dPolylineVertex
10
992.5
20
532.5
30
0.0
70
32
0
VERTEX
5
4D
100
AcDbEntity
8
0
62
256
100
AcDbVertex
100
AcDb3dPolylineVertex
10
502.5
20
532.5
30
0.0
70
32
0
SEQEND
5
4E
100
AcDbEntity
8
0
0
POLYLINE
5
55
330
1A
100
AcDbEntity
67
0
8
0
62
256
6
ByLayer
370
-1
48
1.0
60
0
100
AcDb3dPolyline
10
0.0
20
0.0
30
0.0
70
9
75
0
210
0.0
220
0.0
230
1.0
0
VERTEX
5
50
100
AcDbEntity
8
0
62
256
100
AcDbVertex
100
AcDb3dPolylineVertex
10
1000.0
20
1346.5
30
0.0
70
32
0
VERTEX
5
51
100
AcDbEntity
8
0
62
256
100
AcDbVertex
100
AcDb3dPolylineVertex
10
1490.0
20
1346.5
30
0.0
70
32
0
VERTEX
5
52
100
AcDbEntity
8
0
62
256
100
AcDbVertex
100
AcDb3dPolylineVertex
10
1490.0
20
786.5
30
0.0
70
32
0
VERTEX
5
53
100
AcDbEntity
8
0
62
256
100
AcDbVertex
100
AcDb3dPolylineVertex
10
1000.0
20
786.5
30
0.0
70
32
0
SEQEND
5
54
100
AcDbEntity
8
0
0
POLYLINE
5
5B
330
1A
100
AcDbEntity
67
0
8
0
62
256
6
ByLayer
370
-1
48
1.0
60
0
100
AcDb3dPolyline
10
0.0
20
0.0
30
0.0
70
9
75
0
210
0.0
220
0.0
230
1.0
0
VERTEX
5
56
100
AcDbEntity
8
0
62
256
100
AcDbVertex
100
AcDb3dPolylineVertex
10
1497.5
20
1346.5
30
0.0
70
32
0
VERTEX
5
57
100
AcDbEntity
8
0
62
256
100
AcDbVertex
100
AcDb3dPolylineVertex
10
1987.5
20
1346.5
30
0.0
70
32
0
VERTEX
5
58
100
AcDbEntity
8
0
62
256
100
AcDbVertex
100
AcDb3dPolylineVertex
10
1987.5
20
786.5
30
0.0
70
32
0
VERTEX
5
59
100
AcDbEntity
8
0
62
256
100
AcDbVertex
100
AcDb3dPolylineVertex
10
1497.5
20
786.5
30
0.0
70
32
0
SEQEND
5
5A
100
AcDbEntity
8
0
0
POLYLINE
5
61
330
1A
100
AcDbEntity
67
0
8
0
62
256
6
ByLayer
370
-1
48
1.0
60
0
100
AcDb3dPolyline
10
0.0
20
0.0
30
0.0
70
9
75
0
210
0.0
220
0.0
230
1.0
0
VERTEX
5
5C
100
AcDbEntity
8
0
62
256
100
AcDbVertex
100
AcDb3dPolylineVertex
10
5.0
20
779.0
30
0.0
70
32
0
VERTEX
5
5D
100
AcDbEntity
8
0
62
256
100
AcDbVertex
100
AcDb3dPolylineVertex
10
495.0
20
779.0
30
0.0
70
32
0
VERTEX
5
5E
100
AcDbEntity
8
0
62
256
100
AcDbVertex
100
AcDb3dPolylineVertex
10
495.0
20
219.0
30
0.0
70
32
0
VERTEX
5
5F
100
AcDbEntity
8
0
62
256
100
AcDbVertex
100
AcDb3dPolylineVertex
10
5.0
20
219.0
30
0.0
70
32
0
SEQEND
5
60
100
AcDbEntity
8
0
0
POLYLINE
5
67
330
1A
100
AcDbEntity
67
0
8
0
62
256
6
ByLayer
370
-1
48
1.0
60
0
100
AcDb3dPolyline
10
0.0
20
0.0
30
0.0
70
9
75
0
210
0.0
220
0.0
230
1.0
0
VERTEX
5
62
100
AcDbEntity
8
0
62
256
100
AcDbVertex
100
AcDb3dPolylineVertex
10
502.5
20
525.0
30
0.0
70
32
0
VERTEX
5
63
100
AcDbEntity
8
0
62
256
100
AcDbVertex
100
AcDb3dPolylineVertex
10
602.5
20
525.0
30
0.0
70
32
0
VERTEX
5
64
100
AcDbEntity
8
0
62
256
100
AcDbVertex
100
AcDb3dPolylineVertex
10
602.5
20
35.0
30
0.0
70
32
0
VERTEX
5
65
100
AcDbEntity
8
0
62
256
100
AcDbVertex
100
AcDb3dPolylineVertex
10
502.5
20
35.0
30
0.0
70
32
0
SEQEND
5
66
100
AcDbEntity
8
0
0
POLYLINE
5
6D
330
1A
100
AcDbEntity
67
0
8
0
62
256
6
ByLayer
370
-1
48
1.0
60
0
100
AcDb3dPolyline
10
0.0
20
0.0
30
0.0
70
9
75
0
210
0.0
220
0.0
230
1.0
0
VERTEX
5
68
100
AcDbEntity
8
0
62
256
100
AcDbVertex
100
AcDb3dPolylineVertex
10
610.0
20
525.0
30
0.0
70
32
0
VERTEX
5
69
100
AcDbEntity
8
0
62
256
100
AcDbVertex
100
AcDb3dPolylineVertex
10
710.0
20
525.0
30
0.0
70
32
0
VERTEX
5
6A
100
AcDbEntity
8
0
62
256
100
AcDbVertex
100
AcDb3dPolylineVertex
10
710.0
20
35.0
30
0.0
70
32
0
VERTEX
5
6B
100
AcDbEntity
8
0
62
256
100
AcDbVertex
100
AcDb3dPolylineVertex
10
610.0
20
35.0
30
0.0
70
32
0
SEQEND
5
6C
100
AcDbEntity
8
0
0
POLYLINE
5
73
330
1A
100
AcDbEntity
67
0
8
0
62
256
6
ByLayer
370
-1
48
1.0
60
0
100
AcDb3dPolyline
10
0.0
20
0.0
30
0.0
70
9
75
0
210
0.0
220
0.0
230
1.0
0
VERTEX
5
6E
100
AcDbEntity
8
0
62
256
100
AcDbVertex
100
AcDb3dPolylineVertex
10
1000.0
20
779.0
30
0.0
70
32
0
VERTEX
5
6F
100
AcDbEntity
8
0
62
256
100
AcDbVertex
100
AcDb3dPolylineVertex
10
1490.0
20
779.0
30
0.0
70
32
0
VERTEX
5
70
100
AcDbEntity
8
0
62
256
100
AcDbVertex
100
AcDb3dPolylineVertex
10
1490.0
20
219.0
30
0.0
70
32
0
VERTEX
5
71
100
AcDbEntity
8
0
62
256
100
AcDbVertex
100
AcDb3dPolylineVertex
10
1000.0
20
219.0
30
0.0
70
32
0
SEQEND
5
72
100
AcDbEntity
8
0
0
POLYLINE
5
79
330
1A
100
AcDbEntity
67
0
8
0
62
256
6
ByLayer
370
-1
48
1.0
60
0
100
AcDb3dPolyline
10
0.0
20
0.0
30
0.0
70
9
75
0
210
0.0
220
0.0
230
1.0
0
VERTEX
5
74
100
AcDbEntity
8
0
62
256
100
AcDbVertex
100
AcDb3dPolylineVertex
10
1497.5
20
779.0
30
0.0
70
32
0
VERTEX
5
75
100
AcDbEntity
8
0
62
256
100
AcDbVertex
100
AcDb3dPolylineVertex
10
1987.5
20
779.0
30
0.0
70
32
0
VERTEX
5
76
100
AcDbEntity
8
0
62
256
100
AcDbVertex
100
AcDb3dPolylineVertex
10
1987.5
20
219.0
30
0.0
70
32
0
VERTEX
5
77
100
AcDbEntity
8
0
62
256
100
AcDbVertex
100
AcDb3dPolylineVertex
10
1497.5
20
219.0
30
0.0
70
32
0
SEQEND
5
78
100
AcDbEntity
8
0
0
VIEWPORT
5
7E
330
7A
100
AcDbEntity
67
1
8
0
62
256
6
ByLayer
370
-1
48
1.0
60
0
100
AcDbViewport
10
0.0
20
0.0
30
0.0
40
297.0
41
210.0
68
1
69
1
12
50.0
22
100.0
13
0.0
23
0.0
14
10.0
24
10.0
15
10.0
25
10.0
16
0.0
26
0.0
36
1.0
17
0.0
27
0.0
37
0.0
42
50.0
43
0.0
44
0.0
45
250.0
50
0.0
51
0.0
72
1000
90
819232
110
0.0
120
0.0
130
0.0
111
1.0
121
0.0
131
0.0
112
0.0
122
1.0
132
0.0
0
ENDSEC
0
SECTION
2
OBJECTS
0
DICTIONARY
5
83
330
0
100
AcDbDictionary
280
0
281
1
3
ACAD_GROUP
350
84
3
ACAD_LAYOUT
350
85
3
ACAD_MLINESTYLE
350
89
0
DICTIONARY
5
84
330
83
100
AcDbDictionary
280
0
281
1
0
DICTIONARY
5
85
330
83
100
AcDbDictionary
280
0
281
1
3
Model
350
1E
3
Layout1
350
7F
0
DICTIONARY
5
89
330
83
100
AcDbDictionary
280
0
281
1
3
Standard
350
19
0
LAYOUT
5
1E
330
85
100
AcDbPlotSettings
1

2
none_device
4
ISO_A4_(210.00_x_297.00_MM)
6

40
7.5
41
20.0
42
7.5
43
20.0
44
210.0
45
297.0
46
0.0
47
0.0
48
0.0
49
0.0
140
0.0
141
0.0
142
1.0
143
1.0
70
11952
72
1
73
1
74
5
7

75
16
147
1.0
148
0.0
149
0.0
100
AcDbLayout
1
Model
70
1
71
0
10
-20.0
20
-7.5
11
277.0
21
202.5
12
0.0
22
0.0
32
0.0
14
25.7
24
19.5
34
0.0
15
231.3
25
175.5
35
0.0
146
0.0
13
0.0
23
0.0
33
0.0
16
1.0
26
0.0
36
0.0
17
0.0
27
1.0
37
0.0
76
0
330
1A
0
LAYOUT
5
7F
330
85
100
AcDbPlotSettings
1

2
none_device
4
ISO_A4_(210.00_x_297.00_MM)
6

40
7.5
41
20.0
42
7.5
43
20.0
44
210.0
45
297.0
46
0.0
47
0.0
48
0.0
49
0.0
140
0.0
141
0.0
142
1.0
143
1.0
70
688
72
1
73
1
74
5
7

75
16
147
1.0
148
0.0
149
0.0
100
AcDbLayout
1
Layout1
70
1
71
1
10
-20.0
20
-7.5
11
277.0
21
202.5
12
0.0
22
0.0
32
0.0
14
25.7
24
19.5
34
0.0
15
231.3
25
175.5
35
0.0
146
0.0
13
0.0
23
0.0
33
0.0
16
1.0
26
0.0
36
0.0
17
0.0
27
1.0
37
0.0
76
0
330
7A
0
MLINESTYLE
5
19
330
89
100
AcDbMlineStyle
2
Standard
70
0
3

62
256
51
90.0
52
90.0
71
2
49
-0.5
62
256
6
ByLayer
49
0.5
62
256
6
ByLayer
0
ENDSEC
0
EOF
